<?xml version="1.0" standalone="no"?>
<!DOCTYPE svg PUBLIC "-//W3C//DTD SVG 1.1//EN" "http://www.w3.org/Graphics/SVG/1.1/DTD/svg11.dtd" >
<svg xmlns="http://www.w3.org/2000/svg" version="1.1">
<metadata>
Created by FontForge 20170731 at Sun Mar 24 14:37:51 2013
 By Aleksey,,,
Copyright (c) 2011 by Hans Samuelson. All rights reserved.
</metadata>
<defs>
<font id="MayaSamuelsPro-Bold" horiz-adv-x="517" >
  <font-face 
    font-family="MayaSamuelsPro-Bold"
    font-weight="400"
    font-stretch="normal"
    units-per-em="1000"
    panose-1="2 0 5 3 4 0 0 2 0 4"
    ascent="765"
    descent="-235"
    x-height="473"
    cap-height="675"
    bbox="-51 -253 1122 918"
    underline-thickness="20"
    underline-position="-173"
    unicode-range="U+0020-FB02"
  />
<missing-glyph horiz-adv-x="220" 
 />
    <glyph glyph-name="fi" unicode="fi" horiz-adv-x="540" 
d="M318 659l-30 -121q-15 10 -40 10q-32 0 -32 -37v-49h62v-114h-62v-348h-153v348h-84l37 114h47v38q0 83 48 129t127 46q20 0 40 -4t30 -8zM491 618q0 -33 -24 -56.5t-57 -23.5q-34 0 -57.5 23.5t-23.5 56.5t23.5 56.5t57.5 23.5q33 0 57 -23.5t24 -56.5zM486 473v-473
h-153v473h153z" />
    <glyph glyph-name="fl" unicode="fl" horiz-adv-x="530" 
d="M318 659l-30 -121q-15 10 -40 10q-32 0 -32 -37v-49h62v-114h-62v-348h-153v348h-84l37 114h47v38q0 83 48 129t127 46q20 0 40 -4t30 -8zM482 675v-675h-153v675h153z" />
    <glyph glyph-name=".notdef" horiz-adv-x="220" 
 />
    <glyph glyph-name=".null" horiz-adv-x="0" 
 />
    <glyph glyph-name="nonmarkingreturn" horiz-adv-x="333" 
 />
    <glyph glyph-name="space" unicode=" " horiz-adv-x="220" 
 />
    <glyph glyph-name="exclam" unicode="!" horiz-adv-x="244" 
d="M206 675v-441l-171 -31v472h171zM211 78q0 -42 -23.5 -65t-66.5 -23q-42 0 -65 23t-23 65q0 43 23 66.5t65 23.5q43 0 66.5 -23t23.5 -67z" />
    <glyph glyph-name="quotedbl" unicode="&#x22;" horiz-adv-x="377" 
d="M357 737l-22 -220l-106 17l-18 203h146zM166 737l-22 -220l-106 17l-18 203h146z" />
    <glyph glyph-name="numbersign" unicode="#" horiz-adv-x="592" 
d="M548 319v-127h-100v-100h-128v100h-51v-100h-127v100h-99v127h99v53h-99v127h99v99h127v-99h51v99h128v-99h100v-127h-100v-53h100zM269 319h51v53h-51v-53z" />
    <glyph glyph-name="dollar" unicode="$" horiz-adv-x="540" 
d="M510 204q0 -85 -57 -144t-150 -68v-55h-56v54q-58 2 -111.5 15t-78.5 24l-25 12l32 148q93 -56 183 -62v130l-14 5q-117 36 -160.5 84t-43.5 139t61 140.5t157 57.5v52h56v-51q48 -2 93.5 -12.5t66.5 -20.5l21 -10l-29 -146q-7 5 -20.5 13.5t-53 24t-78.5 18.5v-130
q8 -4 22 -7q94 -30 139.5 -79t45.5 -132zM210 497q0 -35 37 -53v104q-37 -11 -37 -51zM335 185q0 35 -32 52v-102q32 15 32 50z" />
    <glyph glyph-name="percent" unicode="%" horiz-adv-x="716" 
d="M306 517q0 -27 -6.5 -52.5t-21.5 -50.5t-45.5 -40.5t-72.5 -15.5q-43 0 -73.5 15t-45 41t-20.5 50.5t-6 52.5q0 27 6 52t20.5 51t45 42t73.5 16q42 0 73 -16t45.5 -42t21 -51t6.5 -52zM543 675l-226 -675h-145l226 675h145zM203 517q0 74 -41 74q-44 0 -44 -74
q0 -71 43 -71q42 0 42 71zM699 156q0 -27 -6.5 -52.5t-21.5 -50.5t-45.5 -40.5t-72.5 -15.5q-43 0 -73.5 15t-45 41t-20.5 50.5t-6 52.5q0 27 6 52t20.5 51t45 42t73.5 16q42 0 73 -16t45.5 -42t21 -51t6.5 -52zM596 156q0 74 -41 74q-44 0 -44 -74q0 -71 43 -71q42 0 42 71
z" />
    <glyph glyph-name="ampersand" unicode="&#x26;" horiz-adv-x="655" 
d="M42 191q0 107 109 168q-69 69 -69 146q0 91 59.5 135.5t156.5 44.5q212 0 212 -185q0 -108 -113 -172l64 -59q8 12 17 30.5t14 30.5l5 13l136 -35q-28 -79 -68 -135l105 -97l-106 -90l-88 79q-84 -74 -184 -74q-118 0 -184 50.5t-66 149.5zM292 117q41 0 84 38l-121 109
q-41 -28 -41 -69q0 -36 21.5 -57t56.5 -21zM241 501q0 -33 50 -78q61 30 61 78q0 57 -56 57q-26 0 -40.5 -15.5t-14.5 -41.5z" />
    <glyph glyph-name="quotesingle" unicode="'" horiz-adv-x="186" 
d="M166 737l-22 -220l-106 17l-18 203h146z" />
    <glyph glyph-name="parenleft" unicode="(" horiz-adv-x="326" 
d="M152 675h140q-4 -5 -10.5 -15.5t-23.5 -47t-30 -78.5t-23.5 -111t-10.5 -143q0 -78 10 -149.5t24.5 -117.5t29 -80.5t24.5 -50.5l10 -15h-140q-4 5 -10.5 16t-24 49t-30.5 81.5t-23.5 116t-10.5 150.5q0 74 10 142.5t24.5 112.5t29.5 77t25 48z" />
    <glyph glyph-name="parenright" unicode=")" horiz-adv-x="326" 
d="M33 675h140q4 -5 10.5 -15.5t24 -47t30.5 -78.5t23.5 -111t10.5 -143q0 -78 -10 -149.5t-25 -117.5t-29.5 -80.5t-24.5 -50.5l-10 -15h-140q4 5 10.5 16t23.5 49t30 81.5t23.5 116t10.5 150.5q0 74 -10 142.5t-24.5 112.5t-29 77t-24.5 48z" />
    <glyph glyph-name="asterisk" unicode="*" horiz-adv-x="418" 
d="M373 585l29 -86l-126 -38l81 -103l-75 -53l-73 109l-73 -109l-74 53l81 103l-126 38l28 86l123 -45l-4 132h91l-5 -132z" />
    <glyph glyph-name="plus" unicode="+" horiz-adv-x="596" 
d="M234 0v172h-171v128h171v172h128v-172h171v-128h-171v-172h-128z" />
    <glyph glyph-name="comma" unicode="," horiz-adv-x="258" 
d="M63 147h151l-42 -134l-61 -108h-107l46 108z" />
    <glyph glyph-name="hyphen" unicode="-" horiz-adv-x="342" 
d="M63 314h262l-46 -127h-262z" />
    <glyph glyph-name="period" unicode="." horiz-adv-x="248" 
d="M213 78q0 -42 -23.5 -65t-66.5 -23q-42 0 -65 23t-23 65q0 43 23 66.5t65 23.5q43 0 66.5 -23t23.5 -67z" />
    <glyph glyph-name="slash" unicode="/" horiz-adv-x="379" 
d="M268 738h126l-283 -802h-126z" />
    <glyph glyph-name="zero" unicode="0" horiz-adv-x="596" 
d="M567 338q0 -348 -269 -348t-269 348q0 347 269 347t269 -347zM394 338q0 124 -21.5 170.5t-74.5 46.5t-74.5 -46.5t-21.5 -170.5t21.5 -171.5t74.5 -47.5t74.5 47.5t21.5 171.5z" />
    <glyph glyph-name="one" unicode="1" horiz-adv-x="417" 
d="M323 675v-675h-170v547h-130l46 128h254z" />
    <glyph glyph-name="two" unicode="2" horiz-adv-x="530" 
d="M481 484q0 -69 -40.5 -130t-139.5 -160l-64 -67h268l-46 -127h-422v113l175 189q55 62 77 99t22 74q0 77 -90 77q-36 0 -78 -13.5t-67 -26.5l-24 -14v146q80 40 204 40q102 0 163.5 -47.5t61.5 -152.5z" />
    <glyph glyph-name="three" unicode="3" horiz-adv-x="533" 
d="M495 225q0 -106 -74 -169.5t-177 -63.5q-59 0 -114 12.5t-80 25.5l-25 13l31 148q8 -7 22.5 -17.5t59.5 -27.5t89 -17q49 0 72.5 23.5t23.5 59.5q0 16 -4.5 30t-14 24t-19 18t-25.5 14l-28 10q-12 4 -32 7l-31 5q-10 1 -31.5 3t-27.5 3l161 221h-216v128h431l-46 -125
l-109 -130q164 -43 164 -195z" />
    <glyph glyph-name="four" unicode="4" horiz-adv-x="588" 
d="M495 288h89l-45 -127h-44v-161h-171v161h-302l177 514h177l-166 -387h114v131l171 60v-191z" />
    <glyph glyph-name="five" unicode="5" horiz-adv-x="541" 
d="M503 228q0 -108 -72 -172t-181 -64q-60 0 -113 13t-77 26l-23 13l31 148q2 -3 7 -7.5t20.5 -16t33 -20.5t45 -16t56.5 -7q41 0 68.5 25t27.5 65q0 89 -124 89q-31 0 -63.5 -8.5t-49.5 -17.5l-17 -8v405h408l-47 -128h-191v-125q17 2 34 2q60 0 109 -18t83.5 -63.5
t34.5 -114.5z" />
    <glyph glyph-name="six" unicode="6" horiz-adv-x="569" 
d="M529 218q0 -111 -65 -169t-181 -58q-245 4 -245 338q0 99 24 171.5t65 110.5t86.5 55.5t98.5 17.5q51 0 95 -8.5t62 -17.5l18 -9l-29 -146q-7 6 -18.5 14t-45 22t-63.5 14q-114 0 -125 -148q46 30 117 30q90 0 148 -58t58 -159zM361 214q0 41 -19.5 64t-51.5 23
q-78 0 -78 -86q0 -47 21.5 -70.5t53.5 -23.5q38 0 56 21.5t18 71.5z" />
    <glyph glyph-name="seven" unicode="7" horiz-adv-x="503" 
d="M5 675h487l-227 -675h-185l203 547h-278v128zM492 675l1 1v-1h-1z" />
    <glyph glyph-name="eight" unicode="8" horiz-adv-x="587" 
d="M206 205q0 -37 23 -60.5t64 -23.5q43 0 66 23.5t23 60.5q0 43 -26 62.5t-63 19.5q-36 0 -61.5 -19.5t-25.5 -62.5zM223 480q0 -33 20.5 -51t49.5 -18q30 0 50.5 18t20.5 51q0 74 -71 74q-70 0 -70 -74zM59 499q0 96 65.5 140.5t168.5 44.5q104 0 169.5 -44.5t65.5 -140.5
q0 -27 -9.5 -51t-23 -39t-27.5 -26.5t-24 -16.5l-9 -4l13 -5q7 -3 27 -16.5t35 -30t27.5 -45.5t12.5 -62q0 -99 -64 -155t-193 -57q-129 1 -192.5 57t-63.5 155q0 33 12 62t28.5 46t33.5 29t29 17l12 5l-10 5q-6 3 -22 15t-28.5 26.5t-22.5 39t-10 51.5z" />
    <glyph glyph-name="nine" unicode="9" horiz-adv-x="565" 
d="M37 456q0 111 63.5 169t180.5 58q58 0 100.5 -15.5t76.5 -52.5t51.5 -104.5t17.5 -165.5q0 -99 -24 -171.5t-64.5 -111t-86.5 -56t-99 -17.5q-51 0 -94.5 8.5t-61.5 17.5l-18 9l28 146q7 -6 18.5 -14t45.5 -22t64 -14q112 0 124 148q-51 -30 -120 -30q-86 0 -144 59
t-58 159zM205 458q0 -41 20.5 -64.5t52.5 -23.5q34 0 54 22.5t20 66.5q0 91 -73 91q-74 0 -74 -92z" />
    <glyph glyph-name="colon" unicode=":" horiz-adv-x="248" 
d="M213 392q0 -43 -23.5 -66t-66.5 -23q-42 0 -65 23t-23 66q0 42 23 65t65 23q43 0 66.5 -23t23.5 -65zM213 78q0 -42 -23.5 -65t-66.5 -23q-42 0 -65 23t-23 65q0 43 23 66.5t65 23.5q43 0 66.5 -23t23.5 -67z" />
    <glyph glyph-name="semicolon" unicode=";" horiz-adv-x="256" 
d="M63 147h151l-42 -134l-61 -108h-107l46 108zM221 392q0 -43 -23 -66.5t-65 -23.5q-88 0 -88 90q0 42 22.5 65t65.5 23q42 0 65 -23.5t23 -64.5z" />
    <glyph glyph-name="less" unicode="&#x3c;" horiz-adv-x="515" 
d="M428 472l61 -112l-224 -123l224 -122l-61 -112l-403 234z" />
    <glyph glyph-name="equal" unicode="=" horiz-adv-x="603" 
d="M63 200h470v-127h-470v127zM533 273h-470v127h470v-127z" />
    <glyph glyph-name="greater" unicode="&#x3e;" horiz-adv-x="515" 
d="M25 360l61 112l403 -235l-403 -234l-61 112l224 122z" />
    <glyph glyph-name="question" unicode="?" horiz-adv-x="454" 
d="M301 78q0 -42 -23 -65t-65 -23q-43 0 -66.5 23t-23.5 65q0 44 23.5 67t66.5 23q42 0 65 -23.5t23 -66.5zM449 488q0 -67 -41 -114.5t-112 -72.5v-67l-170 -31v175q92 23 121 46t29 61q0 68 -83 68q-35 0 -77 -13.5t-67 -26.5l-25 -13v145q9 5 26 11.5t70.5 18t107.5 11.5
q104 0 162.5 -50t58.5 -148z" />
    <glyph glyph-name="at" unicode="@" horiz-adv-x="960" 
d="M899 252q0 -72 -18.5 -125t-49.5 -81.5t-66 -41.5t-75 -13q-39 0 -71 12t-45 25l-12 12q-5 -5 -14.5 -13t-43 -21.5t-73.5 -13.5q-59 0 -104.5 37t-45.5 103q0 20 5 38t10.5 30.5t19.5 23.5l22 19q8 7 27.5 13.5t27.5 9.5t31 7l28 5q5 1 28 4l37 5v16q0 32 -15 45.5
t-49 13.5q-32 0 -65 -9t-50 -19l-17 -9v130q63 27 179 27q167 0 167 -160v-178q0 -52 41 -52q71 0 71 160q0 316 -289 316q-67 0 -121 -18t-97.5 -55.5t-67.5 -102.5t-24 -153q0 -177 82.5 -255.5t222.5 -78.5q51 0 105.5 12.5t83.5 24.5l30 12v-113q-11 -5 -30.5 -13
t-78 -21t-115.5 -13q-88 0 -161 24.5t-132 75.5t-92.5 138.5t-33.5 204.5q0 213 120.5 327.5t308.5 114.5q186 0 297.5 -111t111.5 -316zM517 126v67q-49 -9 -65.5 -19.5t-16.5 -27.5q0 -30 32 -30q12 0 24.5 2.5t18.5 5.5z" />
    <glyph glyph-name="A" unicode="A" horiz-adv-x="690" 
d="M398 688l297 -669l-178 -33l-72 169h-250l-62 -155h-138l205 499l32 158zM245 282h146l-75 173z" />
    <glyph glyph-name="B" unicode="B" horiz-adv-x="584" 
d="M563 209q0 -209 -304 -209h-202v675h228q106 0 174 -42.5t68 -139.5q0 -74 -73 -124q109 -46 109 -160zM362 478q0 73 -94 73h-41v-152h85q50 27 50 79zM390 203q0 77 -93 77h-70v-157h47q56 0 86 17t30 63z" />
    <glyph glyph-name="C" unicode="C" horiz-adv-x="618" 
d="M598 639l-32 -144q-10 7 -28 17t-66.5 27t-89.5 17q-36 0 -66.5 -10t-57.5 -33.5t-42.5 -68t-15.5 -106.5t16 -107t43 -68.5t56.5 -34t62.5 -10.5q52 0 103 17.5t75 34.5l25 18v-156q-7 -5 -22 -12t-71 -19t-124 -12q-70 0 -129 19t-106.5 59t-74.5 109t-27 162t28 162.5
t77 109t108 58t129 18.5q62 0 119 -12t84 -24z" />
    <glyph glyph-name="D" unicode="D" horiz-adv-x="676" 
d="M652 343q0 -91 -29.5 -159.5t-81 -107.5t-113.5 -57.5t-135 -18.5h-236v675h245q71 0 131 -17t110.5 -53.5t79.5 -103t29 -158.5zM479 338q0 119 -52.5 166t-140.5 47h-59v-428h63q34 0 65 10.5t60 33t46.5 67t17.5 104.5z" />
    <glyph glyph-name="E" unicode="E" horiz-adv-x="511" 
d="M228 128h276l-46 -128h-401v675h447l-46 -128h-230v-138h213l-46 -128h-167v-153z" />
    <glyph glyph-name="F" unicode="F" horiz-adv-x="497" 
d="M57 675h447l-46 -128h-230v-156h212l-45 -128h-167v-263h-171v675z" />
    <glyph glyph-name="G" unicode="G" horiz-adv-x="706" 
d="M349 391h341l-46 -127v-272l-114 42q-83 -45 -172 -45q-70 0 -128 19t-104.5 59t-72.5 108.5t-26 161.5q0 75 18.5 135.5t50 99.5t75.5 65.5t93 37.5t104 11q64 0 121.5 -12t82.5 -24l26 -12l-32 -143q-10 7 -28.5 17t-70.5 27t-99 17q-69 0 -118.5 -50.5t-49.5 -168.5
q0 -119 48 -169.5t115 -50.5q75 0 117 23v124h-131v127z" />
    <glyph glyph-name="H" unicode="H" horiz-adv-x="685" 
d="M628 675v-675h-171v281h-229v-281h-171v675h171v-266h229v266h171z" />
    <glyph glyph-name="I" unicode="I" horiz-adv-x="285" 
d="M228 675v-675h-171v675h171z" />
    <glyph glyph-name="J" unicode="J" horiz-adv-x="283" 
d="M229 675v-538q0 -87 -43 -138t-130 -96l-63 119q38 19 52 44t14 68v541h170z" />
    <glyph glyph-name="K" unicode="K" horiz-adv-x="614" 
d="M370 377l249 -357l-175 -34l-177 272l-40 -48v-210h-170v675h170v-265l207 265h191z" />
    <glyph glyph-name="L" unicode="L" horiz-adv-x="528" 
d="M228 128h299l-46 -128h-424v675h171v-547z" />
    <glyph glyph-name="M" unicode="M" horiz-adv-x="836" 
d="M637 675h160l-16 -174v-501h-170v388l-212 -344l-203 302v-346h-138v548l-76 112l198 30l242 -382z" />
    <glyph glyph-name="N" unicode="N" horiz-adv-x="683" 
d="M629 113l31 -98l-158 -28l-305 390v-377h-138v554l-74 107l188 29l318 -414v399h138v-562z" />
    <glyph glyph-name="O" unicode="O" horiz-adv-x="697" 
d="M669 338q0 -185 -87 -267t-234 -82q-69 0 -125 18t-101 57.5t-70 109t-25 164.5t25 164.5t70 108.5t101 57t125 18q147 0 234 -81.5t87 -266.5zM496 338q0 124 -40.5 171t-107.5 47q-148 0 -148 -218q0 -220 148 -220t148 220z" />
    <glyph glyph-name="P" unicode="P" horiz-adv-x="575" 
d="M557 473q0 -110 -71.5 -163.5t-209.5 -64.5l-49 -4v-241h-170v675h254q109 0 177.5 -51t68.5 -151zM386 466q0 82 -97 82h-62v-175h37q66 0 94 22t28 71z" />
    <glyph glyph-name="Q" unicode="Q" horiz-adv-x="697" 
d="M669 338q0 -169 -79 -258l54 -60l-129 -29l-21 23q-65 -25 -146 -25q-69 0 -125 18t-101 57.5t-70 109t-25 164.5t25 164.5t70 108.5t101 57t125 18q147 0 234 -81.5t87 -266.5zM327 200l129 30l21 -23q19 51 19 131q0 124 -40.5 171t-107.5 47q-148 0 -148 -218
q0 -220 148 -220q29 0 47 6z" />
    <glyph glyph-name="R" unicode="R" horiz-adv-x="626" 
d="M433 288l209 -268l-194 -34l-176 271l-45 -1v-256h-170v675h254q106 0 176 -49t70 -148q0 -73 -29 -117.5t-95 -72.5zM386 470q0 81 -92 81h-67v-179h34q70 0 97.5 23t27.5 75z" />
    <glyph glyph-name="S" unicode="S" horiz-adv-x="514" 
d="M500 204q0 -93 -67 -153.5t-173 -60.5q-63 0 -122.5 13t-87.5 26l-28 13l32 148l31 -18q20 -10 72.5 -27t94.5 -17q37 0 55 16t18 41q0 29 -18.5 43.5t-83.5 34.5q-117 36 -160.5 84t-43.5 139q0 100 72.5 150t181.5 50q53 0 103 -11t74 -22l24 -11l-29 -146
q-8 6 -23.5 15.5t-60.5 25.5t-88 16q-73 0 -73 -56q0 -28 23.5 -44.5t91.5 -37.5q94 -30 139.5 -79t45.5 -132z" />
    <glyph glyph-name="T" unicode="T" horiz-adv-x="521" 
d="M34 675h498l-46 -128h-147v-547h-169v547h-182z" />
    <glyph glyph-name="U" unicode="U" horiz-adv-x="658" 
d="M607 675v-399q0 -126 -67.5 -206.5t-201.5 -80.5q-287 0 -287 282v404h183v-399q0 -81 27 -119.5t92 -38.5t90.5 38t25.5 120v399h138z" />
    <glyph glyph-name="V" unicode="V" horiz-adv-x="683" 
d="M551 675h140l-217 -537l-65 -131l-124 -22l-294 669l187 35l197 -478z" />
    <glyph glyph-name="W" unicode="W" horiz-adv-x="953" 
d="M823 675h138l-218 -537l-65 -132l-124 -21l-74 169l-14 -31l-58 -117l-123 -21l-294 669l187 35l200 -476l34 95l-152 346l188 35l59 -142l47 128h137l-116 -290l72 -172z" />
    <glyph glyph-name="X" unicode="X" horiz-adv-x="635" 
d="M409 340l227 -320l-174 -34l-153 214l-143 -200h-177l232 324l-232 330l173 35l159 -224l151 210h178z" />
    <glyph glyph-name="Y" unicode="Y" horiz-adv-x="607" 
d="M472 675h137l-216 -468v-207h-170v183l-228 474l186 34l157 -352z" />
    <glyph glyph-name="Z" unicode="Z" horiz-adv-x="590" 
d="M273 128h307l-46 -128h-540l344 547h-300v128h538l-48 -128z" />
    <glyph glyph-name="bracketleft" unicode="[" horiz-adv-x="378" 
d="M97 675h232l-40 -113h-69v-583h86v-112h-209v808z" />
    <glyph glyph-name="backslash" unicode="\" horiz-adv-x="356" 
d="M-18 738h124l284 -802h-125z" />
    <glyph glyph-name="bracketright" unicode="]" horiz-adv-x="347" 
d="M249 675v-808h-232l40 112h70v584h-87v112h209z" />
    <glyph glyph-name="asciicircum" unicode="^" horiz-adv-x="603" 
d="M383 675l170 -188l-119 -43l-132 140l-134 -140l-118 42l171 189h162z" />
    <glyph glyph-name="underscore" unicode="_" horiz-adv-x="600" 
d="M600 -90v-88h-600v88h600z" />
    <glyph glyph-name="grave" unicode="`" horiz-adv-x="336" 
d="M52 666l128 22l96 -135l-111 -20z" />
    <glyph glyph-name="a" unicode="a" horiz-adv-x="450" 
d="M404 130l18 -116l-142 -25l-13 47q-5 -5 -15 -12.5t-40 -20t-61 -12.5q-58 0 -96.5 36t-38.5 105q0 26 7 47t17 35t29.5 26t34.5 18.5t43 12.5t44.5 8.5t48.5 6.5l15 2v13q0 60 -63 60q-33 0 -67 -10.5t-51 -20.5l-17 -10v130q62 31 180 31q87 0 127 -43.5t40 -117.5
v-190zM255 124v70q-52 -10 -68.5 -22t-16.5 -31q0 -12 9.5 -20t22.5 -8q12 0 25 2.5t21 5.5z" />
    <glyph glyph-name="b" unicode="b" 
d="M490 237q0 -127 -60 -185.5t-158 -58.5q-32 0 -59.5 6.5t-39.5 12.5l-12 6l-8 -9l-105 -20v686h153v-224q40 29 100 29q80 0 134.5 -59.5t54.5 -183.5zM339 234q0 66 -22.5 92t-62.5 26q-13 0 -26 -3t-20 -6l-7 -3v-219q19 -11 54 -11q84 0 84 124z" />
    <glyph glyph-name="c" unicode="c" horiz-adv-x="447" 
d="M423 448l-32 -125q-53 39 -117 39q-37 0 -66.5 -29.5t-29.5 -96.5q0 -69 31.5 -96t71.5 -27q35 0 67 8t46 16l15 8v-131q-49 -20 -132 -20q-109 0 -179.5 58.5t-70.5 183.5q0 126 69 184.5t175 58.5q38 0 76 -7.5t57 -15.5z" />
    <glyph glyph-name="d" unicode="d" horiz-adv-x="518" 
d="M468 130l18 -116l-142 -25l-12 44q-5 -4 -14 -10.5t-38 -17.5t-61 -11q-83 0 -137.5 61t-54.5 181q0 127 59 185t157 58q22 0 40 -2.5t25 -4.5l8 -3v206h152v-545zM316 133v215q-22 9 -59 9q-79 0 -79 -121q0 -63 19.5 -89.5t62.5 -26.5q14 0 28 3t21 7z" />
    <glyph glyph-name="e" unicode="e" horiz-adv-x="474" 
d="M448 265l-3 -71l-259 -11q5 -30 21.5 -46.5t32.5 -20t40 -3.5q36 0 70 7.5t50 15.5l15 8v-131q-54 -19 -139 -19q-54 0 -95.5 11t-77 37t-54 75t-18.5 119q0 121 59 182t154 61q204 0 204 -214zM185 284l120 6q0 72 -56 72q-59 0 -64 -78z" />
    <glyph glyph-name="f" unicode="f" horiz-adv-x="290" 
d="M318 659l-30 -121q-15 10 -40 10q-32 0 -32 -37v-49h62v-114h-62v-348h-153v348h-84l37 114h47v38q0 83 48 129t127 46q20 0 40 -4t30 -8z" />
    <glyph glyph-name="g" unicode="g" horiz-adv-x="514" 
d="M361 464l107 20v-481q0 -111 -72 -164.5t-182 -53.5q-44 0 -84 8.5t-58 16.5l-18 8l23 134q73 -43 159 -43q45 0 62.5 16t17.5 46v49q-38 -26 -101 -26q-83 0 -135.5 61t-52.5 181q0 127 59 185t157 58q29 0 56.5 -7.5t40.5 -14.5l13 -7zM316 128v217q-18 12 -55 12
q-83 0 -83 -121q0 -63 20.5 -91t63.5 -28q15 0 28.5 2.5t19.5 5.5z" />
    <glyph glyph-name="h" unicode="h" horiz-adv-x="537" 
d="M489 317v-317h-153v296q0 56 -58 56q-19 0 -38 -4.5t-29 -9.5l-10 -4v-334h-153v675h153v-230q53 36 137 36q151 0 151 -164z" />
    <glyph glyph-name="i" unicode="i" horiz-adv-x="250" 
d="M206 618q0 -33 -24 -56.5t-57 -23.5q-34 0 -57.5 23.5t-23.5 56.5t23.5 56.5t57.5 23.5q33 0 57 -23.5t24 -56.5zM201 473v-473h-153v473h153z" />
    <glyph glyph-name="j" unicode="j" horiz-adv-x="254" 
d="M211 618q0 -33 -24.5 -56.5t-57.5 -23.5t-56.5 23.5t-23.5 56.5t23.5 56.5t56.5 23.5t57.5 -23.5t24.5 -56.5zM206 473v-514q0 -82 -45.5 -126.5t-122.5 -44.5q-23 0 -43.5 4t-29.5 8l-9 5l29 125q24 -14 47 -14q21 0 21 21v536h153z" />
    <glyph glyph-name="k" unicode="k" horiz-adv-x="494" 
d="M330 272l170 -258l-163 -24l-103 178l-33 -42v-126h-153v675h153v-385l116 183h168z" />
    <glyph glyph-name="l" unicode="l" horiz-adv-x="249" 
d="M201 675v-675h-153v675h153z" />
    <glyph glyph-name="m" unicode="m" horiz-adv-x="790" 
d="M742 317v-317h-153v301q0 51 -48 51q-16 0 -33.5 -4.5t-27.5 -9.5l-9 -4v-334h-154v301q0 29 -13 40t-39 11q-16 0 -31.5 -4.5t-23.5 -9.5l-8 -4v-334h-153v341l-18 118l138 25l13 -45q66 42 144 42q79 0 117 -52q8 6 21.5 14.5t54 23t78.5 14.5q145 0 145 -164z" />
    <glyph glyph-name="n" unicode="n" horiz-adv-x="538" 
d="M490 317v-317h-153v296q0 56 -58 56q-19 0 -38 -4.5t-29 -9.5l-10 -4v-334h-153v340l-18 119l138 25l13 -45q74 42 157 42q151 0 151 -164z" />
    <glyph glyph-name="o" unicode="o" 
d="M489 236q0 -126 -62.5 -184.5t-168.5 -58.5t-168.5 58.5t-62.5 184.5t62 185t169 59t169 -59t62 -185zM338 236q0 127 -80 127t-80 -127q0 -126 80 -126t80 126z" />
    <glyph glyph-name="p" unicode="p" horiz-adv-x="520" 
d="M491 234q0 -126 -59.5 -183.5t-157.5 -57.5q-19 0 -37 2t-27 5l-8 2v-204h-153v533l-18 128l147 25l11 -39q47 35 107 35q80 0 137.5 -61t57.5 -185zM340 234q0 66 -22.5 92t-62.5 26q-13 0 -26.5 -3t-20.5 -6l-6 -3v-220q20 -10 53 -10q85 0 85 124z" />
    <glyph glyph-name="q" unicode="q" horiz-adv-x="516" 
d="M468 484v-670h-152v207q-39 -28 -99 -28q-83 0 -136.5 61t-53.5 182q0 127 59 185.5t158 58.5q28 0 54 -7.5t38 -14.5l12 -8l8 14zM316 133v215q-22 9 -59 9q-79 0 -79 -121q0 -63 19.5 -89.5t62.5 -26.5q14 0 28 3t21 7z" />
    <glyph glyph-name="r" unicode="r" horiz-adv-x="374" 
d="M360 478l-32 -147q-24 12 -63 12q-14 0 -29.5 -3.5t-24.5 -7.5l-9 -4v-328h-153v343l-18 115l138 26l13 -45q62 42 142 42z" />
    <glyph glyph-name="s" unicode="s" horiz-adv-x="422" 
d="M404 144q0 -67 -57.5 -108.5t-134.5 -41.5q-45 0 -91 9t-69 19l-24 9l26 127q73 -45 144 -45q49 0 49 27q0 14 -14 21.5t-64 22.5q-83 24 -114 55.5t-31 95.5q0 76 58 110t145 34q39 0 77.5 -7.5t57.5 -15.5l20 -8l-26 -126q-60 42 -125 42q-49 0 -49 -26
q0 -15 16.5 -23.5t82.5 -27.5q64 -18 93.5 -50t29.5 -93z" />
    <glyph glyph-name="t" unicode="t" horiz-adv-x="306" 
d="M288 127v-115q-43 -17 -94 -17q-67 0 -101.5 27.5t-34.5 94.5v230h-74l33 115h51l27 89l115 21v-110h76v-115h-76v-201q0 -33 31 -33q11 0 22.5 3.5t18.5 7.5z" />
    <glyph glyph-name="u" unicode="u" 
d="M468 131l18 -117l-142 -25l-13 47q-6 -5 -18 -12.5t-48.5 -19.5t-73.5 -12q-81 0 -113.5 43t-32.5 121v317h153v-296q0 -30 13 -43.5t43 -13.5q14 0 29 3t23 6l8 3v341h154v-342z" />
    <glyph glyph-name="v" unicode="v" horiz-adv-x="506" 
d="M374 473h132l-154 -388l-45 -80l-111 -16l-196 469l158 25l113 -309z" />
    <glyph glyph-name="w" unicode="w" horiz-adv-x="749" 
d="M617 473h132l-154 -388l-45 -80l-111 -16l-64 153l-23 -57l-45 -80l-111 -16l-196 469l158 25l116 -317l42 117l-73 175l150 25l3 -10h110l-57 -144l61 -166z" />
    <glyph glyph-name="x" unicode="x" horiz-adv-x="498" 
d="M329 246l160 -237l-164 -21l-82 136l-72 -124h-162l163 229l-160 230l168 24l78 -133l72 123h160z" />
    <glyph glyph-name="y" unicode="y" horiz-adv-x="508" 
d="M374 473h134l-160 -417l-91 -259h-155l65 143q13 28 14.5 60.5t-9.5 56.5l-172 402l160 24l110 -304z" />
    <glyph glyph-name="z" unicode="z" horiz-adv-x="439" 
d="M30 473h385l-32 -110l-173 -246h205l-34 -117h-358v94l186 264h-179v115z" />
    <glyph glyph-name="braceleft" unicode="{" horiz-adv-x="362" 
d="M334 675l-41 -111h-33q-16 0 -26 -10t-10 -25v-146q0 -31 -14 -56.5t-24 -34t-18 -13.5q56 -37 56 -108v-158q0 -17 10 -26.5t26 -9.5h50v-110h-74q-59 0 -96.5 36t-37.5 92v154q0 36 -19 61t-56 25v88q37 0 56 25t19 66v137q0 54 38 89t96 35h98z" />
    <glyph glyph-name="bar" unicode="|" horiz-adv-x="317" 
d="M97 737h122v-800h-122v800z" />
    <glyph glyph-name="braceright" unicode="}" horiz-adv-x="362" 
d="M334 323v-88q-37 0 -56 -24.5t-19 -62.5v-157q0 -54 -37.5 -89t-96.5 -35h-98l40 110h34q16 0 25.5 10t9.5 26v158q0 71 55 108q-7 3 -17.5 11t-24 32.5t-13.5 56.5v150q0 19 -8 27t-27 8h-52v111h76q58 0 96 -35t38 -89v-137q0 -41 19 -66t56 -25z" />
    <glyph glyph-name="asciitilde" unicode="~" horiz-adv-x="602" 
d="M142 154l-92 55q1 5 4.5 13t16 28.5t29 36.5t46.5 29t65 13q50 0 96.5 -28.5t82.5 -28.5q23 0 40.5 12t23.5 24l6 13l92 -56q-1 -5 -4.5 -13t-16 -29t-29 -37t-46.5 -29t-65 -13q-49 0 -96 28t-83 28q-23 0 -40.5 -11.5t-23.5 -22.5z" />
    <glyph glyph-name="exclamdown" unicode="&#xa1;" horiz-adv-x="244" 
d="M38 -201v441l169 31v-472h-169zM33 396q0 41 23 64.5t65 23.5q43 0 66 -23t23 -65q0 -43 -23 -66.5t-66 -23.5q-42 0 -65 23.5t-23 66.5z" />
    <glyph glyph-name="cent" unicode="&#xa2;" horiz-adv-x="447" 
d="M423 448l-32 -125q-38 27 -88 36v-245q29 2 55.5 10t38.5 14l12 7v-131q-39 -16 -106 -19v-58h-56v58q-98 7 -159 66t-61 175q0 118 61.5 176.5t158.5 65.5v62h56v-63q31 -3 61 -10t44 -13zM178 236q0 -98 69 -118v240q-69 -22 -69 -122z" />
    <glyph glyph-name="sterling" unicode="&#xa3;" horiz-adv-x="575" 
d="M396 394v-88h-152q4 -33 4 -57q0 -34 -12.5 -64.5t-25.5 -43.5l-12 -13h320l-45 -128h-436v114q3 1 7.5 3t16 10t20.5 19t16 30.5t7 43.5q0 44 -11 86h-56v88h38q-2 22 -2 40q0 61 17 107.5t42.5 73t60.5 43.5t66.5 22.5t66.5 5.5q46 0 93 -9t71 -18l23 -9l-30 -145
q-74 48 -146 48q-47 0 -72.5 -23.5t-25.5 -95.5v-40h157z" />
    <glyph glyph-name="yen" unicode="&#xa5;" horiz-adv-x="605" 
d="M560 255v-89h-166v-166h-171v166h-177v89h137l-24 51h-113v88h72l-123 263l187 34l157 -353l134 337h137l-124 -281h74v-88h-113l-27 -51h140z" />
    <glyph glyph-name="brokenbar" unicode="&#xa6;" horiz-adv-x="317" 
d="M97 -63v354h122v-354h-122zM219 737v-334h-122v334h122z" />
    <glyph glyph-name="section" unicode="&#xa7;" horiz-adv-x="566" 
d="M516 351q0 -75 -53 -116q46 -40 46 -110q0 -85 -67.5 -135.5t-167.5 -50.5q-52 0 -105 10.5t-81 20.5l-27 10l29 142q87 -48 167 -48q71 0 71 38q0 25 -18 34.5t-89 29.5q-100 28 -139 64t-39 106q0 84 63 129q-52 36 -52 103q0 64 35 104.5t87.5 55.5t123.5 15
q41 0 86 -8.5t70 -17.5l24 -9l-29 -139q-69 47 -148 47q-32 0 -52 -10.5t-20 -30.5q0 -22 18.5 -32.5t84.5 -30.5q10 -3 15 -5q40 -12 60.5 -20.5t50 -27.5t43 -48t13.5 -70zM339 338q0 61 -73 61q-22 0 -36.5 -13.5t-14.5 -35.5q0 -25 19 -42t56 -17q22 0 35.5 12.5
t13.5 34.5z" />
    <glyph glyph-name="dieresis" unicode="&#xa8;" horiz-adv-x="470" 
d="M416 616q0 -29 -21 -50t-50 -21q-30 0 -51.5 21t-21.5 50q0 30 21.5 50.5t51.5 20.5q29 0 50 -20.5t21 -50.5zM218 616q0 -29 -21.5 -50t-51.5 -21q-29 0 -50 21t-21 50q0 30 21 50.5t50 20.5q30 0 51.5 -20.5t21.5 -50.5z" />
    <glyph glyph-name="copyright" unicode="&#xa9;" horiz-adv-x="698" 
d="M665 336q0 -133 -92.5 -224.5t-223.5 -91.5t-223.5 91t-92.5 225q0 133 92.5 224t223.5 91t223.5 -91t92.5 -224zM624 336q0 114 -80.5 195.5t-194.5 81.5t-194.5 -81.5t-80.5 -195.5t80.5 -195.5t194.5 -81.5t194.5 81.5t80.5 195.5zM484 512l-15 -72q-55 31 -111 31
q-51 0 -81.5 -35t-30.5 -100q0 -66 28.5 -100t81.5 -34q26 0 57 9.5t49 18.5l19 10v-77q-48 -30 -125 -30q-91 0 -141.5 53t-50.5 150q0 95 51.5 147.5t142.5 52.5q33 0 64.5 -6t46.5 -12z" />
    <glyph glyph-name="guillemotleft" unicode="&#xab;" horiz-adv-x="587" 
d="M434 237l128 -155l-60 -59l-223 214l223 214l60 -59zM181 237l127 -155l-59 -59l-224 214l224 214l59 -59z" />
    <glyph glyph-name="uni00AD" unicode="&#xad;" horiz-adv-x="342" 
d="M63 314h262l-46 -127h-262z" />
    <glyph glyph-name="registered" unicode="&#xae;" horiz-adv-x="362" 
d="M349 484q0 -71 -49 -119.5t-119 -48.5t-119 48.5t-49 119.5t49 119.5t119 48.5t119 -48.5t49 -119.5zM308 484q0 53 -37 90.5t-90 37.5t-90 -37.5t-37 -90.5t37 -91t90 -38t90 38t37 91zM217 474l50 -64l-51 -9l-41 65h-8v-61h-44v163h61q61 0 61 -48q0 -33 -28 -46z
M200 518q0 17 -19 17h-14v-38h1q18 0 25 4t7 17z" />
    <glyph glyph-name="macron" unicode="&#xaf;" horiz-adv-x="400" 
d="M56 656h322l-34 -88h-322z" />
    <glyph glyph-name="degree" unicode="&#xb0;" horiz-adv-x="397" 
d="M367 529q0 -74 -49 -119.5t-120 -45.5q-70 0 -119 45.5t-49 119.5q0 73 49 119t119 46q71 0 120 -46t49 -119zM269 529q0 31 -20.5 51t-50.5 20t-50.5 -20t-20.5 -51q0 -32 20.5 -51.5t50.5 -19.5t50.5 19.5t20.5 51.5z" />
    <glyph glyph-name="plusminus" unicode="&#xb1;" horiz-adv-x="434" 
d="M399 466v-119h-120v-120h-119v120h-120v119h120v120h119v-120h120zM399 181v-119h-359v119h359z" />
    <glyph glyph-name="twosuperior" unicode="&#xb2;" horiz-adv-x="392" 
d="M331 562q0 -29 -15 -58t-32.5 -50t-60.5 -66l-38 -40h160l-27 -76h-253v68l105 113q33 37 46 59.5t13 44.5q0 46 -54 46q-22 0 -47 -8t-40 -16l-14 -8v87q48 24 122 24q135 0 135 -120z" />
    <glyph glyph-name="threesuperior" unicode="&#xb3;" horiz-adv-x="386" 
d="M334 405q0 -63 -44.5 -101t-106.5 -38q-35 0 -68 7.5t-48 14.5l-15 8l19 89q43 -37 102 -37q29 0 43.5 14t14.5 36q0 9 -2.5 16.5t-6 13t-10.5 10.5l-12 8q-5 4 -16 7l-16 5q-5 1 -17 2.5t-16.5 2t-16.5 2t-15 1.5l97 133h-130v76h259l-28 -75l-65 -78q98 -25 98 -117z
" />
    <glyph glyph-name="acute" unicode="&#xb4;" horiz-adv-x="336" 
d="M149 688l128 -22l-113 -132l-112 19z" />
    <glyph glyph-name="mu" unicode="&#xb5;" horiz-adv-x="522" 
d="M471 131l18 -117l-142 -25l-13 47q-46 -32 -109 -32q-17 0 -25 1v-207h-152v675h152v-296q0 -30 13.5 -43.5t43.5 -13.5q14 0 29 3t23 6l8 3v341h154v-342z" />
    <glyph glyph-name="mu" unicode="&#x3bc;" horiz-adv-x="522" 
d="M471 131l18 -117l-142 -25l-13 47q-46 -32 -109 -32q-17 0 -25 1v-207h-152v675h152v-296q0 -30 13.5 -43.5t43.5 -13.5q14 0 29 3t23 6l8 3v341h154v-342z" />
    <glyph glyph-name="periodcentered" unicode="&#xb7;" horiz-adv-x="239" 
d="M208 234q0 -43 -23 -66t-66 -23q-42 0 -65 23t-23 66q0 42 23 65t65 23q43 0 66 -23t23 -65z" />
    <glyph glyph-name="cedilla" unicode="&#xb8;" horiz-adv-x="400" 
d="M285 -106q0 -97 -117 -97l-56 6l7 55q14 -5 32 -5q40 0 40 33q0 35 -48 35l-15 -1l8 80h58v-36q4 0 10 -0.5t21.5 -4t27.5 -10t22 -21t10 -34.5z" />
    <glyph glyph-name="onesuperior" unicode="&#xb9;" horiz-adv-x="325" 
d="M221 675v-405h-102v328h-78l28 77h152z" />
    <glyph glyph-name="guillemotright" unicode="&#xbb;" horiz-adv-x="587" 
d="M339 451l223 -214l-223 -214l-60 59l128 155l-128 155zM85 451l223 -214l-223 -214l-60 59l128 155l-128 155z" />
    <glyph glyph-name="onequarter" unicode="&#xbc;" horiz-adv-x="859" 
d="M222 675v-405h-102v328h-78l28 77h152zM591 675h106l-473 -675h-106zM770 173h54l-27 -76h-27v-97h-102v97h-182l107 308h106l-100 -232h69v78l102 36v-114z" />
    <glyph glyph-name="onehalf" unicode="&#xbd;" horiz-adv-x="871" 
d="M222 675v-405h-102v328h-78l28 77h152zM591 675h106l-473 -675h-106zM812 290q0 -29 -15 -58t-32.5 -50t-60.5 -66l-38 -40h160l-27 -76h-253v68l105 113q33 37 46 59.5t13 44.5q0 46 -54 46q-22 0 -47 -8t-39 -16l-15 -8v87q48 24 122 24q135 0 135 -120z" />
    <glyph glyph-name="threequarters" unicode="&#xbe;" horiz-adv-x="905" 
d="M637 675h106l-473 -675h-106zM816 173h54l-27 -76h-27v-97h-102v97h-182l107 308h106l-100 -232h69v78l102 36v-114zM347 405q0 -63 -44.5 -101t-106.5 -38q-35 0 -68 7.5t-48 14.5l-15 8l19 89q43 -37 102 -37q30 0 44 14t14 36q0 9 -2.5 16.5t-6 13t-10.5 10.5l-12 8
q-5 4 -15 7l-16 5q-6 1 -18 2.5t-16.5 2t-16.5 2t-15 1.5l97 133h-130v76h259l-28 -75l-65 -78q98 -25 98 -117z" />
    <glyph glyph-name="questiondown" unicode="&#xbf;" horiz-adv-x="454" 
d="M24 -14q0 67 41.5 115t113.5 72v67l169 31v-175q-92 -23 -121.5 -46.5t-29.5 -60.5q0 -68 84 -68q35 0 77 13t66 26l25 14v-145q-82 -41 -203 -41q-105 0 -163.5 50t-58.5 148zM173 396q0 42 23 65t65 23q43 0 66 -23t23 -65q0 -43 -23 -66t-66 -23q-42 0 -65 23t-23 66z
" />
    <glyph glyph-name="Agrave" unicode="&#xc0;" horiz-adv-x="690" 
d="M398 688l297 -669l-178 -33l-72 169h-250l-62 -155h-138l205 499l32 158zM245 282h146l-75 173zM230 868l128 22l96 -135l-111 -20z" />
    <glyph glyph-name="Aacute" unicode="&#xc1;" horiz-adv-x="690" 
d="M398 688l297 -669l-178 -33l-72 169h-250l-62 -155h-138l205 499l32 158zM245 282h146l-75 173zM329 890l128 -22l-113 -132l-112 19z" />
    <glyph glyph-name="Acircumflex" unicode="&#xc2;" horiz-adv-x="690" 
d="M398 688l297 -669l-178 -33l-72 169h-250l-62 -155h-138l205 499l32 158zM245 282h146l-75 173zM415 877l90 -124l-100 -19l-65 66l-65 -66l-100 19l90 124h150z" />
    <glyph glyph-name="Atilde" unicode="&#xc3;" horiz-adv-x="690" 
d="M398 688l297 -669l-178 -33l-72 169h-250l-62 -155h-138l205 499l32 158zM245 282h146l-75 173zM227 756l-68 39q1 4 3.5 9.5t12 21t21.5 27t34 21t48 9.5q37 0 72.5 -20t61.5 -20q16 0 28.5 8.5t16.5 16.5l4 9l68 -39q-1 -4 -3.5 -10t-12 -21t-21.5 -27t-34 -21.5
t-48 -9.5q-36 0 -72 20t-62 20q-16 0 -28.5 -8.5t-16.5 -16.5z" />
    <glyph glyph-name="Adieresis" unicode="&#xc4;" horiz-adv-x="690" 
d="M398 688l297 -669l-178 -33l-72 169h-250l-62 -155h-138l205 499l32 158zM245 282h146l-75 173zM507 818q0 -29 -21 -50t-50 -21q-30 0 -51.5 21t-21.5 50q0 30 21.5 50.5t51.5 20.5q29 0 50 -20.5t21 -50.5zM309 818q0 -29 -21.5 -50t-51.5 -21q-29 0 -50 21t-21 50
q0 30 21 50.5t50 20.5q30 0 51.5 -20.5t21.5 -50.5z" />
    <glyph glyph-name="Aring" unicode="&#xc5;" horiz-adv-x="690" 
d="M398 688l297 -669l-178 -33l-72 169h-250l-62 -155h-138l205 499l32 158zM245 282h146l-75 173zM432 826q0 -39 -26.5 -65t-68.5 -26q-43 0 -69.5 26t-26.5 65q0 40 26.5 66t69.5 26q42 0 68.5 -26t26.5 -66zM383 826q0 20 -12.5 33.5t-33.5 13.5t-33.5 -13.5
t-12.5 -33.5q0 -19 12.5 -32.5t33.5 -13.5q20 0 33 13.5t13 32.5z" />
    <glyph glyph-name="AE" unicode="&#xc6;" horiz-adv-x="823" 
d="M571 128h243l-46 -128h-350l-44 155h-196l-55 -155h-138l188 503l35 172h606l-46 -128h-325l41 -138h266l-46 -128h-179zM227 282h109l-51 183z" />
    <glyph glyph-name="Ccedilla" unicode="&#xc7;" horiz-adv-x="618" 
d="M488 -106q0 -97 -117 -97l-56 6l7 55q14 -5 32 -5q40 0 40 33q0 35 -48 35l-15 -1l7 70q-138 7 -224.5 91.5t-86.5 256.5q0 93 28 162.5t77 109t108 58t129 18.5q62 0 119 -12t84 -24l26 -11l-32 -144q-10 7 -28 17t-66.5 27t-89.5 17q-36 0 -66.5 -10t-57.5 -33.5
t-42.5 -68t-15.5 -106.5t16 -107t43 -68.5t56.5 -34t62.5 -10.5q52 0 103 17.5t75 34.5l25 18v-156q-6 -4 -19 -10.5t-60.5 -18t-104.5 -13.5v-26q4 0 10 -0.5t21.5 -4t27.5 -10t22 -21t10 -34.5z" />
    <glyph glyph-name="Egrave" unicode="&#xc8;" horiz-adv-x="511" 
d="M228 128h276l-46 -128h-401v675h447l-46 -128h-230v-138h213l-46 -128h-167v-153zM149 868l128 22l96 -135l-111 -20z" />
    <glyph glyph-name="Eacute" unicode="&#xc9;" horiz-adv-x="511" 
d="M228 128h276l-46 -128h-401v675h447l-46 -128h-230v-138h213l-46 -128h-167v-153zM255 890l128 -22l-113 -132l-112 19z" />
    <glyph glyph-name="Ecircumflex" unicode="&#xca;" horiz-adv-x="511" 
d="M228 128h276l-46 -128h-401v675h447l-46 -128h-230v-138h213l-46 -128h-167v-153zM353 877l90 -124l-100 -19l-65 66l-65 -66l-100 19l90 124h150z" />
    <glyph glyph-name="Edieresis" unicode="&#xcb;" horiz-adv-x="511" 
d="M444 818q0 -29 -21 -50t-50 -21q-30 0 -51.5 21t-21.5 50q0 30 21.5 50.5t51.5 20.5q29 0 50 -20.5t21 -50.5zM246 818q0 -29 -21.5 -50t-51.5 -21q-29 0 -50 21t-21 50q0 30 21 50.5t50 20.5q30 0 51.5 -20.5t21.5 -50.5zM228 128h276l-46 -128h-401v675h447l-46 -128
h-230v-138h213l-46 -128h-167v-153z" />
    <glyph glyph-name="Igrave" unicode="&#xcc;" horiz-adv-x="285" 
d="M227 675v-675h-171v675h171zM28 868l128 22l96 -135l-111 -20z" />
    <glyph glyph-name="Iacute" unicode="&#xcd;" horiz-adv-x="285" 
d="M227 675v-675h-171v675h171zM124 890l128 -22l-113 -132l-112 19z" />
    <glyph glyph-name="Icircumflex" unicode="&#xce;" horiz-adv-x="285" 
d="M218 877l90 -124l-100 -19l-65 66l-65 -66l-100 19l90 124h150zM228 675v-675h-171v675h171z" />
    <glyph glyph-name="Idieresis" unicode="&#xcf;" horiz-adv-x="285" 
d="M313 818q0 -29 -21 -50t-50 -21q-30 0 -51.5 21t-21.5 50q0 30 21.5 50.5t51.5 20.5q29 0 50 -20.5t21 -50.5zM115 818q0 -29 -21.5 -50t-51.5 -21q-29 0 -50 21t-21 50q0 30 21 50.5t50 20.5q30 0 51.5 -20.5t21.5 -50.5zM228 675v-675h-171v675h171z" />
    <glyph glyph-name="Eth" unicode="&#xd0;" horiz-adv-x="676" 
d="M652 343q0 -91 -29.5 -159.5t-81 -107.5t-113.5 -57.5t-135 -18.5h-236v281h-67l45 128h22v266h245q71 0 131 -17t110.5 -53.5t79.5 -103t29 -158.5zM250 281h-23v-158h63q34 0 65 10.5t60 33t46.5 67t17.5 104.5q0 119 -52.5 166t-140.5 47h-59v-142h69z" />
    <glyph glyph-name="Ntilde" unicode="&#xd1;" horiz-adv-x="683" 
d="M629 113l31 -98l-158 -28l-305 390v-377h-138v554l-74 107l188 29l318 -414v399h138v-562zM228 756l-68 39q1 4 3.5 9.5t12 21t21.5 27t34 21t48 9.5q37 0 72.5 -20t61.5 -20q16 0 28.5 8.5t16.5 16.5l4 9l68 -39q-1 -4 -3.5 -10t-12 -21t-21.5 -27t-34 -21.5t-48 -9.5
q-35 0 -71 20t-63 20q-16 0 -28.5 -8.5t-16.5 -16.5z" />
    <glyph glyph-name="Ograve" unicode="&#xd2;" horiz-adv-x="697" 
d="M669 338q0 -185 -87 -267t-234 -82q-69 0 -125 18t-101 57.5t-70 109t-25 164.5t25 164.5t70 108.5t101 57t125 18q147 0 234 -81.5t87 -266.5zM496 338q0 124 -40.5 171t-107.5 47q-148 0 -148 -218q0 -220 148 -220t148 220zM237 868l128 22l96 -135l-111 -20z" />
    <glyph glyph-name="Oacute" unicode="&#xd3;" horiz-adv-x="697" 
d="M669 338q0 -185 -87 -267t-234 -82q-69 0 -125 18t-101 57.5t-70 109t-25 164.5t25 164.5t70 108.5t101 57t125 18q147 0 234 -81.5t87 -266.5zM496 338q0 124 -40.5 171t-107.5 47q-148 0 -148 -218q0 -220 148 -220t148 220zM334 890l128 -22l-113 -132l-112 19z" />
    <glyph glyph-name="Ocircumflex" unicode="&#xd4;" horiz-adv-x="697" 
d="M669 338q0 -185 -87 -267t-234 -82q-69 0 -125 18t-101 57.5t-70 109t-25 164.5t25 164.5t70 108.5t101 57t125 18q147 0 234 -81.5t87 -266.5zM496 338q0 124 -40.5 171t-107.5 47q-148 0 -148 -218q0 -220 148 -220t148 220zM422 877l90 -124l-100 -19l-65 66l-65 -66
l-100 19l90 124h150z" />
    <glyph glyph-name="Otilde" unicode="&#xd5;" horiz-adv-x="697" 
d="M669 338q0 -185 -87 -267t-234 -82q-69 0 -125 18t-101 57.5t-70 109t-25 164.5t25 164.5t70 108.5t101 57t125 18q147 0 234 -81.5t87 -266.5zM496 338q0 124 -40.5 171t-107.5 47q-148 0 -148 -218q0 -220 148 -220t148 220zM229 756l-68 39q1 4 3.5 9.5t12 21t21.5 27
t34 21t48 9.5q37 0 72.5 -20t61.5 -20q16 0 28.5 8.5t16.5 16.5l4 9l68 -39q-1 -4 -3.5 -10t-12 -21t-21.5 -27t-34 -21.5t-48 -9.5q-36 0 -72 20t-62 20q-16 0 -28.5 -8.5t-16.5 -16.5z" />
    <glyph glyph-name="Odieresis" unicode="&#xd6;" horiz-adv-x="697" 
d="M669 338q0 -185 -87 -267t-234 -82q-69 0 -125 18t-101 57.5t-70 109t-25 164.5t25 164.5t70 108.5t101 57t125 18q147 0 234 -81.5t87 -266.5zM496 338q0 124 -40.5 171t-107.5 47q-148 0 -148 -218q0 -220 148 -220t148 220zM523 818q0 -29 -21 -50t-50 -21
q-30 0 -51.5 21t-21.5 50q0 30 21.5 50.5t51.5 20.5q29 0 50 -20.5t21 -50.5zM325 818q0 -29 -21.5 -50t-51.5 -21q-29 0 -50 21t-21 50q0 30 21 50.5t50 20.5q30 0 51.5 -20.5t21.5 -50.5z" />
    <glyph glyph-name="multiply" unicode="&#xd7;" horiz-adv-x="620" 
d="M160 476l150 -149l149 148l90 -89l-149 -150l150 -149l-91 -91l-149 150l-148 -149l-91 90l148 149l-149 150z" />
    <glyph glyph-name="Oslash" unicode="&#xd8;" horiz-adv-x="697" 
d="M669 337q0 -95 -24.5 -164.5t-69.5 -108.5t-101 -57t-126 -18q-67 0 -116 12l-5 -8l-146 -32l52 94q-106 91 -106 282q0 96 24.5 165t70 108.5t101.5 57.5t125 18q65 0 122 -16l4 9l145 31l-51 -95q101 -91 101 -278zM496 337q0 33 -3 63.5t-7 44.5l-3 14l-184 -336
q19 -6 49 -6q148 0 148 220zM200 337q0 -32 4 -64t8 -48l4 -16l186 340q-19 7 -54 7q-148 0 -148 -219z" />
    <glyph glyph-name="Ugrave" unicode="&#xd9;" horiz-adv-x="658" 
d="M607 675v-399q0 -126 -67.5 -206.5t-201.5 -80.5q-287 0 -287 282v404h183v-399q0 -81 27 -119.5t92 -38.5t90.5 38t25.5 120v399h138zM239 868l128 22l96 -135l-111 -20z" />
    <glyph glyph-name="Uacute" unicode="&#xda;" horiz-adv-x="658" 
d="M607 675v-399q0 -126 -67.5 -206.5t-201.5 -80.5q-287 0 -287 282v404h183v-399q0 -81 27 -119.5t92 -38.5t90.5 38t25.5 120v399h138zM333 890l128 -22l-113 -132l-112 19z" />
    <glyph glyph-name="Ucircumflex" unicode="&#xdb;" horiz-adv-x="658" 
d="M607 675v-399q0 -126 -67.5 -206.5t-201.5 -80.5q-287 0 -287 282v404h183v-399q0 -81 27 -119.5t92 -38.5t90.5 38t25.5 120v399h138zM421 877l90 -124l-100 -19l-65 66l-65 -66l-100 19l90 124h150z" />
    <glyph glyph-name="Udieresis" unicode="&#xdc;" horiz-adv-x="658" 
d="M514 818q0 -29 -21 -50t-50 -21q-30 0 -51.5 21t-21.5 50q0 30 21.5 50.5t51.5 20.5q29 0 50 -20.5t21 -50.5zM316 818q0 -29 -21.5 -50t-51.5 -21q-29 0 -50 21t-21 50q0 30 21 50.5t50 20.5q30 0 51.5 -20.5t21.5 -50.5zM607 675v-399q0 -126 -67.5 -206.5
t-201.5 -80.5q-287 0 -287 282v404h183v-399q0 -81 27 -119.5t92 -38.5t90.5 38t25.5 120v399h138z" />
    <glyph glyph-name="Yacute" unicode="&#xdd;" horiz-adv-x="607" 
d="M472 675h137l-216 -468v-207h-170v183l-228 474l186 34l157 -352zM296 890l128 -22l-113 -132l-112 19z" />
    <glyph glyph-name="Thorn" unicode="&#xde;" horiz-adv-x="546" 
d="M533 361q0 -212 -281 -227l-49 -3v-131h-170v675h170v-111h84q108 0 177 -51.5t69 -151.5zM361 355q0 38 -19 60.5t-72 22.5h-67v-177h36q69 0 95.5 22.5t26.5 71.5z" />
    <glyph glyph-name="germandbls" unicode="&#xdf;" horiz-adv-x="532" 
d="M519 199q0 -95 -58 -150t-143 -55q-24 0 -50 2.5t-40 5.5l-13 2l27 124q24 -12 58 -12q69 0 69 81q0 48 -33 67.5t-98 19.5v113h7q35 0 54 21.5t19 61.5q0 76 -61 76q-63 0 -63 -83v-675h-152v664q0 100 62.5 159.5t163.5 59.5q102 0 155 -47.5t53 -135.5
q0 -36 -17.5 -68.5t-34.5 -46.5l-18 -14q5 -1 12.5 -4.5t27 -17t34.5 -30.5t27 -48.5t12 -69.5z" />
    <glyph glyph-name="agrave" unicode="&#xe0;" horiz-adv-x="450" 
d="M404 130l18 -116l-142 -25l-13 47q-5 -5 -15 -12.5t-40 -20t-61 -12.5q-58 0 -96.5 36t-38.5 105q0 26 7 47t17 35t29.5 26t34.5 18.5t43 12.5t44.5 8.5t48.5 6.5l15 2v13q0 60 -63 60q-33 0 -67 -10.5t-51 -20.5l-17 -10v130q62 31 180 31q87 0 127 -43.5t40 -117.5
v-190zM255 124v70q-52 -10 -68.5 -22t-16.5 -31q0 -12 9.5 -20t22.5 -8q12 0 25 2.5t21 5.5zM128 666l128 22l96 -135l-111 -20z" />
    <glyph glyph-name="aacute" unicode="&#xe1;" horiz-adv-x="450" 
d="M404 130l18 -116l-142 -25l-13 47q-5 -5 -15 -12.5t-40 -20t-61 -12.5q-58 0 -96.5 36t-38.5 105q0 26 7 47t17 35t29.5 26t34.5 18.5t43 12.5t44.5 8.5t48.5 6.5l15 2v13q0 60 -63 60q-33 0 -67 -10.5t-51 -20.5l-17 -10v130q62 31 180 31q87 0 127 -43.5t40 -117.5
v-190zM255 124v70q-52 -10 -68.5 -22t-16.5 -31q0 -12 9.5 -20t22.5 -8q12 0 25 2.5t21 5.5zM235 688l128 -22l-113 -132l-112 19z" />
    <glyph glyph-name="acircumflex" unicode="&#xe2;" horiz-adv-x="450" 
d="M404 130l18 -116l-142 -25l-13 47q-5 -5 -15 -12.5t-40 -20t-61 -12.5q-58 0 -96.5 36t-38.5 105q0 26 7 47t17 35t29.5 26t34.5 18.5t43 12.5t44.5 8.5t48.5 6.5l15 2v13q0 60 -63 60q-33 0 -67 -10.5t-51 -20.5l-17 -10v130q62 31 180 31q87 0 127 -43.5t40 -117.5
v-190zM255 124v70q-52 -10 -68.5 -22t-16.5 -31q0 -12 9.5 -20t22.5 -8q12 0 25 2.5t21 5.5zM315 675l90 -124l-100 -19l-65 66l-65 -66l-100 19l90 124h150z" />
    <glyph glyph-name="atilde" unicode="&#xe3;" horiz-adv-x="450" 
d="M404 130l18 -116l-142 -25l-13 47q-5 -5 -15 -12.5t-40 -20t-61 -12.5q-58 0 -96.5 36t-38.5 105q0 26 7 47t17 35t29.5 26t34.5 18.5t43 12.5t44.5 8.5t48.5 6.5l15 2v13q0 60 -63 60q-33 0 -67 -10.5t-51 -20.5l-17 -10v130q62 31 180 31q87 0 127 -43.5t40 -117.5
v-190zM255 124v70q-52 -10 -68.5 -22t-16.5 -31q0 -12 9.5 -20t22.5 -8q12 0 25 2.5t21 5.5zM120 554l-68 39q1 4 3.5 9.5t12 21t21.5 27t34 21t48 9.5q37 0 72.5 -20t61.5 -20q16 0 28.5 8.5t16.5 16.5l4 9l68 -39q-1 -4 -3.5 -10t-12 -21t-21.5 -27t-34 -21.5t-48 -9.5
q-35 0 -71 20t-63 20q-16 0 -28.5 -8.5t-16.5 -16.5z" />
    <glyph glyph-name="adieresis" unicode="&#xe4;" horiz-adv-x="450" 
d="M404 130l18 -116l-142 -25l-13 47q-5 -5 -15 -12.5t-40 -20t-61 -12.5q-58 0 -96.5 36t-38.5 105q0 26 7 47t17 35t29.5 26t34.5 18.5t43 12.5t44.5 8.5t48.5 6.5l15 2v13q0 60 -63 60q-33 0 -67 -10.5t-51 -20.5l-17 -10v130q62 31 180 31q87 0 127 -43.5t40 -117.5
v-190zM255 124v70q-52 -10 -68.5 -22t-16.5 -31q0 -12 9.5 -20t22.5 -8q12 0 25 2.5t21 5.5zM405 616q0 -29 -21 -50t-50 -21q-30 0 -51.5 21t-21.5 50q0 30 21.5 50.5t51.5 20.5q29 0 50 -20.5t21 -50.5zM207 616q0 -29 -21.5 -50t-51.5 -21q-29 0 -50 21t-21 50
q0 30 21 50.5t50 20.5q30 0 51.5 -20.5t21.5 -50.5z" />
    <glyph glyph-name="aring" unicode="&#xe5;" horiz-adv-x="450" 
d="M404 130l18 -116l-142 -25l-13 47q-5 -5 -15 -12.5t-40 -20t-61 -12.5q-58 0 -96.5 36t-38.5 105q0 26 7 47t17 35t29.5 26t34.5 18.5t43 12.5t44.5 8.5t48.5 6.5l15 2v13q0 60 -63 60q-33 0 -67 -10.5t-51 -20.5l-17 -10v130q62 31 180 31q87 0 127 -43.5t40 -117.5
v-190zM255 124v70q-52 -10 -68.5 -22t-16.5 -31q0 -12 9.5 -20t22.5 -8q12 0 25 2.5t21 5.5zM337 624q0 -39 -26.5 -65t-68.5 -26q-43 0 -69.5 26t-26.5 65q0 40 26.5 66t69.5 26q42 0 68.5 -26t26.5 -66zM288 624q0 20 -12.5 33.5t-33.5 13.5t-33.5 -13.5t-12.5 -33.5
q0 -19 12.5 -32.5t33.5 -13.5q20 0 33 13.5t13 32.5z" />
    <glyph glyph-name="ae" unicode="&#xe6;" horiz-adv-x="662" 
d="M637 265q0 -11 -0.5 -23t-0.5 -20.5t-0.5 -15t-1.5 -9.5v-3l-230 -10v-56q28 -17 64 -17t70 8.5t50 16.5l15 8v-131q-54 -19 -139 -19q-118 0 -174 46q-47 -47 -137 -47q-58 0 -97.5 36t-39.5 103q0 37 12 63.5t36.5 42t50.5 24t64 15.5l75 11v6q0 37 -16 53.5t-50 16.5
q-36 0 -68.5 -11t-47.5 -22l-14 -11v130q59 33 192 33q52 0 86 -15q42 14 85 14q216 0 216 -217zM404 293l84 5q0 29 -13 47t-39 18l-32 -5v-65zM255 124v70q-52 -10 -68.5 -22t-16.5 -31q0 -12 9.5 -20t22.5 -8q12 0 25 2.5t21 5.5z" />
    <glyph glyph-name="ccedilla" unicode="&#xe7;" horiz-adv-x="447" 
d="M375 -106q0 -97 -117 -97l-56 6l7 55q14 -5 32 -5q40 0 40 33q0 35 -48 35l-15 -1l7 78q-89 12 -143.5 70t-54.5 168q0 126 69 184.5t175 58.5q38 0 76 -7.5t57 -15.5l19 -8l-32 -125q-53 39 -117 39q-37 0 -66.5 -29.5t-29.5 -96.5q0 -69 31.5 -96t71.5 -27q35 0 67 8
t46 16l15 8v-131q-47 -19 -125 -20v-30q4 0 10 -0.5t21.5 -4t27.5 -10t22 -21t10 -34.5z" />
    <glyph glyph-name="egrave" unicode="&#xe8;" horiz-adv-x="474" 
d="M448 265l-3 -71l-259 -11q5 -30 21.5 -46.5t32.5 -20t40 -3.5q36 0 70 7.5t50 15.5l15 8v-131q-54 -19 -139 -19q-54 0 -95.5 11t-77 37t-54 75t-18.5 119q0 121 59 182t154 61q204 0 204 -214zM185 284l120 6q0 72 -56 72q-59 0 -64 -78zM133 666l128 22l96 -135
l-111 -20z" />
    <glyph glyph-name="eacute" unicode="&#xe9;" horiz-adv-x="474" 
d="M448 265l-3 -71l-259 -11q5 -30 21.5 -46.5t32.5 -20t40 -3.5q36 0 70 7.5t50 15.5l15 8v-131q-54 -19 -139 -19q-54 0 -95.5 11t-77 37t-54 75t-18.5 119q0 121 59 182t154 61q204 0 204 -214zM185 284l120 6q0 72 -56 72q-59 0 -64 -78zM252 688l128 -22l-113 -132
l-112 19z" />
    <glyph glyph-name="ecircumflex" unicode="&#xea;" horiz-adv-x="474" 
d="M448 265l-3 -71l-259 -11q5 -30 21.5 -46.5t32.5 -20t40 -3.5q36 0 70 7.5t50 15.5l15 8v-131q-54 -19 -139 -19q-54 0 -95.5 11t-77 37t-54 75t-18.5 119q0 121 59 182t154 61q204 0 204 -214zM185 284l120 6q0 72 -56 72q-59 0 -64 -78zM328 675l90 -124l-100 -19
l-65 66l-65 -66l-100 19l90 124h150z" />
    <glyph glyph-name="edieresis" unicode="&#xeb;" horiz-adv-x="474" 
d="M448 265l-3 -71l-259 -11q5 -30 21.5 -46.5t32.5 -20t40 -3.5q36 0 70 7.5t50 15.5l15 8v-131q-54 -19 -139 -19q-54 0 -95.5 11t-77 37t-54 75t-18.5 119q0 121 59 182t154 61q204 0 204 -214zM185 284l120 6q0 72 -56 72q-59 0 -64 -78zM417 616q0 -29 -21 -50t-50 -21
q-30 0 -51.5 21t-21.5 50q0 30 21.5 50.5t51.5 20.5q29 0 50 -20.5t21 -50.5zM219 616q0 -29 -21.5 -50t-51.5 -21q-29 0 -50 21t-21 50q0 30 21 50.5t50 20.5q30 0 51.5 -20.5t21.5 -50.5z" />
    <glyph glyph-name="igrave" unicode="&#xec;" horiz-adv-x="250" 
d="M202 473v-473h-154v473h154zM11 666l128 22l96 -135l-111 -20z" />
    <glyph glyph-name="iacute" unicode="&#xed;" horiz-adv-x="250" 
d="M201 473v-473h-154v473h154zM116 688l128 -22l-113 -132l-112 19z" />
    <glyph glyph-name="icircumflex" unicode="&#xee;" horiz-adv-x="250" 
d="M203 675l90 -124l-100 -19l-65 66l-65 -66l-100 19l90 124h150zM202 473v-473h-154v473h154z" />
    <glyph glyph-name="idieresis" unicode="&#xef;" horiz-adv-x="250" 
d="M299 616q0 -29 -21 -50t-50 -21q-30 0 -51.5 21t-21.5 50q0 30 21.5 50.5t51.5 20.5q29 0 50 -20.5t21 -50.5zM101 616q0 -29 -21.5 -50t-51.5 -21q-29 0 -50 21t-21 50q0 30 21 50.5t50 20.5q30 0 51.5 -20.5t21.5 -50.5zM202 473v-473h-154v473h154z" />
    <glyph glyph-name="eth" unicode="&#xf0;" horiz-adv-x="523" 
d="M492 243q0 -127 -63 -188t-171 -61q-231 0 -231 243q0 50 13 90.5t32.5 66t46.5 43t51 26t49 11.5l-29 39l-108 -37v101l46 16l-58 71l157 23q15 -20 38 -47l105 36v-101l-42 -15q56 -70 77 -99q40 -55 63.5 -105.5t23.5 -112.5zM341 241q0 51 -13 81t-39 60
q-111 -7 -111 -145q0 -71 21 -99t59 -28q37 0 60 31.5t23 99.5z" />
    <glyph glyph-name="ntilde" unicode="&#xf1;" horiz-adv-x="538" 
d="M490 317v-317h-153v296q0 56 -58 56q-19 0 -38 -4.5t-29 -9.5l-10 -4v-334h-153v340l-18 119l138 25l13 -45q74 42 157 42q151 0 151 -164zM153 554l-68 39q1 4 3.5 9.5t12 21t21.5 27t34 21t48 9.5q37 0 72.5 -20t61.5 -20q16 0 28.5 8.5t16.5 16.5l4 9l68 -39
q-1 -4 -3.5 -10t-12 -21t-21.5 -27t-34 -21.5t-48 -9.5q-36 0 -72 20t-62 20q-16 0 -28.5 -8.5t-16.5 -16.5z" />
    <glyph glyph-name="ograve" unicode="&#xf2;" 
d="M489 236q0 -126 -62.5 -184.5t-168.5 -58.5t-168.5 58.5t-62.5 184.5t62 185t169 59t169 -59t62 -185zM338 236q0 127 -80 127t-80 -127q0 -126 80 -126t80 126zM148 666l128 22l96 -135l-111 -20z" />
    <glyph glyph-name="oacute" unicode="&#xf3;" 
d="M489 236q0 -126 -62.5 -184.5t-168.5 -58.5t-168.5 58.5t-62.5 184.5t62 185t169 59t169 -59t62 -185zM338 236q0 127 -80 127t-80 -127q0 -126 80 -126t80 126zM252 688l128 -22l-113 -132l-112 19z" />
    <glyph glyph-name="ocircumflex" unicode="&#xf4;" 
d="M489 236q0 -126 -62.5 -184.5t-168.5 -58.5t-168.5 58.5t-62.5 184.5t62 185t169 59t169 -59t62 -185zM338 236q0 127 -80 127t-80 -127q0 -126 80 -126t80 126zM333 675l90 -124l-100 -19l-65 66l-65 -66l-100 19l90 124h150z" />
    <glyph glyph-name="otilde" unicode="&#xf5;" 
d="M489 236q0 -126 -62.5 -184.5t-168.5 -58.5t-168.5 58.5t-62.5 184.5t62 185t169 59t169 -59t62 -185zM338 236q0 127 -80 127t-80 -127q0 -126 80 -126t80 126zM140 554l-68 39q1 4 3.5 9.5t12 21t21.5 27t34 21t48 9.5q37 0 72.5 -20t61.5 -20q16 0 28.5 8.5t16.5 16.5
l4 9l68 -39q-1 -4 -3.5 -10t-12 -21t-21.5 -27t-34 -21.5t-48 -9.5q-35 0 -71 20t-63 20q-16 0 -28.5 -8.5t-16.5 -16.5z" />
    <glyph glyph-name="odieresis" unicode="&#xf6;" 
d="M489 236q0 -126 -62.5 -184.5t-168.5 -58.5t-168.5 58.5t-62.5 184.5t62 185t169 59t169 -59t62 -185zM338 236q0 127 -80 127t-80 -127q0 -126 80 -126t80 126zM429 616q0 -29 -21 -50t-50 -21q-30 0 -51.5 21t-21.5 50q0 30 21.5 50.5t51.5 20.5q29 0 50 -20.5
t21 -50.5zM231 616q0 -29 -21.5 -50t-51.5 -21q-29 0 -50 21t-21 50q0 30 21 50.5t50 20.5q30 0 51.5 -20.5t21.5 -50.5z" />
    <glyph glyph-name="divide" unicode="&#xf7;" horiz-adv-x="597" 
d="M379 55q0 -37 -20.5 -58t-58.5 -21q-39 0 -60 20.5t-21 58.5t21 58.5t60 20.5q38 0 58.5 -21t20.5 -58zM533 172h-470v128h470v-128zM379 415q0 -37 -20.5 -58t-58.5 -21q-39 0 -60 20.5t-21 58.5t21 58.5t60 20.5q38 0 58.5 -21t20.5 -58z" />
    <glyph glyph-name="oslash" unicode="&#xf8;" 
d="M489 236q0 -126 -62.5 -184.5t-168.5 -58.5q-44 0 -85 11l-11 -19l-120 -26l51 89q-66 60 -66 188q0 126 62 185t169 59q38 0 78 -10l9 16l124 27l-50 -85q70 -62 70 -192zM338 236q0 26 -3 46l-99 -170q7 -2 22 -2q80 0 80 126zM178 236q0 -26 2 -37l93 162q-10 2 -15 2
q-80 0 -80 -127z" />
    <glyph glyph-name="ugrave" unicode="&#xf9;" 
d="M468 131l18 -117l-142 -25l-13 47q-6 -5 -18 -12.5t-48.5 -19.5t-73.5 -12q-81 0 -113.5 43t-32.5 121v317h153v-296q0 -30 13 -43.5t43 -13.5q14 0 29 3t23 6l8 3v341h154v-342zM145 666l128 22l96 -135l-111 -20z" />
    <glyph glyph-name="uacute" unicode="&#xfa;" 
d="M468 131l18 -117l-142 -25l-13 47q-6 -5 -18 -12.5t-48.5 -19.5t-73.5 -12q-81 0 -113.5 43t-32.5 121v317h153v-296q0 -30 13 -43.5t43 -13.5q14 0 29 3t23 6l8 3v341h154v-342zM244 688l128 -22l-113 -132l-112 19z" />
    <glyph glyph-name="ucircumflex" unicode="&#xfb;" 
d="M468 131l18 -117l-142 -25l-13 47q-6 -5 -18 -12.5t-48.5 -19.5t-73.5 -12q-81 0 -113.5 43t-32.5 121v317h153v-296q0 -30 13 -43.5t43 -13.5q14 0 29 3t23 6l8 3v341h154v-342zM333 675l90 -124l-100 -19l-65 66l-65 -66l-100 19l90 124h150z" />
    <glyph glyph-name="udieresis" unicode="&#xfc;" 
d="M468 131l18 -117l-142 -25l-13 47q-6 -5 -18 -12.5t-48.5 -19.5t-73.5 -12q-81 0 -113.5 43t-32.5 121v317h153v-296q0 -30 13 -43.5t43 -13.5q14 0 29 3t23 6l8 3v341h154v-342zM430 616q0 -29 -21 -50t-50 -21q-30 0 -51.5 21t-21.5 50q0 30 21.5 50.5t51.5 20.5
q29 0 50 -20.5t21 -50.5zM232 616q0 -29 -21.5 -50t-51.5 -21q-29 0 -50 21t-21 50q0 30 21 50.5t50 20.5q30 0 51.5 -20.5t21.5 -50.5z" />
    <glyph glyph-name="yacute" unicode="&#xfd;" horiz-adv-x="508" 
d="M374 473h134l-160 -417l-91 -259h-155l65 143q13 28 14.5 60.5t-9.5 56.5l-172 402l160 24l110 -304zM259 688l128 -22l-113 -132l-112 19z" />
    <glyph glyph-name="thorn" unicode="&#xfe;" horiz-adv-x="521" 
d="M490 234q0 -126 -59.5 -183.5t-157.5 -57.5q-19 0 -37 2t-26 5l-9 2v-204h-153v877h153v-225q39 30 94 30q80 0 137.5 -61t57.5 -185zM339 234q0 66 -22.5 92t-62.5 26q-13 0 -26.5 -3t-19.5 -6l-7 -3v-220q20 -10 53 -10q85 0 85 124z" />
    <glyph glyph-name="ydieresis" unicode="&#xff;" horiz-adv-x="508" 
d="M374 473h134l-160 -417l-91 -259h-155l65 143q13 28 14.5 60.5t-9.5 56.5l-172 402l160 24l110 -304zM418 616q0 -29 -21 -50t-50 -21q-30 0 -51.5 21t-21.5 50q0 30 21.5 50.5t51.5 20.5q29 0 50 -20.5t21 -50.5zM220 616q0 -29 -21.5 -50t-51.5 -21q-29 0 -50 21
t-21 50q0 30 21 50.5t50 20.5q30 0 51.5 -20.5t21.5 -50.5z" />
    <glyph glyph-name="Amacron" unicode="&#x100;" horiz-adv-x="690" 
d="M398 688l297 -669l-178 -33l-72 169h-250l-62 -155h-138l205 499l32 158zM245 282h146l-75 173zM198 858h322l-34 -88h-322z" />
    <glyph glyph-name="amacron" unicode="&#x101;" horiz-adv-x="450" 
d="M404 130l18 -116l-142 -25l-13 47q-5 -5 -15 -12.5t-40 -20t-61 -12.5q-58 0 -96.5 36t-38.5 105q0 26 7 47t17 35t29.5 26t34.5 18.5t43 12.5t44.5 8.5t48.5 6.5l15 2v13q0 60 -63 60q-33 0 -67 -10.5t-51 -20.5l-17 -10v130q62 31 180 31q87 0 127 -43.5t40 -117.5
v-190zM255 124v70q-52 -10 -68.5 -22t-16.5 -31q0 -12 9.5 -20t22.5 -8q12 0 25 2.5t21 5.5zM91 656h322l-34 -88h-322z" />
    <glyph glyph-name="Abreve" unicode="&#x102;" horiz-adv-x="690" 
d="M398 688l297 -669l-178 -33l-72 169h-250l-62 -155h-138l205 499l32 158zM245 282h146l-75 173zM403 889l97 -19q-1 -5 -3.5 -13.5t-14 -30.5t-27.5 -38.5t-46 -30t-68 -13.5q-40 0 -71.5 13t-47 31.5t-25.5 37t-13 31.5l-2 13l98 19q1 -6 4.5 -15t19 -23.5t37.5 -14.5
t37.5 13t19.5 27z" />
    <glyph glyph-name="abreve" unicode="&#x103;" horiz-adv-x="450" 
d="M404 130l18 -116l-142 -25l-13 47q-5 -5 -15 -12.5t-40 -20t-61 -12.5q-58 0 -96.5 36t-38.5 105q0 26 7 47t17 35t29.5 26t34.5 18.5t43 12.5t44.5 8.5t48.5 6.5l15 2v13q0 60 -63 60q-33 0 -67 -10.5t-51 -20.5l-17 -10v130q62 31 180 31q87 0 127 -43.5t40 -117.5
v-190zM255 124v70q-52 -10 -68.5 -22t-16.5 -31q0 -12 9.5 -20t22.5 -8q12 0 25 2.5t21 5.5zM304 687l97 -19q-1 -5 -3.5 -13.5t-14 -30.5t-27.5 -38.5t-46 -30t-68 -13.5q-40 0 -71.5 13t-47 31.5t-25.5 37t-12 31.5l-3 13l98 19q1 -6 4.5 -15t19 -23.5t37.5 -14.5t37.5 13
t20.5 27z" />
    <glyph glyph-name="Aogonek" unicode="&#x104;" horiz-adv-x="690" 
d="M398 688l297 -669l-178 -33l-72 169h-250l-62 -155h-138l205 499l32 158zM245 282h146l-75 173zM687 -32l-7 -55q-11 3 -25 3q-46 0 -46 -33q0 -34 44 -34l19 2l-6 -51q-16 -3 -40 -3q-112 0 -112 86q0 43 35.5 66.5t88.5 23.5z" />
    <glyph glyph-name="aogonek" unicode="&#x105;" horiz-adv-x="450" 
d="M404 130l18 -116l-142 -25l-13 47q-5 -5 -15 -12.5t-40 -20t-61 -12.5q-58 0 -96.5 36t-38.5 105q0 26 7 47t17 35t29.5 26t34.5 18.5t43 12.5t44.5 8.5t48.5 6.5l15 2v13q0 60 -63 60q-33 0 -67 -10.5t-51 -20.5l-17 -10v130q62 31 180 31q87 0 127 -43.5t40 -117.5
v-190zM255 124v70q-52 -10 -68.5 -22t-16.5 -31q0 -12 9.5 -20t22.5 -8q12 0 25 2.5t21 5.5zM419 -32l-7 -55q-11 3 -25 3q-46 0 -46 -33q0 -34 44 -34l19 2l-6 -51q-16 -3 -40 -3q-112 0 -112 86q0 43 35.5 66.5t88.5 23.5z" />
    <glyph glyph-name="Cacute" unicode="&#x106;" horiz-adv-x="618" 
d="M598 639l-32 -144q-10 7 -28 17t-66.5 27t-89.5 17q-36 0 -66.5 -10t-57.5 -33.5t-42.5 -68t-15.5 -106.5t16 -107t43 -68.5t56.5 -34t62.5 -10.5q52 0 103 17.5t75 34.5l25 18v-156q-7 -5 -22 -12t-71 -19t-124 -12q-70 0 -129 19t-106.5 59t-74.5 109t-27 162t28 162.5
t77 109t108 58t129 18.5q62 0 119 -12t84 -24zM365 890l128 -22l-113 -132l-112 19z" />
    <glyph glyph-name="cacute" unicode="&#x107;" horiz-adv-x="447" 
d="M423 448l-32 -125q-53 39 -117 39q-37 0 -66.5 -29.5t-29.5 -96.5q0 -69 31.5 -96t71.5 -27q35 0 67 8t46 16l15 8v-131q-49 -20 -132 -20q-109 0 -179.5 58.5t-70.5 183.5q0 126 69 184.5t175 58.5q38 0 76 -7.5t57 -15.5zM260 688l128 -22l-113 -132l-112 19z" />
    <glyph glyph-name="Ccircumflex" unicode="&#x108;" horiz-adv-x="618" 
d="M598 639l-32 -144q-10 7 -28 17t-66.5 27t-89.5 17q-36 0 -66.5 -10t-57.5 -33.5t-42.5 -68t-15.5 -106.5t16 -107t43 -68.5t56.5 -34t62.5 -10.5q52 0 103 17.5t75 34.5l25 18v-156q-7 -5 -22 -12t-71 -19t-124 -12q-70 0 -129 19t-106.5 59t-74.5 109t-27 162t28 162.5
t77 109t108 58t129 18.5q62 0 119 -12t84 -24zM444 877l90 -124l-100 -19l-65 66l-65 -66l-100 19l90 124h150z" />
    <glyph glyph-name="ccircumflex" unicode="&#x109;" horiz-adv-x="447" 
d="M423 448l-32 -125q-53 39 -117 39q-37 0 -66.5 -29.5t-29.5 -96.5q0 -69 31.5 -96t71.5 -27q35 0 67 8t46 16l15 8v-131q-49 -20 -132 -20q-109 0 -179.5 58.5t-70.5 183.5q0 126 69 184.5t175 58.5q38 0 76 -7.5t57 -15.5zM338 675l90 -124l-100 -19l-65 66l-65 -66
l-100 19l90 124h150z" />
    <glyph glyph-name="Cdotaccent" unicode="&#x10a;" horiz-adv-x="618" 
d="M598 639l-32 -144q-10 7 -28 17t-66.5 27t-89.5 17q-36 0 -66.5 -10t-57.5 -33.5t-42.5 -68t-15.5 -106.5t16 -107t43 -68.5t56.5 -34t62.5 -10.5q52 0 103 17.5t75 34.5l25 18v-156q-7 -5 -22 -12t-71 -19t-124 -12q-70 0 -129 19t-106.5 59t-74.5 109t-27 162t28 162.5
t77 109t108 58t129 18.5q62 0 119 -12t84 -24zM439 818q0 -29 -21.5 -50t-50.5 -21t-50 21t-21 50q0 30 21 50.5t50 20.5q30 0 51 -20.5t21 -50.5z" />
    <glyph glyph-name="cdotaccent" unicode="&#x10b;" horiz-adv-x="447" 
d="M423 448l-32 -125q-53 39 -117 39q-37 0 -66.5 -29.5t-29.5 -96.5q0 -69 31.5 -96t71.5 -27q35 0 67 8t46 16l15 8v-131q-49 -20 -132 -20q-109 0 -179.5 58.5t-70.5 183.5q0 126 69 184.5t175 58.5q38 0 76 -7.5t57 -15.5zM335 616q0 -29 -21.5 -50t-50.5 -21t-50 21
t-21 50q0 30 21 50.5t50 20.5q30 0 51 -20.5t21 -50.5z" />
    <glyph glyph-name="Ccaron" unicode="&#x10c;" horiz-adv-x="618" 
d="M598 639l-32 -144q-10 7 -28 17t-66.5 27t-89.5 17q-36 0 -66.5 -10t-57.5 -33.5t-42.5 -68t-15.5 -106.5t16 -107t43 -68.5t56.5 -34t62.5 -10.5q52 0 103 17.5t75 34.5l25 18v-156q-7 -5 -22 -12t-71 -19t-124 -12q-70 0 -129 19t-106.5 59t-74.5 109t-27 162t28 162.5
t77 109t108 58t129 18.5q62 0 119 -12t84 -24zM284 745l-90 124l100 19l65 -66l65 66l100 -19l-90 -124h-150z" />
    <glyph glyph-name="ccaron" unicode="&#x10d;" horiz-adv-x="447" 
d="M423 448l-32 -125q-53 39 -117 39q-37 0 -66.5 -29.5t-29.5 -96.5q0 -69 31.5 -96t71.5 -27q35 0 67 8t46 16l15 8v-131q-49 -20 -132 -20q-109 0 -179.5 58.5t-70.5 183.5q0 126 69 184.5t175 58.5q38 0 76 -7.5t57 -15.5zM195 543l-90 124l100 19l65 -66l65 66l100 -19
l-90 -124h-150z" />
    <glyph glyph-name="Dcaron" unicode="&#x10e;" horiz-adv-x="676" 
d="M662 343q0 -91 -29.5 -159.5t-81 -107.5t-113.5 -57.5t-135 -18.5h-236v675h245q71 0 131 -17t110.5 -53.5t79.5 -103t29 -158.5zM489 338q0 119 -52.5 166t-140.5 47h-59v-428h63q34 0 65 10.5t60 33t46.5 67t17.5 104.5zM246 745l-90 124l100 19l65 -66l65 66l100 -19
l-90 -124h-150z" />
    <glyph glyph-name="dcaron" unicode="&#x10f;" horiz-adv-x="518" 
d="M468 130l18 -116l-142 -25l-12 44q-5 -4 -14 -10.5t-38 -17.5t-61 -11q-83 0 -137.5 61t-54.5 181q0 127 59 185t157 58q22 0 40 -2.5t25 -4.5l8 -3v206h152v-545zM316 133v215q-22 9 -59 9q-79 0 -79 -121q0 -63 19.5 -89.5t62.5 -26.5q14 0 28 3t21 7zM553 724l60 26
l60 -26l-20 -103l-54 -95l-86 17l40 98v83z" />
    <glyph glyph-name="Dcroat" unicode="&#x110;" horiz-adv-x="676" 
d="M662 343q0 -91 -29.5 -159.5t-81 -107.5t-113.5 -57.5t-135 -18.5h-236v300h-71l31 87h40v288h245q71 0 131 -17t110.5 -53.5t79.5 -103t29 -158.5zM489 338q0 119 -52.5 166t-140.5 47h-59v-164h72l-31 -87h-41v-177h63q34 0 65 10.5t60 33t46.5 67t17.5 104.5z" />
    <glyph glyph-name="dcroat" unicode="&#x111;" horiz-adv-x="518" 
d="M468 130l18 -116l-142 -25l-12 44q-5 -4 -14 -10.5t-38 -17.5t-61 -11q-83 0 -137.5 61t-54.5 181q0 127 59 185t157 58q22 0 40 -2.5t25 -4.5l8 -3v61h-80l31 87h49v58h152v-58h81l-31 -87h-50v-400zM316 133v215q-22 9 -59 9q-79 0 -79 -121q0 -63 19.5 -89.5
t62.5 -26.5q14 0 28 3t21 7z" />
    <glyph glyph-name="Emacron" unicode="&#x112;" horiz-adv-x="511" 
d="M228 128h276l-46 -128h-401v675h447l-46 -128h-230v-138h213l-46 -128h-167v-153zM131 858h322l-34 -88h-322z" />
    <glyph glyph-name="emacron" unicode="&#x113;" horiz-adv-x="474" 
d="M448 265l-3 -71l-259 -11q5 -30 21.5 -46.5t32.5 -20t40 -3.5q36 0 70 7.5t50 15.5l15 8v-131q-54 -19 -139 -19q-54 0 -95.5 11t-77 37t-54 75t-18.5 119q0 121 59 182t154 61q204 0 204 -214zM185 284l120 6q0 72 -56 72q-59 0 -64 -78zM101 656h322l-34 -88h-322z" />
    <glyph glyph-name="Edotaccent" unicode="&#x116;" horiz-adv-x="511" 
d="M228 128h276l-46 -128h-401v675h447l-46 -128h-230v-138h213l-46 -128h-167v-153zM356 818q0 -29 -21.5 -50t-50.5 -21t-50 21t-21 50q0 30 21 50.5t50 20.5q30 0 51 -20.5t21 -50.5z" />
    <glyph glyph-name="edotaccent" unicode="&#x117;" horiz-adv-x="474" 
d="M448 265l-3 -71l-259 -11q5 -30 21.5 -46.5t32.5 -20t40 -3.5q36 0 70 7.5t50 15.5l15 8v-131q-54 -19 -139 -19q-54 0 -95.5 11t-77 37t-54 75t-18.5 119q0 121 59 182t154 61q204 0 204 -214zM185 284l120 6q0 72 -56 72q-59 0 -64 -78zM321 616q0 -29 -21.5 -50
t-50.5 -21t-50 21t-21 50q0 30 21 50.5t50 20.5q30 0 51 -20.5t21 -50.5z" />
    <glyph glyph-name="Eogonek" unicode="&#x118;" horiz-adv-x="511" 
d="M228 128h276l-46 -128h-401v675h447l-46 -128h-230v-138h213l-46 -128h-167v-153zM462 -32l-7 -55q-11 3 -25 3q-46 0 -46 -33q0 -34 44 -34l19 2l-6 -51q-16 -3 -40 -3q-112 0 -112 86q0 43 35.5 66.5t88.5 23.5z" />
    <glyph glyph-name="eogonek" unicode="&#x119;" horiz-adv-x="474" 
d="M448 265l-3 -71l-259 -11q5 -30 21.5 -46.5t32.5 -20t40 -3.5q36 0 70 7.5t50 15.5l15 8v-131q-54 -19 -139 -19q-54 0 -95.5 11t-77 37t-54 75t-18.5 119q0 121 59 182t154 61q204 0 204 -214zM185 284l120 6q0 72 -56 72q-59 0 -64 -78zM404 -32l-7 -55q-11 3 -25 3
q-46 0 -46 -33q0 -34 44 -34l19 2l-6 -51q-16 -3 -40 -3q-112 0 -112 86q0 43 35.5 66.5t88.5 23.5z" />
    <glyph glyph-name="Ecaron" unicode="&#x11a;" horiz-adv-x="511" 
d="M228 128h276l-46 -128h-401v675h447l-46 -128h-230v-138h213l-46 -128h-167v-153zM197 745l-90 124l100 19l65 -66l65 66l100 -19l-90 -124h-150z" />
    <glyph glyph-name="ecaron" unicode="&#x11b;" horiz-adv-x="474" 
d="M448 265l-3 -71l-259 -11q5 -30 21.5 -46.5t32.5 -20t40 -3.5q36 0 70 7.5t50 15.5l15 8v-131q-54 -19 -139 -19q-54 0 -95.5 11t-77 37t-54 75t-18.5 119q0 121 59 182t154 61q204 0 204 -214zM185 284l120 6q0 72 -56 72q-59 0 -64 -78zM175 543l-90 124l100 19l65 -66
l65 66l100 -19l-90 -124h-150z" />
    <glyph glyph-name="Gcircumflex" unicode="&#x11c;" horiz-adv-x="706" 
d="M349 391h341l-46 -127v-272l-114 42q-83 -45 -172 -45q-70 0 -128 19t-104.5 59t-72.5 108.5t-26 161.5q0 75 18.5 135.5t50 99.5t75.5 65.5t93 37.5t104 11q64 0 121.5 -12t82.5 -24l26 -12l-32 -143q-10 7 -28.5 17t-70.5 27t-99 17q-69 0 -118.5 -50.5t-49.5 -168.5
q0 -119 48 -169.5t115 -50.5q75 0 117 23v124h-131v127zM445 877l90 -124l-100 -19l-65 66l-65 -66l-100 19l90 124h150z" />
    <glyph glyph-name="gcircumflex" unicode="&#x11d;" horiz-adv-x="514" 
d="M361 464l107 20v-481q0 -111 -72 -164.5t-182 -53.5q-44 0 -84 8.5t-58 16.5l-18 8l23 134q73 -43 159 -43q45 0 62.5 16t17.5 46v49q-38 -26 -101 -26q-83 0 -135.5 61t-52.5 181q0 127 59 185t157 58q29 0 56.5 -7.5t40.5 -14.5l13 -7zM316 128v217q-18 12 -55 12
q-83 0 -83 -121q0 -63 20.5 -91t63.5 -28q15 0 28.5 2.5t19.5 5.5zM344 675l90 -124l-100 -19l-65 66l-65 -66l-100 19l90 124h150z" />
    <glyph glyph-name="Gbreve" unicode="&#x11e;" horiz-adv-x="706" 
d="M349 391h341l-46 -127v-272l-114 42q-83 -45 -172 -45q-70 0 -128 19t-104.5 59t-72.5 108.5t-26 161.5q0 75 18.5 135.5t50 99.5t75.5 65.5t93 37.5t104 11q64 0 121.5 -12t82.5 -24l26 -12l-32 -143q-10 7 -28.5 17t-70.5 27t-99 17q-69 0 -118.5 -50.5t-49.5 -168.5
q0 -119 48 -169.5t115 -50.5q75 0 117 23v124h-131v127zM432 889l97 -19q-1 -5 -3.5 -13.5t-14 -30.5t-27.5 -38.5t-46 -30t-68 -13.5q-40 0 -71.5 13t-47 31.5t-25.5 37t-12 31.5l-3 13l98 19q1 -6 4.5 -15t19 -23.5t37.5 -14.5t37.5 13t20.5 27z" />
    <glyph glyph-name="gbreve" unicode="&#x11f;" horiz-adv-x="514" 
d="M361 464l107 20v-481q0 -111 -72 -164.5t-182 -53.5q-44 0 -84 8.5t-58 16.5l-18 8l23 134q73 -43 159 -43q45 0 62.5 16t17.5 46v49q-38 -26 -101 -26q-83 0 -135.5 61t-52.5 181q0 127 59 185t157 58q29 0 56.5 -7.5t40.5 -14.5l13 -7zM316 128v217q-18 12 -55 12
q-83 0 -83 -121q0 -63 20.5 -91t63.5 -28q15 0 28.5 2.5t19.5 5.5zM335 687l97 -19q-1 -5 -3.5 -13.5t-14 -30.5t-27.5 -38.5t-46 -30t-68 -13.5q-40 0 -71.5 13t-47 31.5t-25.5 37t-13 31.5l-2 13l98 19q1 -6 4.5 -15t19 -23.5t37.5 -14.5t37.5 13t19.5 27z" />
    <glyph glyph-name="Gdotaccent" unicode="&#x120;" horiz-adv-x="706" 
d="M349 391h341l-46 -127v-272l-114 42q-83 -45 -172 -45q-70 0 -128 19t-104.5 59t-72.5 108.5t-26 161.5q0 75 18.5 135.5t50 99.5t75.5 65.5t93 37.5t104 11q64 0 121.5 -12t82.5 -24l26 -12l-32 -143q-10 7 -28.5 17t-70.5 27t-99 17q-69 0 -118.5 -50.5t-49.5 -168.5
q0 -119 48 -169.5t115 -50.5q75 0 117 23v124h-131v127zM436 818q0 -29 -21.5 -50t-50.5 -21t-50 21t-21 50q0 30 21 50.5t50 20.5q30 0 51 -20.5t21 -50.5z" />
    <glyph glyph-name="gdotaccent" unicode="&#x121;" horiz-adv-x="514" 
d="M361 464l107 20v-481q0 -111 -72 -164.5t-182 -53.5q-44 0 -84 8.5t-58 16.5l-18 8l23 134q73 -43 159 -43q45 0 62.5 16t17.5 46v49q-38 -26 -101 -26q-83 0 -135.5 61t-52.5 181q0 127 59 185t157 58q29 0 56.5 -7.5t40.5 -14.5l13 -7zM316 128v217q-18 12 -55 12
q-83 0 -83 -121q0 -63 20.5 -91t63.5 -28q15 0 28.5 2.5t19.5 5.5zM331 616q0 -29 -21.5 -50t-50.5 -21t-50 21t-21 50q0 30 21 50.5t50 20.5q30 0 51 -20.5t21 -50.5z" />
    <glyph glyph-name="Gcommaaccent" unicode="&#x122;" horiz-adv-x="706" 
d="M349 391h341l-46 -127v-272l-114 42q-83 -45 -172 -45q-70 0 -128 19t-104.5 59t-72.5 108.5t-26 161.5q0 75 18.5 135.5t50 99.5t75.5 65.5t93 37.5t104 11q64 0 121.5 -12t82.5 -24l26 -12l-32 -143q-10 7 -28.5 17t-70.5 27t-99 17q-69 0 -118.5 -50.5t-49.5 -168.5
q0 -119 48 -169.5t115 -50.5q75 0 117 23v124h-131v127zM310 -55l60 26l60 -26l-20 -103l-54 -95l-86 17l40 98v83z" />
    <glyph glyph-name="gcommaaccent" unicode="&#x123;" horiz-adv-x="514" 
d="M316 547l-60 -26l-60 26l20 103l54 95l86 -17l-40 -98v-83zM361 464l107 20v-481q0 -111 -72 -164.5t-182 -53.5q-44 0 -84 8.5t-58 16.5l-18 8l23 134q73 -43 159 -43q45 0 62.5 16t17.5 46v49q-38 -26 -101 -26q-83 0 -135.5 61t-52.5 181q0 127 59 185t157 58
q29 0 56.5 -7.5t40.5 -14.5l13 -7zM316 128v217q-18 12 -55 12q-83 0 -83 -121q0 -63 20.5 -91t63.5 -28q15 0 28.5 2.5t19.5 5.5z" />
    <glyph glyph-name="Hcircumflex" unicode="&#x124;" horiz-adv-x="685" 
d="M638 675v-675h-171v281h-229v-281h-171v675h171v-266h229v266h171zM427 877l90 -124l-100 -19l-65 66l-65 -66l-100 19l90 124h150z" />
    <glyph glyph-name="hcircumflex" unicode="&#x125;" horiz-adv-x="537" 
d="M489 317v-317h-153v296q0 56 -58 56q-19 0 -38 -4.5t-29 -9.5l-10 -4v-334h-153v675h153v-230q53 36 137 36q151 0 151 -164zM411 675l74 -102l-83 -16l-53 54l-54 -54l-82 16l74 102h124z" />
    <glyph glyph-name="Hbar" unicode="&#x126;" horiz-adv-x="685" 
d="M638 675v-115h63l-31 -87h-32v-473h-171v281h-229v-281h-171v473h-64l31 87h33v115h171v-115h229v115h171zM238 409h229v64h-229v-64z" />
    <glyph glyph-name="hbar" unicode="&#x127;" horiz-adv-x="537" 
d="M489 317v-317h-153v296q0 56 -58 56q-19 0 -38 -4.5t-29 -9.5l-10 -4v-334h-153v530h-78l31 87h47v58h153v-58h82l-31 -87h-51v-85q53 36 137 36q151 0 151 -164z" />
    <glyph glyph-name="Imacron" unicode="&#x12a;" horiz-adv-x="285" 
d="M228 675v-675h-171v675h171zM-2 858h322l-34 -88h-322z" />
    <glyph glyph-name="imacron" unicode="&#x12b;" horiz-adv-x="250" 
d="M202 473v-473h-154v473h154zM-17 656h322l-34 -88h-322z" />
    <glyph glyph-name="Iogonek" unicode="&#x12e;" horiz-adv-x="285" 
d="M231 -32l-7 -55q-11 3 -25 3q-46 0 -46 -33q0 -34 44 -34l19 2l-6 -51q-16 -3 -40 -3q-112 0 -112 86q0 43 35.5 66.5t88.5 23.5zM228 675v-675h-171v675h171z" />
    <glyph glyph-name="iogonek" unicode="&#x12f;" horiz-adv-x="250" 
d="M216 -32l-7 -55q-11 3 -25 3q-46 0 -46 -33q0 -34 44 -34l19 2l-6 -51q-16 -3 -40 -3q-112 0 -112 86q0 43 35.5 66.5t88.5 23.5zM206 618q0 -33 -24 -56.5t-57 -23.5q-34 0 -57.5 23.5t-23.5 56.5t23.5 56.5t57.5 23.5q33 0 57 -23.5t24 -56.5zM201 473v-473h-153v473
h153z" />
    <glyph glyph-name="Idotaccent" unicode="&#x130;" horiz-adv-x="285" 
d="M214 818q0 -29 -21.5 -50t-50.5 -21t-50 21t-21 50q0 30 21 50.5t50 20.5q30 0 51 -20.5t21 -50.5zM228 675v-675h-171v675h171z" />
    <glyph glyph-name="dotlessi" unicode="&#x131;" horiz-adv-x="250" 
d="M202 473v-473h-154v473h154z" />
    <glyph glyph-name="Jcircumflex" unicode="&#x134;" horiz-adv-x="283" 
d="M242 675v-538q0 -87 -43 -138t-130 -96l-63 119q38 19 52 44t14 68v541h170zM233 877l90 -124l-100 -19l-65 66l-65 -66l-100 19l90 124h150z" />
    <glyph glyph-name="jcircumflex" unicode="&#x135;" horiz-adv-x="254" 
d="M206 473v-514q0 -82 -45.5 -126.5t-122.5 -44.5q-23 0 -43.5 4t-29.5 8l-9 5l29 125q24 -14 47 -14q21 0 21 21v536h153zM202 675l90 -124l-100 -19l-65 66l-65 -66l-100 19l90 124h150z" />
    <glyph glyph-name="Kcommaaccent" unicode="&#x136;" horiz-adv-x="614" 
d="M370 377l249 -357l-175 -34l-177 272l-40 -48v-210h-170v675h170v-265l207 265h191zM260 -55l60 26l60 -26l-20 -103l-54 -95l-86 17l40 98v83z" />
    <glyph glyph-name="kcommaaccent" unicode="&#x137;" horiz-adv-x="494" 
d="M330 272l170 -258l-163 -24l-103 178l-33 -42v-126h-153v675h153v-385l116 183h168zM201 -55l60 26l60 -26l-20 -103l-54 -95l-86 17l40 98v83z" />
    <glyph glyph-name="Lacute" unicode="&#x139;" horiz-adv-x="528" 
d="M238 128h299l-46 -128h-424v675h171v-547zM268 890l128 -22l-113 -132l-112 19z" />
    <glyph glyph-name="lacute" unicode="&#x13a;" horiz-adv-x="249" 
d="M202 675v-675h-153v675h153zM110 872l128 -22l-113 -132l-112 19z" />
    <glyph glyph-name="Lcommaaccent" unicode="&#x13b;" horiz-adv-x="528" 
d="M238 128h299l-46 -128h-424v675h171v-547zM234 -55l60 26l60 -26l-20 -103l-54 -95l-86 17l40 98v83z" />
    <glyph glyph-name="lcommaaccent" unicode="&#x13c;" horiz-adv-x="249" 
d="M202 675v-675h-153v675h153zM73 -55l60 26l60 -26l-20 -103l-54 -95l-86 17l40 98v83z" />
    <glyph glyph-name="Lcaron" unicode="&#x13d;" horiz-adv-x="528" 
d="M222 745l-90 124l100 19l65 -66l65 66l100 -19l-90 -124h-150zM238 128h299l-46 -128h-424v675h171v-547z" />
    <glyph glyph-name="lcaron" unicode="&#x13e;" horiz-adv-x="249" 
d="M202 675v-675h-153v675h153zM284 724l60 26l60 -26l-20 -103l-54 -95l-86 17l40 98v83z" />
    <glyph glyph-name="Lslash" unicode="&#x141;" horiz-adv-x="528" 
d="M7 354l57 19v302h171v-243l61 21v-128l-61 -21v-176h299l-47 -128h-423v245l-57 -19v128z" />
    <glyph glyph-name="lslash" unicode="&#x142;" horiz-adv-x="249" 
d="M-19 354l71 24v297h152v-245l66 23v-128l-66 -23v-302h-152v250l-71 -24v128z" />
    <glyph glyph-name="Nacute" unicode="&#x143;" horiz-adv-x="683" 
d="M629 113l31 -98l-158 -28l-305 390v-377h-138v554l-74 107l188 29l318 -414v399h138v-562zM330 890l128 -22l-113 -132l-112 19z" />
    <glyph glyph-name="nacute" unicode="&#x144;" horiz-adv-x="538" 
d="M490 317v-317h-153v296q0 56 -58 56q-19 0 -38 -4.5t-29 -9.5l-10 -4v-334h-153v340l-18 119l138 25l13 -45q74 42 157 42q151 0 151 -164zM262 688l128 -22l-113 -132l-112 19z" />
    <glyph glyph-name="Ncommaaccent" unicode="&#x145;" horiz-adv-x="683" 
d="M629 113l31 -98l-158 -28l-305 390v-377h-138v554l-74 107l188 29l318 -414v399h138v-562zM285 -55l60 26l60 -26l-20 -103l-54 -95l-86 17l40 98v83z" />
    <glyph glyph-name="ncommaaccent" unicode="&#x146;" horiz-adv-x="538" 
d="M490 317v-317h-153v296q0 56 -58 56q-19 0 -38 -4.5t-29 -9.5l-10 -4v-334h-153v340l-18 119l138 25l13 -45q74 42 157 42q151 0 151 -164zM213 -55l60 26l60 -26l-20 -103l-54 -95l-86 17l40 98v83z" />
    <glyph glyph-name="Ncaron" unicode="&#x147;" horiz-adv-x="683" 
d="M629 113l31 -98l-158 -28l-305 390v-377h-138v554l-74 107l188 29l318 -414v399h138v-562zM268 745l-90 124l100 19l65 -66l65 66l100 -19l-90 -124h-150z" />
    <glyph glyph-name="ncaron" unicode="&#x148;" horiz-adv-x="538" 
d="M490 317v-317h-153v296q0 56 -58 56q-19 0 -38 -4.5t-29 -9.5l-10 -4v-334h-153v340l-18 119l138 25l13 -45q74 42 157 42q151 0 151 -164zM200 543l-90 124l100 19l65 -66l65 66l100 -19l-90 -124h-150z" />
    <glyph glyph-name="Omacron" unicode="&#x14c;" horiz-adv-x="697" 
d="M669 338q0 -185 -87 -267t-234 -82q-69 0 -125 18t-101 57.5t-70 109t-25 164.5t25 164.5t70 108.5t101 57t125 18q147 0 234 -81.5t87 -266.5zM496 338q0 124 -40.5 171t-107.5 47q-148 0 -148 -218q0 -220 148 -220t148 220zM204 858h322l-34 -88h-322z" />
    <glyph glyph-name="omacron" unicode="&#x14d;" 
d="M489 236q0 -126 -62.5 -184.5t-168.5 -58.5t-168.5 58.5t-62.5 184.5t62 185t169 59t169 -59t62 -185zM338 236q0 127 -80 127t-80 -127q0 -126 80 -126t80 126zM114 656h322l-34 -88h-322z" />
    <glyph glyph-name="Ohungarumlaut" unicode="&#x150;" horiz-adv-x="697" 
d="M478 883l74 -15l-147 -127l-66 14zM310 883l74 -15l-147 -127l-66 14zM669 338q0 -185 -87 -267t-234 -82q-69 0 -125 18t-101 57.5t-70 109t-25 164.5t25 164.5t70 108.5t101 57t125 18q147 0 234 -81.5t87 -266.5zM496 338q0 124 -40.5 171t-107.5 47q-148 0 -148 -218
q0 -220 148 -220t148 220z" />
    <glyph glyph-name="ohungarumlaut" unicode="&#x151;" 
d="M400 681l74 -15l-147 -127l-66 14zM232 681l74 -15l-147 -127l-66 14zM489 236q0 -126 -62.5 -184.5t-168.5 -58.5t-168.5 58.5t-62.5 184.5t62 185t169 59t169 -59t62 -185zM338 236q0 127 -80 127t-80 -127q0 -126 80 -126t80 126z" />
    <glyph glyph-name="OE" unicode="&#x152;" horiz-adv-x="884" 
d="M599 128h278l-46 -128h-371q-49 -11 -115 -11q-69 0 -124.5 18t-100 57.5t-69 108.5t-24.5 165t24.5 165t69 108t100 57t124.5 18q32 0 61 -3t42 -5l13 -3h416l-46 -128h-232v-138h214l-46 -128h-168v-153zM429 136v404q-31 16 -84 16q-30 0 -54 -9t-45.5 -32
t-33.5 -67.5t-12 -109.5q0 -220 145 -220q24 0 45 4.5t30 9.5z" />
    <glyph glyph-name="oe" unicode="&#x153;" horiz-adv-x="799" 
d="M773 265v-23q0 -12 -0.5 -20.5t-1 -15t-0.5 -9.5v-3l-277 -11q7 -71 114 -71q32 0 66 8t52 16l17 8v-131q-52 -19 -137 -19q-123 0 -184 54q-57 -54 -165 -54q-106 0 -168 58.5t-62 183.5q0 126 62 184.5t168 58.5q105 0 164 -55q56 55 149 55q203 0 203 -214zM355 238
q0 62 -23 93t-62 31q-40 0 -66 -32.5t-26 -93.5q0 -126 93 -126q84 0 84 128zM494 291l131 7q0 29 -15.5 46.5t-44.5 17.5q-65 0 -71 -71z" />
    <glyph glyph-name="Racute" unicode="&#x154;" horiz-adv-x="626" 
d="M433 288l209 -268l-194 -34l-176 271l-45 -1v-256h-170v675h254q106 0 176 -49t70 -148q0 -73 -29 -117.5t-95 -72.5zM386 470q0 81 -92 81h-67v-179h34q70 0 97.5 23t27.5 75zM301 890l128 -22l-113 -132l-112 19z" />
    <glyph glyph-name="racute" unicode="&#x155;" horiz-adv-x="375" 
d="M360 478l-32 -147q-24 12 -63 12q-14 0 -29.5 -3.5t-24.5 -7.5l-9 -4v-328h-153v343l-18 115l138 26l13 -45q62 42 142 42zM178 688l128 -22l-113 -132l-112 19z" />
    <glyph glyph-name="Rcommaaccent" unicode="&#x156;" horiz-adv-x="626" 
d="M433 288l209 -268l-194 -34l-176 271l-45 -1v-256h-170v675h254q106 0 176 -49t70 -148q0 -73 -29 -117.5t-95 -72.5zM386 470q0 81 -92 81h-67v-179h34q70 0 97.5 23t27.5 75zM273 -55l60 26l60 -26l-20 -103l-54 -95l-86 17l40 98v83z" />
    <glyph glyph-name="rcommaaccent" unicode="&#x157;" horiz-adv-x="375" 
d="M360 478l-32 -147q-24 12 -63 12q-14 0 -29.5 -3.5t-24.5 -7.5l-9 -4v-328h-153v343l-18 115l138 26l13 -45q62 42 142 42zM129 -55l60 26l60 -26l-20 -103l-54 -95l-86 17l40 98v83z" />
    <glyph glyph-name="Rcaron" unicode="&#x158;" horiz-adv-x="626" 
d="M433 288l209 -268l-194 -34l-176 271l-45 -1v-256h-170v675h254q106 0 176 -49t70 -148q0 -73 -29 -117.5t-95 -72.5zM386 470q0 81 -92 81h-67v-179h34q70 0 97.5 23t27.5 75zM227 745l-90 124l100 19l65 -66l65 66l100 -19l-90 -124h-150z" />
    <glyph glyph-name="rcaron" unicode="&#x159;" horiz-adv-x="375" 
d="M360 478l-32 -147q-24 12 -63 12q-14 0 -29.5 -3.5t-24.5 -7.5l-9 -4v-328h-153v343l-18 115l138 26l13 -45q62 42 142 42zM123 543l-90 124l100 19l65 -66l65 66l100 -19l-90 -124h-150z" />
    <glyph glyph-name="Sacute" unicode="&#x15a;" horiz-adv-x="514" 
d="M500 204q0 -93 -67 -153.5t-173 -60.5q-63 0 -122.5 13t-87.5 26l-28 13l32 148l31 -18q20 -10 72.5 -27t94.5 -17q37 0 55 16t18 41q0 29 -18.5 43.5t-83.5 34.5q-117 36 -160.5 84t-43.5 139q0 100 72.5 150t181.5 50q53 0 103 -11t74 -22l24 -11l-29 -146
q-8 6 -23.5 15.5t-60.5 25.5t-88 16q-73 0 -73 -56q0 -28 23.5 -44.5t91.5 -37.5q94 -30 139.5 -79t45.5 -132zM253 890l128 -22l-113 -132l-112 19z" />
    <glyph glyph-name="sacute" unicode="&#x15b;" horiz-adv-x="422" 
d="M404 144q0 -67 -57.5 -108.5t-134.5 -41.5q-45 0 -91 9t-69 19l-24 9l26 127q73 -45 144 -45q49 0 49 27q0 14 -14 21.5t-64 22.5q-83 24 -114 55.5t-31 95.5q0 76 58 110t145 34q39 0 77.5 -7.5t57.5 -15.5l20 -8l-26 -126q-60 42 -125 42q-49 0 -49 -26
q0 -15 16.5 -23.5t82.5 -27.5q64 -18 93.5 -50t29.5 -93zM211 688l128 -22l-113 -132l-112 19z" />
    <glyph glyph-name="Scircumflex" unicode="&#x15c;" horiz-adv-x="514" 
d="M500 204q0 -93 -67 -153.5t-173 -60.5q-63 0 -122.5 13t-87.5 26l-28 13l32 148l31 -18q20 -10 72.5 -27t94.5 -17q37 0 55 16t18 41q0 29 -18.5 43.5t-83.5 34.5q-117 36 -160.5 84t-43.5 139q0 100 72.5 150t181.5 50q53 0 103 -11t74 -22l24 -11l-29 -146
q-8 6 -23.5 15.5t-60.5 25.5t-88 16q-73 0 -73 -56q0 -28 23.5 -44.5t91.5 -37.5q94 -30 139.5 -79t45.5 -132zM338 877l90 -124l-100 -19l-65 66l-65 -66l-100 19l90 124h150z" />
    <glyph glyph-name="scircumflex" unicode="&#x15d;" horiz-adv-x="422" 
d="M404 144q0 -67 -57.5 -108.5t-134.5 -41.5q-45 0 -91 9t-69 19l-24 9l26 127q73 -45 144 -45q49 0 49 27q0 14 -14 21.5t-64 22.5q-83 24 -114 55.5t-31 95.5q0 76 58 110t145 34q39 0 77.5 -7.5t57.5 -15.5l20 -8l-26 -126q-60 42 -125 42q-49 0 -49 -26
q0 -15 16.5 -23.5t82.5 -27.5q64 -18 93.5 -50t29.5 -93zM293 675l90 -124l-100 -19l-65 66l-65 -66l-100 19l90 124h150z" />
    <glyph glyph-name="Scedilla" unicode="&#x15e;" horiz-adv-x="514" 
d="M363 -106q0 -97 -117 -97l-56 6l7 55q14 -5 32 -5q40 0 40 33q0 35 -48 35l-15 -1l7 72q-52 4 -99.5 16.5t-69.5 23.5l-22 10l32 148l31 -18q20 -10 72.5 -27t94.5 -17q37 0 55 16t18 41q0 29 -18.5 43.5t-83.5 34.5q-117 36 -160.5 84t-43.5 139q0 100 72.5 150
t181.5 50q53 0 103 -11t74 -22l24 -11l-29 -146q-8 6 -23.5 15.5t-60.5 25.5t-88 16q-73 0 -73 -56q0 -28 23.5 -44.5t91.5 -37.5q94 -30 139.5 -79t45.5 -132q0 -90 -63.5 -150t-164.5 -64v-26q4 0 10 -0.5t21.5 -4t27.5 -10t22 -21t10 -34.5z" />
    <glyph glyph-name="scedilla" unicode="&#x15f;" horiz-adv-x="422" 
d="M317 -106q0 -97 -117 -97l-56 6l7 55q14 -5 32 -5q40 0 40 33q0 35 -48 35l-15 -1l7 76q-36 4 -70.5 12.5t-51.5 15.5l-17 7l26 127q73 -45 144 -45q49 0 49 27q0 14 -14 21.5t-64 22.5q-83 24 -114 55.5t-31 95.5q0 76 58 110t145 34q39 0 77.5 -7.5t57.5 -15.5l20 -8
l-26 -126q-60 42 -125 42q-49 0 -49 -26q0 -15 16.5 -23.5t82.5 -27.5q64 -18 93.5 -50t29.5 -93q0 -64 -52.5 -104.5t-125.5 -44.5v-31q4 0 10 -0.5t21.5 -4t27.5 -10t22 -21t10 -34.5z" />
    <glyph glyph-name="Scaron" unicode="&#x160;" horiz-adv-x="514" 
d="M500 204q0 -93 -67 -153.5t-173 -60.5q-63 0 -122.5 13t-87.5 26l-28 13l32 148l31 -18q20 -10 72.5 -27t94.5 -17q37 0 55 16t18 41q0 29 -18.5 43.5t-83.5 34.5q-117 36 -160.5 84t-43.5 139q0 100 72.5 150t181.5 50q53 0 103 -11t74 -22l24 -11l-29 -146
q-8 6 -23.5 15.5t-60.5 25.5t-88 16q-73 0 -73 -56q0 -28 23.5 -44.5t91.5 -37.5q94 -30 139.5 -79t45.5 -132zM186 745l-90 124l100 19l65 -66l65 66l100 -19l-90 -124h-150z" />
    <glyph glyph-name="scaron" unicode="&#x161;" horiz-adv-x="422" 
d="M404 144q0 -67 -57.5 -108.5t-134.5 -41.5q-45 0 -91 9t-69 19l-24 9l26 127q73 -45 144 -45q49 0 49 27q0 14 -14 21.5t-64 22.5q-83 24 -114 55.5t-31 95.5q0 76 58 110t145 34q39 0 77.5 -7.5t57.5 -15.5l20 -8l-26 -126q-60 42 -125 42q-49 0 -49 -26
q0 -15 16.5 -23.5t82.5 -27.5q64 -18 93.5 -50t29.5 -93zM141 543l-90 124l100 19l65 -66l65 66l100 -19l-90 -124h-150z" />
    <glyph glyph-name="Tcommaaccent" unicode="&#x162;" horiz-adv-x="521" 
d="M34 675h498l-46 -128h-147v-547h-169v547h-182zM216 -55l60 26l60 -26l-20 -103l-54 -95l-86 17l40 98v83z" />
    <glyph glyph-name="tcommaaccent" unicode="&#x163;" horiz-adv-x="306" 
d="M288 127v-115q-43 -17 -94 -17q-67 0 -101.5 27.5t-34.5 94.5v230h-74l33 115h51l27 89l115 21v-110h76v-115h-76v-201q0 -33 31 -33q11 0 22.5 3.5t18.5 7.5zM114 -55l60 26l60 -26l-20 -103l-54 -95l-86 17l40 98v83z" />
    <glyph glyph-name="Tcaron" unicode="&#x164;" horiz-adv-x="521" 
d="M185 745l-90 124l100 19l65 -66l65 66l100 -19l-90 -124h-150zM34 675h498l-46 -128h-147v-547h-169v547h-182z" />
    <glyph glyph-name="tcaron" unicode="&#x165;" horiz-adv-x="306" 
d="M288 127v-115q-43 -17 -94 -17q-67 0 -101.5 27.5t-34.5 94.5v230h-74l33 115h51l27 89l115 21v-110h76v-115h-76v-201q0 -33 31 -33q11 0 22.5 3.5t18.5 7.5zM307 724l60 26l60 -26l-20 -103l-54 -95l-86 17l40 98v83z" />
    <glyph glyph-name="Umacron" unicode="&#x16a;" horiz-adv-x="658" 
d="M607 675v-399q0 -126 -67.5 -206.5t-201.5 -80.5q-287 0 -287 282v404h183v-399q0 -81 27 -119.5t92 -38.5t90.5 38t25.5 120v399h138zM209 858h322l-34 -88h-322z" />
    <glyph glyph-name="umacron" unicode="&#x16b;" 
d="M468 131l18 -117l-142 -25l-13 47q-6 -5 -18 -12.5t-48.5 -19.5t-73.5 -12q-81 0 -113.5 43t-32.5 121v317h153v-296q0 -30 13 -43.5t43 -13.5q14 0 29 3t23 6l8 3v341h154v-342zM116 656h322l-34 -88h-322z" />
    <glyph glyph-name="Ubreve" unicode="&#x16c;" horiz-adv-x="658" 
d="M414 889l97 -19q-1 -5 -3.5 -13.5t-14 -30.5t-27.5 -38.5t-46 -30t-68 -13.5q-40 0 -71.5 13t-47 31.5t-25.5 37t-12 31.5l-3 13l98 19q1 -6 4.5 -15t19 -23.5t37.5 -14.5t37.5 13t20.5 27zM607 675v-399q0 -126 -67.5 -206.5t-201.5 -80.5q-287 0 -287 282v404h183v-399
q0 -81 27 -119.5t92 -38.5t90.5 38t25.5 120v399h138z" />
    <glyph glyph-name="ubreve" unicode="&#x16d;" 
d="M468 131l18 -117l-142 -25l-13 47q-6 -5 -18 -12.5t-48.5 -19.5t-73.5 -12q-81 0 -113.5 43t-32.5 121v317h153v-296q0 -30 13 -43.5t43 -13.5q14 0 29 3t23 6l8 3v341h154v-342zM320 687l97 -19q-1 -5 -3.5 -13.5t-14 -30.5t-27.5 -38.5t-46 -30t-68 -13.5
q-40 0 -71.5 13t-47 31.5t-25.5 37t-12 31.5l-3 13l98 19q1 -6 4.5 -15t19 -23.5t37.5 -14.5t37.5 13t20.5 27z" />
    <glyph glyph-name="Uring" unicode="&#x16e;" horiz-adv-x="658" 
d="M449 826q0 -39 -26.5 -65t-68.5 -26q-43 0 -69.5 26t-26.5 65q0 40 26.5 66t69.5 26q42 0 68.5 -26t26.5 -66zM400 826q0 20 -12.5 33.5t-33.5 13.5t-33.5 -13.5t-12.5 -33.5q0 -19 12.5 -32.5t33.5 -13.5q20 0 33 13.5t13 32.5zM607 675v-399q0 -126 -67.5 -206.5
t-201.5 -80.5q-287 0 -287 282v404h183v-399q0 -81 27 -119.5t92 -38.5t90.5 38t25.5 120v399h138z" />
    <glyph glyph-name="uring" unicode="&#x16f;" 
d="M468 131l18 -117l-142 -25l-13 47q-6 -5 -18 -12.5t-48.5 -19.5t-73.5 -12q-81 0 -113.5 43t-32.5 121v317h153v-296q0 -30 13 -43.5t43 -13.5q14 0 29 3t23 6l8 3v341h154v-342zM354 624q0 -39 -26.5 -65t-68.5 -26q-43 0 -69.5 26t-26.5 65q0 40 26.5 66t69.5 26
q42 0 68.5 -26t26.5 -66zM305 624q0 20 -12.5 33.5t-33.5 13.5t-33.5 -13.5t-12.5 -33.5q0 -19 12.5 -32.5t33.5 -13.5q20 0 33 13.5t13 32.5z" />
    <glyph glyph-name="Uhungarumlaut" unicode="&#x170;" horiz-adv-x="658" 
d="M470 883l74 -15l-147 -127l-66 14zM302 883l74 -15l-147 -127l-66 14zM607 675v-399q0 -126 -67.5 -206.5t-201.5 -80.5q-287 0 -287 282v404h183v-399q0 -81 27 -119.5t92 -38.5t90.5 38t25.5 120v399h138z" />
    <glyph glyph-name="uhungarumlaut" unicode="&#x171;" 
d="M398 681l74 -15l-147 -127l-66 14zM230 681l74 -15l-147 -127l-66 14zM468 131l18 -117l-142 -25l-13 47q-6 -5 -18 -12.5t-48.5 -19.5t-73.5 -12q-81 0 -113.5 43t-32.5 121v317h153v-296q0 -30 13 -43.5t43 -13.5q14 0 29 3t23 6l8 3v341h154v-342z" />
    <glyph glyph-name="Uogonek" unicode="&#x172;" horiz-adv-x="658" 
d="M607 675v-399q0 -126 -67.5 -206.5t-201.5 -80.5q-287 0 -287 282v404h183v-399q0 -81 27 -119.5t92 -38.5t90.5 38t25.5 120v399h138zM598 -32l-7 -55q-11 3 -25 3q-46 0 -46 -33q0 -34 44 -34l19 2l-6 -51q-16 -3 -40 -3q-112 0 -112 86q0 43 35.5 66.5t88.5 23.5z" />
    <glyph glyph-name="uogonek" unicode="&#x173;" 
d="M468 131l18 -117l-142 -25l-13 47q-6 -5 -18 -12.5t-48.5 -19.5t-73.5 -12q-81 0 -113.5 43t-32.5 121v317h153v-296q0 -30 13 -43.5t43 -13.5q14 0 29 3t23 6l8 3v341h154v-342zM476 -32l-7 -55q-11 3 -25 3q-46 0 -46 -33q0 -34 44 -34l19 2l-6 -51q-16 -3 -40 -3
q-112 0 -112 86q0 43 35.5 66.5t88.5 23.5z" />
    <glyph glyph-name="Ydieresis" unicode="&#x178;" horiz-adv-x="607" 
d="M472 675h137l-216 -468v-207h-170v183l-228 474l186 34l157 -352zM487 818q0 -29 -21 -50t-50 -21q-30 0 -51.5 21t-21.5 50q0 30 21.5 50.5t51.5 20.5q29 0 50 -20.5t21 -50.5zM289 818q0 -29 -21.5 -50t-51.5 -21q-29 0 -50 21t-21 50q0 30 21 50.5t50 20.5
q30 0 51.5 -20.5t21.5 -50.5z" />
    <glyph glyph-name="Zacute" unicode="&#x179;" horiz-adv-x="590" 
d="M273 128h307l-46 -128h-540l344 547h-300v128h538l-48 -128zM289 890l128 -22l-113 -132l-112 19z" />
    <glyph glyph-name="zacute" unicode="&#x17a;" horiz-adv-x="439" 
d="M30 473h385l-32 -110l-173 -246h205l-34 -117h-358v94l186 264h-179v115zM217 688l128 -22l-113 -132l-112 19z" />
    <glyph glyph-name="Zdotaccent" unicode="&#x17b;" horiz-adv-x="590" 
d="M273 128h307l-46 -128h-540l344 547h-300v128h538l-48 -128zM370 818q0 -29 -21.5 -50t-50.5 -21t-50 21t-21 50q0 30 21 50.5t50 20.5q30 0 51 -20.5t21 -50.5z" />
    <glyph glyph-name="zdotaccent" unicode="&#x17c;" horiz-adv-x="439" 
d="M30 473h385l-32 -110l-173 -246h205l-34 -117h-358v94l186 264h-179v115zM297 616q0 -29 -21.5 -50t-50.5 -21t-50 21t-21 50q0 30 21 50.5t50 20.5q30 0 51 -20.5t21 -50.5z" />
    <glyph glyph-name="Zcaron" unicode="&#x17d;" horiz-adv-x="590" 
d="M273 128h307l-46 -128h-540l344 547h-300v128h538l-48 -128zM230 745l-90 124l100 19l65 -66l65 66l100 -19l-90 -124h-150z" />
    <glyph glyph-name="zcaron" unicode="&#x17e;" horiz-adv-x="439" 
d="M30 473h385l-32 -110l-173 -246h205l-34 -117h-358v94l186 264h-179v115zM155 543l-90 124l100 19l65 -66l65 66l100 -19l-90 -124h-150z" />
    <glyph glyph-name="Scommaaccent" unicode="&#x218;" horiz-adv-x="514" 
d="M500 204q0 -93 -67 -153.5t-173 -60.5q-63 0 -122.5 13t-87.5 26l-28 13l32 148l31 -18q20 -10 72.5 -27t94.5 -17q37 0 55 16t18 41q0 29 -18.5 43.5t-83.5 34.5q-117 36 -160.5 84t-43.5 139q0 100 72.5 150t181.5 50q53 0 103 -11t74 -22l24 -11l-29 -146
q-8 6 -23.5 15.5t-60.5 25.5t-88 16q-73 0 -73 -56q0 -28 23.5 -44.5t91.5 -37.5q94 -30 139.5 -79t45.5 -132zM206 -55l60 26l60 -26l-20 -103l-54 -95l-86 17l40 98v83z" />
    <glyph glyph-name="scommaaccent" unicode="&#x219;" horiz-adv-x="422" 
d="M404 144q0 -67 -57.5 -108.5t-134.5 -41.5q-45 0 -91 9t-69 19l-24 9l26 127q73 -45 144 -45q49 0 49 27q0 14 -14 21.5t-64 22.5q-83 24 -114 55.5t-31 95.5q0 76 58 110t145 34q39 0 77.5 -7.5t57.5 -15.5l20 -8l-26 -126q-60 42 -125 42q-49 0 -49 -26
q0 -15 16.5 -23.5t82.5 -27.5q64 -18 93.5 -50t29.5 -93zM161 -55l60 26l60 -26l-20 -103l-54 -95l-86 17l40 98v83z" />
    <glyph glyph-name="circumflex" unicode="&#x2c6;" horiz-adv-x="400" 
d="M275 675l90 -124l-100 -19l-65 66l-65 -66l-100 19l90 124h150z" />
    <glyph glyph-name="caron" unicode="&#x2c7;" horiz-adv-x="400" 
d="M125 543l-90 124l100 19l65 -66l65 66l100 -19l-90 -124h-150z" />
    <glyph glyph-name="breve" unicode="&#x2d8;" horiz-adv-x="400" 
d="M262 687l97 -19q-1 -5 -3.5 -13.5t-14 -30.5t-27.5 -38.5t-46 -30t-68 -13.5q-40 0 -71.5 13t-47 31.5t-25.5 37t-12 31.5l-3 13l98 19q1 -6 4.5 -15t19 -23.5t37.5 -14.5t37.5 13t20.5 27z" />
    <glyph glyph-name="dotaccent" unicode="&#x2d9;" horiz-adv-x="400" 
d="M272 616q0 -29 -21.5 -50t-50.5 -21t-50 21t-21 50q0 30 21 50.5t50 20.5q30 0 51 -20.5t21 -50.5z" />
    <glyph glyph-name="ring" unicode="&#x2da;" horiz-adv-x="400" 
d="M295 624q0 -39 -26.5 -65t-68.5 -26q-43 0 -69.5 26t-26.5 65q0 40 26.5 66t69.5 26q42 0 68.5 -26t26.5 -66zM246 624q0 20 -12.5 33.5t-33.5 13.5t-33.5 -13.5t-12.5 -33.5q0 -19 12.5 -32.5t33.5 -13.5q20 0 33 13.5t13 32.5z" />
    <glyph glyph-name="ogonek" unicode="&#x2db;" horiz-adv-x="400" 
d="M286 -32l-7 -55q-11 3 -25 3q-46 0 -46 -33q0 -34 44 -34l19 2l-6 -51q-16 -3 -40 -3q-112 0 -112 86q0 43 35.5 66.5t88.5 23.5z" />
    <glyph glyph-name="tilde" unicode="&#x2dc;" horiz-adv-x="400" 
d="M83 554l-68 39q1 4 3.5 9.5t12 21t21.5 27t34 21t48 9.5q37 0 72.5 -20t61.5 -20q16 0 28.5 8.5t16.5 16.5l4 9l68 -39q-1 -4 -3.5 -10t-12 -21t-21.5 -27t-34 -21.5t-48 -9.5q-36 0 -72 20t-62 20q-16 0 -28.5 -8.5t-16.5 -16.5z" />
    <glyph glyph-name="hungarumlaut" unicode="&#x2dd;" horiz-adv-x="400" 
d="M316 681l74 -15l-147 -127l-66 14zM148 681l74 -15l-147 -127l-66 14z" />
    <glyph glyph-name="pi" unicode="&#x3c0;" horiz-adv-x="552" 
d="M47 473h499l-42 -115h-32v-216l18 -128l-147 -25l-25 104v265h-107v-358h-153v357h-53z" />
    <glyph glyph-name="afii10023" unicode="&#x401;" horiz-adv-x="511" 
d="M440 818q0 -29 -21 -50t-50 -21q-30 0 -51.5 21t-21.5 50q0 30 21.5 50.5t51.5 20.5q29 0 50 -20.5t21 -50.5zM242 818q0 -29 -21.5 -50t-51.5 -21q-29 0 -50 21t-21 50q0 30 21 50.5t50 20.5q30 0 51.5 -20.5t21.5 -50.5zM228 128h276l-46 -128h-401v675h447l-46 -128
h-230v-138h213l-46 -128h-167v-153z" />
    <glyph glyph-name="afii10051" unicode="&#x402;" horiz-adv-x="630" 
d="M4 675h528l-46 -128h-187v-78q24 3 54 3q255 0 255 -238q0 -109 -61.5 -175t-148.5 -80l-36 117q35 0 61 32.5t26 100.5q0 69 -30.5 96.5t-69.5 27.5q-25 0 -50 -5v-348h-169v547h-172z" />
    <glyph glyph-name="afii10052" unicode="&#x403;" horiz-adv-x="465" 
d="M228 547v-547h-171v675h447l-46 -128h-230zM268 890l128 -22l-113 -132l-112 19z" />
    <glyph glyph-name="afii10053" unicode="&#x404;" horiz-adv-x="618" 
d="M598 639l-32 -144q-10 7 -28 17t-66.5 27t-89.5 17q-65 0 -113 -34t-63 -113h235l-46 -128h-191q13 -87 62 -125t112 -38q52 0 103 17.5t75 34.5l25 18v-156q-7 -5 -22 -12t-71 -19t-124 -12q-70 0 -129 19t-106.5 59t-74.5 109t-27 162t28 162.5t77 109t108 58t129 18.5
q62 0 119 -12t84 -24z" />
    <glyph glyph-name="afii10054" unicode="&#x405;" horiz-adv-x="514" 
d="M500 204q0 -93 -67 -153.5t-173 -60.5q-63 0 -122.5 13t-87.5 26l-28 13l32 148l31 -18q20 -10 72.5 -27t94.5 -17q37 0 55 16t18 41q0 29 -18.5 43.5t-83.5 34.5q-117 36 -160.5 84t-43.5 139q0 100 72.5 150t181.5 50q53 0 103 -11t74 -22l24 -11l-29 -146
q-8 6 -23.5 15.5t-60.5 25.5t-88 16q-73 0 -73 -56q0 -28 23.5 -44.5t91.5 -37.5q94 -30 139.5 -79t45.5 -132z" />
    <glyph glyph-name="afii10055" unicode="&#x406;" horiz-adv-x="285" 
d="M228 675v-675h-171v675h171z" />
    <glyph glyph-name="afii10056" unicode="&#x407;" horiz-adv-x="275" 
d="M310 818q0 -29 -21 -50t-50 -21q-30 0 -51.5 21t-21.5 50q0 30 21.5 50.5t51.5 20.5q29 0 50 -20.5t21 -50.5zM112 818q0 -29 -21.5 -50t-51.5 -21q-29 0 -50 21t-21 50q0 30 21 50.5t50 20.5q30 0 51.5 -20.5t21.5 -50.5zM222 675v-675h-171v675h171z" />
    <glyph glyph-name="afii10057" unicode="&#x408;" horiz-adv-x="283" 
d="M229 675v-538q0 -87 -43 -138t-130 -96l-63 119q38 19 52 44t14 68v541h170z" />
    <glyph glyph-name="afii10058" unicode="&#x409;" horiz-adv-x="880" 
d="M388 0v547h-159v-333q0 -87 -43 -138t-130 -96l-63 119q38 19 52 44t14 68v464h499v-267h84q111 0 178.5 -46t67.5 -145q0 -109 -74.5 -163t-206.5 -54h-219zM716 211q0 71 -91 71h-67v-152h36q69 0 95.5 19.5t26.5 61.5z" />
    <glyph glyph-name="afii10059" unicode="&#x40a;" horiz-adv-x="951" 
d="M408 0v282h-179v-282h-170v675h170v-267h179v267h170v-267h84q111 0 178.5 -46t67.5 -145q0 -109 -74.5 -163t-206.5 -54h-219zM736 211q0 71 -91 71h-67v-152h36q69 0 95.5 19.5t26.5 61.5z" />
    <glyph glyph-name="afii10060" unicode="&#x40b;" horiz-adv-x="664" 
d="M4 675h528l-46 -128h-187v-100q82 30 157 30q83 0 122 -43t39 -117v-317h-163v296q0 56 -58 56q-40 0 -97 -17v-335h-169v547h-172z" />
    <glyph glyph-name="afii10061" unicode="&#x40c;" horiz-adv-x="614" 
d="M370 377l249 -357l-175 -34l-177 272l-40 -48v-210h-170v675h170v-265l207 265h191zM302 890l128 -22l-113 -132l-112 19z" />
    <glyph glyph-name="afii10062" unicode="&#x40e;" horiz-adv-x="602" 
d="M193 255l-193 402l186 34l146 -325l11 -27l134 336h137l-216 -468q-42 -92 -82.5 -140.5t-114.5 -86.5l-63 119q33 11 51 38t18 55q0 33 -14 63zM402 888l97 -19q-1 -5 -3.5 -13.5t-14 -30.5t-27.5 -38.5t-46 -30t-68 -13.5q-40 0 -71.5 13t-47 31.5t-25.5 37t-12 31.5
l-3 13l98 19q1 -6 4.5 -15t19 -23.5t37.5 -14.5t37.5 13.5t20.5 26.5z" />
    <glyph glyph-name="afii10145" unicode="&#x40f;" horiz-adv-x="659" 
d="M404 0l-20 -203l-106 -17l-20 220h-201v675h171v-547h209v547h171v-675h-204z" />
    <glyph glyph-name="afii10017" unicode="&#x410;" horiz-adv-x="671" 
d="M388 688l297 -669l-178 -33l-72 169h-250l-62 -155h-138l205 499l32 158zM235 282h146l-75 173z" />
    <glyph glyph-name="afii10018" unicode="&#x411;" horiz-adv-x="605" 
d="M70 0v675h447l-46 -128h-231v-139h84q111 0 178.5 -46t67.5 -145q0 -109 -74.5 -163t-206.5 -54h-219zM398 211q0 71 -91 71h-67v-152h36q69 0 95.5 19.5t26.5 61.5z" />
    <glyph glyph-name="afii10019" unicode="&#x412;" horiz-adv-x="584" 
d="M563 209q0 -209 -304 -209h-202v675h228q106 0 174 -42.5t68 -139.5q0 -74 -73 -124q109 -46 109 -160zM362 478q0 73 -94 73h-41v-152h85q50 27 50 79zM390 203q0 77 -93 77h-70v-157h47q56 0 86 17t30 63z" />
    <glyph glyph-name="afii10020" unicode="&#x413;" horiz-adv-x="465" 
d="M228 547v-547h-171v675h447l-46 -128h-230z" />
    <glyph glyph-name="afii10021" unicode="&#x414;" horiz-adv-x="640" 
d="M177 0l-19 -203l-106 -17l-35 348h31q71 105 71 353v194h458v-547h54l-33 -331l-106 -17l-20 220h-295zM191 128h216v419h-129q0 -268 -87 -419z" />
    <glyph glyph-name="afii10022" unicode="&#x415;" horiz-adv-x="511" 
d="M228 128h276l-46 -128h-401v675h447l-46 -128h-230v-138h213l-46 -128h-167v-153z" />
    <glyph glyph-name="afii10024" unicode="&#x416;" horiz-adv-x="942" 
d="M245 367l-249 286l175 34l214 -277v265h170v-265l207 265h191l-255 -298l249 -357l-175 -34l-177 272l-40 -48v-210h-170v210l-40 48l-169 -258h-186z" />
    <glyph glyph-name="afii10025" unicode="&#x417;" horiz-adv-x="513" 
d="M471 502q0 -75 -81 -136q95 -41 95 -151q0 -106 -73.5 -164.5t-177.5 -58.5q-59 0 -114 12.5t-80 25.5l-25 13l31 148q8 -7 22.5 -17.5t59.5 -27.5t89 -17q49 0 72.5 23.5t23.5 59.5q0 29 -12 49t-32 28.5t-45.5 13.5t-52 4t-51.5 0l18 89q89 0 126 22t37 64
q0 37 -21.5 53.5t-68.5 16.5q-36 0 -78 -13.5t-67 -26.5l-24 -14v146q80 40 204 40q101 0 163 -44.5t62 -137.5z" />
    <glyph glyph-name="afii10026" unicode="&#x418;" horiz-adv-x="684" 
d="M195 0h-138v675h138v-399l307 399h125v-675h-138v377z" />
    <glyph glyph-name="afii10027" unicode="&#x419;" horiz-adv-x="684" 
d="M416 888l97 -19q-1 -5 -3.5 -13.5t-14 -30.5t-27.5 -38.5t-46 -30t-68 -13.5q-40 0 -71.5 13t-47 31.5t-25.5 37t-12 31.5l-3 13l98 19q1 -6 4.5 -15t19 -23.5t37.5 -14.5t37.5 13.5t20.5 26.5zM195 0h-138v675h138v-399l307 399h125v-675h-138v377z" />
    <glyph glyph-name="afii10028" unicode="&#x41a;" horiz-adv-x="614" 
d="M370 377l249 -357l-175 -34l-177 272l-40 -48v-210h-170v675h170v-265l207 265h191z" />
    <glyph glyph-name="afii10029" unicode="&#x41b;" horiz-adv-x="625" 
d="M578 675v-675h-170v547h-179v-333q0 -87 -43 -138t-130 -96l-63 119q38 19 52 44t14 68v464h519z" />
    <glyph glyph-name="afii10030" unicode="&#x41c;" horiz-adv-x="836" 
d="M637 675h160l-16 -174v-501h-170v388l-212 -344l-203 302v-346h-138v548l-76 112l198 30l242 -382z" />
    <glyph glyph-name="afii10031" unicode="&#x41d;" horiz-adv-x="685" 
d="M628 675v-675h-171v281h-229v-281h-171v675h171v-266h229v266h171z" />
    <glyph glyph-name="afii10032" unicode="&#x41e;" horiz-adv-x="697" 
d="M669 338q0 -185 -87 -267t-234 -82q-69 0 -125 18t-101 57.5t-70 109t-25 164.5t25 164.5t70 108.5t101 57t125 18q147 0 234 -81.5t87 -266.5zM496 338q0 124 -40.5 171t-107.5 47q-148 0 -148 -218q0 -220 148 -220t148 220z" />
    <glyph glyph-name="afii10033" unicode="&#x41f;" horiz-adv-x="665" 
d="M437 547h-209v-547h-171v675h551v-675h-171v547z" />
    <glyph glyph-name="afii10034" unicode="&#x420;" horiz-adv-x="575" 
d="M557 473q0 -110 -71.5 -163.5t-209.5 -64.5l-49 -4v-241h-170v675h254q109 0 177.5 -51t68.5 -151zM386 466q0 82 -97 82h-62v-175h37q66 0 94 22t28 71z" />
    <glyph glyph-name="afii10035" unicode="&#x421;" horiz-adv-x="618" 
d="M598 639l-32 -144q-10 7 -28 17t-66.5 27t-89.5 17q-36 0 -66.5 -10t-57.5 -33.5t-42.5 -68t-15.5 -106.5t16 -107t43 -68.5t56.5 -34t62.5 -10.5q52 0 103 17.5t75 34.5l25 18v-156q-7 -5 -22 -12t-71 -19t-124 -12q-70 0 -129 19t-106.5 59t-74.5 109t-27 162t28 162.5
t77 109t108 58t129 18.5q62 0 119 -12t84 -24z" />
    <glyph glyph-name="afii10036" unicode="&#x422;" horiz-adv-x="521" 
d="M34 675h498l-46 -128h-147v-547h-169v547h-182z" />
    <glyph glyph-name="afii10037" unicode="&#x423;" horiz-adv-x="602" 
d="M193 255l-193 402l186 34l146 -325l11 -27l134 336h137l-216 -468q-42 -92 -82.5 -140.5t-114.5 -86.5l-63 119q33 11 51 38t18 55q0 33 -14 63z" />
    <glyph glyph-name="afii10038" unicode="&#x424;" horiz-adv-x="697" 
d="M288 737h122v-95q117 -17 188 -94t71 -210t-71 -210.5t-188 -94.5v-96h-122v96q-117 16 -189 94t-72 211t72 210t189 94v95zM200 338q0 -128 88 -168v333q-88 -39 -88 -165zM496 338q0 125 -86 165v-332q86 40 86 167z" />
    <glyph glyph-name="afii10039" unicode="&#x425;" horiz-adv-x="635" 
d="M409 340l227 -320l-174 -34l-153 214l-143 -200h-177l232 324l-232 330l173 35l159 -224l151 210h178z" />
    <glyph glyph-name="afii10040" unicode="&#x426;" horiz-adv-x="665" 
d="M228 128h209v547h171v-547h53l-33 -331l-106 -17l-20 220h-445v675h171v-547z" />
    <glyph glyph-name="afii10041" unicode="&#x427;" horiz-adv-x="604" 
d="M550 0h-169v225q-75 -39 -167 -39q-85 0 -128 45.5t-43 126.5v317h163v-296q0 -68 68 -68q27 0 53.5 7.5t40.5 15.5l13 7v334h169v-675z" />
    <glyph glyph-name="afii10042" unicode="&#x428;" horiz-adv-x="938" 
d="M558 675v-547h158v547h171v-675h-830v675h171v-547h159v547h171z" />
    <glyph glyph-name="afii10043" unicode="&#x429;" horiz-adv-x="940" 
d="M781 0h-724v675h171v-547h159v547h171v-547h158v547h171v-547h53l-33 -331l-106 -17z" />
    <glyph glyph-name="afii10044" unicode="&#x42a;" horiz-adv-x="657" 
d="M300 408h84q111 0 178.5 -46t67.5 -145q0 -109 -74.5 -163t-206.5 -54h-219v547h-142l46 128h266v-267zM458 211q0 71 -91 71h-67v-152h36q69 0 95.5 19.5t26.5 61.5z" />
    <glyph glyph-name="afii10045" unicode="&#x42b;" horiz-adv-x="813" 
d="M398 211q0 71 -91 71h-67v-152h36q69 0 95.5 19.5t26.5 61.5zM241 675l-1 -267h84q111 0 178.5 -46t67.5 -145q0 -109 -74.5 -163t-206.5 -54h-219v675h171zM798 675v-675h-170v675h170z" />
    <glyph glyph-name="afii10046" unicode="&#x42c;" horiz-adv-x="597" 
d="M70 0v675h170v-267h84q111 0 178.5 -46t67.5 -145q0 -109 -74.5 -163t-206.5 -54h-219zM398 211q0 71 -91 71h-67v-152h36q69 0 95.5 19.5t26.5 61.5z" />
    <glyph glyph-name="afii10047" unicode="&#x42d;" horiz-adv-x="618" 
d="M27 36l32 144q10 -7 28 -17t66.5 -27t89.5 -17q65 0 113 38t63 122h-235l29 128h207q-14 83 -62 116.5t-111 33.5q-52 0 -103 -17.5t-76 -35.5l-24 -17v156q7 5 22 12t71 19t124 12q71 0 129 -17.5t106 -55.5t75 -105.5t27 -160.5t-28 -164t-76.5 -112.5t-108.5 -61.5
t-129 -20q-62 0 -119 12t-83 23z" />
    <glyph glyph-name="afii10048" unicode="&#x42e;" horiz-adv-x="1004" 
d="M974 338q0 -185 -87 -267t-234 -82q-64 0 -116.5 15.5t-96.5 48.5t-71.5 91t-34.5 138h-105v-282h-170v675h170v-267h106q17 147 102 212.5t216 65.5q147 0 234 -81.5t87 -266.5zM801 338q0 124 -40.5 171t-107.5 47q-148 0 -148 -218q0 -220 148 -220t148 220z" />
    <glyph glyph-name="afii10049" unicode="&#x42f;" horiz-adv-x="609" 
d="M179 288q-66 28 -95 72.5t-29 117.5q0 99 70 148t176 49h254v-675h-170v256l-45 1l-149 -257h-215zM226 470q0 -52 27.5 -75t97.5 -23h34v179h-67q-92 0 -92 -81z" />
    <glyph glyph-name="afii10065" unicode="&#x430;" horiz-adv-x="450" 
d="M404 130l18 -116l-142 -25l-13 47q-5 -5 -15 -12.5t-40 -20t-61 -12.5q-58 0 -96.5 36t-38.5 105q0 26 7 47t17 35t29.5 26t34.5 18.5t43 12.5t44.5 8.5t48.5 6.5l15 2v13q0 60 -63 60q-33 0 -67 -10.5t-51 -20.5l-17 -10v130q62 31 180 31q87 0 127 -43.5t40 -117.5
v-190zM255 124v70q-52 -10 -68.5 -22t-16.5 -31q0 -12 9.5 -20t22.5 -8q12 0 25 2.5t21 5.5z" />
    <glyph glyph-name="afii10066" unicode="&#x431;" horiz-adv-x="498" 
d="M470 202q0 -103 -57.5 -157t-164.5 -54q-50 1 -86.5 14.5t-67 46t-46.5 93t-16 148.5q0 90 21 154t58 97t77.5 47t89.5 14q31 0 58.5 3.5t39.5 6.5l12 3l27 -106q-34 -26 -126 -26q-52 0 -76.5 -27t-27.5 -91q47 27 100 27q85 0 135 -52t50 -141zM318 194
q0 37 -16.5 57.5t-45.5 20.5q-64 0 -64 -79q0 -83 62 -83q34 0 49 19t15 65z" />
    <glyph glyph-name="afii10067" unicode="&#x432;" horiz-adv-x="472" 
d="M442 153q0 -75 -61.5 -114t-172.5 -39h-160v473h184q185 0 185 -126q0 -48 -48 -85q73 -38 73 -109zM275 325q0 36 -48 36h-26v-74h50q24 15 24 38zM285 156q0 37 -49 37h-35v-77h32q52 0 52 40z" />
    <glyph glyph-name="afii10068" unicode="&#x433;" horiz-adv-x="387" 
d="M384 473l-41 -115h-142v-358h-153v473h336z" />
    <glyph glyph-name="afii10069" unicode="&#x434;" horiz-adv-x="526" 
d="M166 0l-18 -132l-95 -15l-28 257q79 12 79 180v183h376v-358h46l-30 -247l-95 -15l-16 147h-219zM202 115h125v243h-76v-66q0 -114 -49 -177z" />
    <glyph glyph-name="afii10070" unicode="&#x435;" horiz-adv-x="474" 
d="M448 265l-3 -71l-259 -11q5 -30 21.5 -46.5t32.5 -20t40 -3.5q36 0 70 7.5t50 15.5l15 8v-131q-54 -19 -139 -19q-54 0 -95.5 11t-77 37t-54 75t-18.5 119q0 121 59 182t154 61q204 0 204 -214zM185 284l120 6q0 72 -56 72q-59 0 -64 -78z" />
    <glyph glyph-name="afii10072" unicode="&#x436;" horiz-adv-x="768" 
d="M10 0l185 260l-162 200l150 23l123 -183v173h153v-173l116 173h168l-174 -212l189 -247l-163 -24l-121 166l-15 -20v-136h-153v136l-15 20l-111 -156h-170z" />
    <glyph glyph-name="afii10073" unicode="&#x437;" horiz-adv-x="450" 
d="M409 352q0 -53 -68 -96q80 -28 80 -106q0 -77 -57.5 -117.5t-154.5 -40.5q-50 0 -93.5 9t-61.5 18l-19 9l26 115q7 -5 18.5 -12.5t46.5 -19.5t69 -12q37 0 58.5 13.5t21.5 37.5q0 55 -111 55h-38l31 83q108 0 108 48q0 42 -75 42q-30 0 -63 -9.5t-51 -18.5l-18 -10v113
q57 28 162 28q85 0 137 -31.5t52 -97.5z" />
    <glyph glyph-name="afii10074" unicode="&#x438;" 
d="M469 473v-473h-133v227l-165 -227h-123v473h133v-228l165 228h123z" />
    <glyph glyph-name="afii10075" unicode="&#x439;" 
d="M469 473v-473h-133v227l-165 -227h-123v473h133v-228l165 228h123zM319 687l97 -19q-1 -5 -3.5 -13.5t-14 -30.5t-27.5 -38.5t-46 -30t-68 -13.5q-40 0 -71.5 13t-47 31.5t-25.5 37t-13 31.5l-2 13l98 19q1 -6 4.5 -15t19 -23.5t37.5 -14.5t37.5 13t19.5 27z" />
    <glyph glyph-name="afii10076" unicode="&#x43a;" horiz-adv-x="516" 
d="M330 272l170 -258l-163 -24l-103 178l-33 -42v-126h-153v473h153v-183l116 183h168z" />
    <glyph glyph-name="afii10077" unicode="&#x43b;" horiz-adv-x="507" 
d="M53 473h409v-473h-153v358h-103v-130q0 -237 -169 -237l-39 120q57 0 55 95v267z" />
    <glyph glyph-name="afii10078" unicode="&#x43c;" horiz-adv-x="647" 
d="M446 207l-105 -207h-55l-105 188v-188h-133v473h123l150 -260l140 260h138v-473h-153v207z" />
    <glyph glyph-name="afii10079" unicode="&#x43d;" horiz-adv-x="527" 
d="M479 473v-473h-153v183h-125v-183h-153v473h153v-175h125v175h153z" />
    <glyph glyph-name="afii10080" unicode="&#x43e;" 
d="M489 236q0 -126 -62.5 -184.5t-168.5 -58.5t-168.5 58.5t-62.5 184.5t62 185t169 59t169 -59t62 -185zM338 236q0 127 -80 127t-80 -127q0 -126 80 -126t80 126z" />
    <glyph glyph-name="afii10081" unicode="&#x43f;" horiz-adv-x="527" 
d="M479 473v-473h-153v358h-125v-358h-153v473h431z" />
    <glyph glyph-name="afii10082" unicode="&#x440;" horiz-adv-x="520" 
d="M491 234q0 -126 -59.5 -183.5t-157.5 -57.5q-19 0 -37 2t-27 5l-8 2v-204h-153v533l-18 128l147 25l11 -39q47 35 107 35q80 0 137.5 -61t57.5 -185zM340 234q0 66 -22.5 92t-62.5 26q-13 0 -26.5 -3t-20.5 -6l-6 -3v-220q20 -10 53 -10q85 0 85 124z" />
    <glyph glyph-name="afii10083" unicode="&#x441;" horiz-adv-x="447" 
d="M423 448l-32 -125q-53 39 -117 39q-37 0 -66.5 -29.5t-29.5 -96.5q0 -69 31.5 -96t71.5 -27q35 0 67 8t46 16l15 8v-131q-49 -20 -132 -20q-109 0 -179.5 58.5t-70.5 183.5q0 126 69 184.5t175 58.5q38 0 76 -7.5t57 -15.5z" />
    <glyph glyph-name="afii10084" unicode="&#x442;" horiz-adv-x="454" 
d="M45 473h403l-41 -115h-112v-358h-153v358h-138z" />
    <glyph glyph-name="afii10085" unicode="&#x443;" horiz-adv-x="508" 
d="M374 473h134l-160 -417l-91 -259h-155l65 143q13 28 14.5 60.5t-9.5 56.5l-172 402l160 24l110 -304z" />
    <glyph glyph-name="afii10086" unicode="&#x444;" horiz-adv-x="786" 
d="M27 227q0 126 59.5 183.5t157.5 57.5q19 0 37 -2t27 -4l8 -3v216h153v-222q43 25 94 25q81 0 138 -60t57 -184q0 -126 -59.5 -183.5t-157.5 -57.5q-19 0 -37 2t-26 5l-9 2v-204h-153v210q-36 -20 -94 -20q-81 0 -138 57.5t-57 181.5zM607 234q0 66 -22.5 92t-62.5 26
q-13 0 -26.5 -3t-19.5 -6l-7 -3v-220q20 -10 53 -10q85 0 85 124zM178 227q0 -66 22.5 -92t62.5 -26q13 0 26.5 3t20.5 6l6 3v220q-20 10 -53 10q-85 0 -85 -124z" />
    <glyph glyph-name="afii10087" unicode="&#x445;" horiz-adv-x="498" 
d="M329 246l160 -237l-164 -21l-82 136l-72 -124h-162l163 229l-160 230l168 24l78 -133l72 123h160z" />
    <glyph glyph-name="afii10088" unicode="&#x446;" horiz-adv-x="527" 
d="M527 115l-30 -247l-95 -15l-18 147h-336v473h153v-358h125v358h153v-358h48z" />
    <glyph glyph-name="afii10089" unicode="&#x447;" horiz-adv-x="516" 
d="M314 0v155q-56 -33 -123 -33q-81 0 -113.5 43t-32.5 121v187h153v-166q0 -30 13 -43.5t43 -13.5q14 0 29 3t23 6l8 3v211h154v-473h-154z" />
    <glyph glyph-name="afii10090" unicode="&#x448;" horiz-adv-x="733" 
d="M685 473v-473h-637v473h153v-358h89v358h153v-358h89v358h153z" />
    <glyph glyph-name="afii10091" unicode="&#x449;" horiz-adv-x="733" 
d="M685 473v-358h48l-30 -247l-95 -15l-18 147h-542v473h153v-358h89v358h153v-358h89v358h153z" />
    <glyph glyph-name="afii10092" unicode="&#x44a;" horiz-adv-x="552" 
d="M41 473h250v-175h64q81 0 129 -36t48 -106q0 -76 -62 -116t-172 -40h-160v358h-138zM375 156q0 37 -49 37h-35v-77h32q52 0 52 40z" />
    <glyph glyph-name="afii10093" unicode="&#x44b;" horiz-adv-x="675" 
d="M201 473v-175h64q81 0 129 -36t48 -106q0 -76 -62 -116t-172 -40h-160v473h153zM285 156q0 37 -49 37h-35v-77h32q52 0 52 40zM627 0h-153v473h153v-473z" />
    <glyph glyph-name="afii10094" unicode="&#x44c;" horiz-adv-x="481" 
d="M201 473v-175h64q81 0 129 -36t48 -106q0 -76 -62 -116t-172 -40h-160v473h153zM285 156q0 37 -49 37h-35v-77h32q52 0 52 40z" />
    <glyph glyph-name="afii10095" unicode="&#x44d;" horiz-adv-x="447" 
d="M27 25l32 125q53 -39 117 -39q28 0 53 17.5t36 55.5h-197l23 103h174q-21 73 -96 73q-35 0 -67 -8t-46 -16l-15 -8v131q49 20 132 20q109 0 179.5 -58.5t70.5 -183.5q0 -126 -69 -184.5t-175 -58.5q-38 0 -76 8t-57 16z" />
    <glyph glyph-name="afii10096" unicode="&#x44e;" horiz-adv-x="749" 
d="M721 236q0 -126 -62.5 -184.5t-168.5 -58.5q-95 0 -155 46t-73 144h-61v-183h-153v473h153v-175h62q15 94 75 138t152 44q107 0 169 -59t62 -185zM570 236q0 127 -80 127t-80 -127q0 -126 80 -126t80 126z" />
    <glyph glyph-name="afii10097" unicode="&#x44f;" horiz-adv-x="480" 
d="M10 0l98 191q-34 18 -52 51t-18 68q0 78 60 120.5t169 42.5h165v-473h-153v166h-33l-69 -166h-167zM195 307q0 -23 13.5 -35t35.5 -12h35v97h-32q-52 0 -52 -50z" />
    <glyph glyph-name="afii10071" unicode="&#x451;" horiz-adv-x="474" 
d="M448 265l-3 -71l-259 -11q5 -30 21.5 -46.5t32.5 -20t40 -3.5q36 0 70 7.5t50 15.5l15 8v-131q-54 -19 -139 -19q-54 0 -95.5 11t-77 37t-54 75t-18.5 119q0 121 59 182t154 61q204 0 204 -214zM185 284l120 6q0 72 -56 72q-59 0 -64 -78zM408 616q0 -29 -21 -50t-50 -21
q-30 0 -51.5 21t-21.5 50q0 30 21.5 50.5t51.5 20.5q29 0 50 -20.5t21 -50.5zM210 616q0 -29 -21.5 -50t-51.5 -21q-29 0 -50 21t-21 50q0 30 21 50.5t50 20.5q30 0 51.5 -20.5t21.5 -50.5z" />
    <glyph glyph-name="afii10099" unicode="&#x452;" horiz-adv-x="537" 
d="M-6 615h54v60h153v-60h95l-40 -110h-55v-60q53 36 137 36q151 0 151 -164v-358q0 -82 -45.5 -126.5t-122.5 -44.5q-23 0 -43.5 4t-29.5 8l-9 5l29 125q19 -14 39 -14q29 0 29 31v349q0 56 -58 56q-19 0 -38 -4.5t-29 -9.5l-10 -4v-334h-153v505h-94z" />
    <glyph glyph-name="afii10100" unicode="&#x453;" horiz-adv-x="379" 
d="M384 473l-41 -115h-142v-358h-153v473h336zM193 688l128 -22l-113 -132l-112 19z" />
    <glyph glyph-name="afii10101" unicode="&#x454;" horiz-adv-x="447" 
d="M423 448l-32 -125q-53 39 -117 39q-28 0 -53.5 -17.5t-36.5 -55.5h198l-26 -103h-172q21 -73 97 -73q35 0 67 8t46 16l15 8v-131q-49 -20 -132 -20q-109 0 -179.5 58.5t-70.5 183.5q0 126 69 184.5t175 58.5q38 0 76 -7.5t57 -15.5z" />
    <glyph glyph-name="afii10102" unicode="&#x455;" horiz-adv-x="422" 
d="M404 144q0 -67 -57.5 -108.5t-134.5 -41.5q-45 0 -91 9t-69 19l-24 9l26 127q73 -45 144 -45q49 0 49 27q0 14 -14 21.5t-64 22.5q-83 24 -114 55.5t-31 95.5q0 76 58 110t145 34q39 0 77.5 -7.5t57.5 -15.5l20 -8l-26 -126q-60 42 -125 42q-49 0 -49 -26
q0 -15 16.5 -23.5t82.5 -27.5q64 -18 93.5 -50t29.5 -93z" />
    <glyph glyph-name="afii10103" unicode="&#x456;" horiz-adv-x="250" 
d="M206 618q0 -33 -24 -56.5t-57 -23.5q-34 0 -57.5 23.5t-23.5 56.5t23.5 56.5t57.5 23.5q33 0 57 -23.5t24 -56.5zM201 473v-473h-153v473h153z" />
    <glyph glyph-name="afii10104" unicode="&#x457;" horiz-adv-x="250" 
d="M299 616q0 -29 -21 -50t-50 -21q-30 0 -51.5 21t-21.5 50q0 30 21.5 50.5t51.5 20.5q29 0 50 -20.5t21 -50.5zM101 616q0 -29 -21.5 -50t-51.5 -21q-29 0 -50 21t-21 50q0 30 21 50.5t50 20.5q30 0 51.5 -20.5t21.5 -50.5zM204 473v-473h-154v473h154z" />
    <glyph glyph-name="afii10105" unicode="&#x458;" horiz-adv-x="254" 
d="M211 618q0 -33 -24.5 -56.5t-57.5 -23.5t-56.5 23.5t-23.5 56.5t23.5 56.5t56.5 23.5t57.5 -23.5t24.5 -56.5zM206 473v-514q0 -82 -45.5 -126.5t-122.5 -44.5q-23 0 -43.5 4t-29.5 8l-9 5l29 125q24 -14 47 -14q21 0 21 21v536h153z" />
    <glyph glyph-name="afii10106" unicode="&#x459;" horiz-adv-x="727" 
d="M462 473v-175h64q81 0 129 -36t48 -106q0 -76 -62 -116t-172 -40h-160v358h-103v-196q0 -82 -45.5 -126.5t-122.5 -44.5q-23 0 -43.5 4t-29.5 9l-9 4l29 125q24 -14 47 -14q21 0 21 21v333h409zM546 156q0 37 -49 37h-35v-77h32q52 0 52 40z" />
    <glyph glyph-name="afii10107" unicode="&#x45a;" horiz-adv-x="742" 
d="M479 473v-175h64q81 0 129 -36t48 -106q0 -76 -62 -116t-172 -40h-160v183h-125v-183h-153v473h153v-175h125v175h153zM563 156q0 37 -49 37h-35v-77h32q52 0 52 40z" />
    <glyph glyph-name="afii10108" unicode="&#x45b;" horiz-adv-x="537" 
d="M489 317v-317h-153v296q0 56 -58 56q-19 0 -38 -4.5t-29 -9.5l-10 -4v-334h-153v505h-94l40 110h54v60h153v-60h95l-40 -110h-55v-60q53 36 137 36q151 0 151 -164z" />
    <glyph glyph-name="afii10109" unicode="&#x45c;" horiz-adv-x="508" 
d="M330 272l170 -258l-163 -24l-103 178l-33 -42v-126h-153v473h153v-183l116 183h168zM258 688l128 -22l-113 -132l-112 19z" />
    <glyph glyph-name="afii10110" unicode="&#x45e;" horiz-adv-x="508" 
d="M374 473h134l-160 -417l-91 -259h-155l65 143q13 28 14.5 60.5t-9.5 56.5l-172 402l160 24l110 -304zM332 687l97 -19q-1 -5 -3.5 -13.5t-14 -30.5t-27.5 -38.5t-46 -30t-68 -13.5q-40 0 -71.5 13t-47 31.5t-25.5 37t-12 31.5l-3 13l98 19q1 -6 4.5 -15t19 -23.5
t37.5 -14.5t37.5 13t20.5 27z" />
    <glyph glyph-name="afii10193" unicode="&#x45f;" horiz-adv-x="527" 
d="M198 0h-150v473h153v-358h125v358h153v-473h-151l-18 -132l-95 -15z" />
    <glyph glyph-name="afii10050" unicode="&#x490;" horiz-adv-x="465" 
d="M326 675l43 173l106 17v-318h-247v-547h-171v675h269z" />
    <glyph glyph-name="afii10098" unicode="&#x491;" horiz-adv-x="388" 
d="M246 473l33 132l95 15v-262h-172v-358h-153v473h197z" />
    <glyph glyph-name="afii10846" unicode="&#x4d9;" horiz-adv-x="474" 
d="M31 208l3 71l259 11q-5 30 -21.5 46.5t-32.5 20t-40 3.5q-36 0 -70 -8t-49 -16l-16 -7v131q54 19 139 19q54 0 95.5 -11t77 -37t54 -75t18.5 -119q0 -121 -59 -182t-154 -61q-204 0 -204 214zM294 189l-120 -6q0 -72 56 -72q59 0 64 78z" />
    <glyph glyph-name="endash" unicode="&#x2013;" horiz-adv-x="450" 
d="M63 314h370l-46 -127h-370z" />
    <glyph glyph-name="emdash" unicode="&#x2014;" horiz-adv-x="510" 
d="M63 314h430l-46 -127h-430z" />
    <glyph glyph-name="quoteleft" unicode="&#x2018;" horiz-adv-x="203" 
d="M118 747l105 -18l-49 -91l-9 -123h-145l41 145z" />
    <glyph glyph-name="quoteright" unicode="&#x2019;" horiz-adv-x="199" 
d="M58 737h145l-41 -145l-56 -86l-106 17l50 92z" />
    <glyph glyph-name="quotesinglbase" unicode="&#x201a;" horiz-adv-x="240" 
d="M42 136h145l-38 -140l-59 -91l-105 17l43 78z" />
    <glyph glyph-name="quotedblleft" unicode="&#x201c;" horiz-adv-x="419" 
d="M333 747l106 -18l-50 -91l-8 -123h-146l41 145zM118 747l105 -18l-49 -91l-9 -123h-145l41 145z" />
    <glyph glyph-name="quotedblright" unicode="&#x201d;" horiz-adv-x="414" 
d="M273 737h145l-41 -145l-56 -86l-106 17l50 92zM58 737h145l-41 -145l-56 -86l-106 17l50 92z" />
    <glyph glyph-name="quotedblbase" unicode="&#x201e;" horiz-adv-x="455" 
d="M257 136h146l-39 -139l-59 -92l-106 17l44 78zM42 136h145l-39 -140l-58 -91l-105 17l43 78z" />
    <glyph glyph-name="dagger" unicode="&#x2020;" horiz-adv-x="467" 
d="M168 -91v403h-121v128h121v123h127v-123h121v-128h-121v-403h-127z" />
    <glyph glyph-name="daggerdbl" unicode="&#x2021;" horiz-adv-x="467" 
d="M167 -90v121h-121v128h121v153h-121v128h121v122h128v-122h121v-128h-121v-153h121v-128h-121v-121h-128z" />
    <glyph glyph-name="bullet" unicode="&#x2022;" horiz-adv-x="415" 
d="M371 314q0 -69 -48 -116.5t-116 -47.5q-69 0 -116.5 47.5t-47.5 116.5t47.5 116.5t116.5 47.5q68 0 116 -47.5t48 -116.5z" />
    <glyph glyph-name="ellipsis" unicode="&#x2026;" horiz-adv-x="756" 
d="M209 78q0 -42 -23.5 -65t-66.5 -23q-42 0 -65 23t-23 65q0 43 23 66.5t65 23.5q43 0 66.5 -23t23.5 -67zM465 78q0 -42 -23 -65t-66 -23q-42 0 -65 23t-23 65q0 43 23 66.5t65 23.5q43 0 66 -23.5t23 -66.5zM722 78q0 -42 -23.5 -65t-66.5 -23q-42 0 -65 23t-23 65
q0 43 23 66.5t65 23.5q44 0 67 -23t23 -67z" />
    <glyph glyph-name="perthousand" unicode="&#x2030;" horiz-adv-x="1048" 
d="M306 518q0 -27 -6.5 -52.5t-21.5 -50.5t-45.5 -40.5t-72.5 -15.5q-43 0 -73.5 15t-45 41t-20.5 50.5t-6 52.5q0 27 6 52t20.5 51t45 42t73.5 16q42 0 73 -16t45.5 -42t21 -51t6.5 -52zM543 676l-226 -676h-145l226 676h145zM203 518q0 74 -41 74q-44 0 -44 -74
q0 -71 43 -71q42 0 42 71zM699 156q0 -27 -6.5 -52.5t-21.5 -50.5t-45.5 -40.5t-72.5 -15.5q-43 0 -73.5 15t-45 41t-20.5 50.5t-6 52.5q0 27 6 52t20.5 51t45 42t73.5 16q42 0 73 -16t45.5 -42t21 -51t6.5 -52zM596 156q0 74 -41 74q-44 0 -44 -74q0 -71 43 -71q42 0 42 71
zM1024 156q0 -27 -6.5 -52.5t-21.5 -50.5t-45.5 -40.5t-72.5 -15.5q-43 0 -73.5 15t-45 41t-20.5 50.5t-6 52.5q0 27 6 52t20.5 51t45 42t73.5 16q42 0 73 -16t45.5 -42t21 -51t6.5 -52zM921 156q0 74 -41 74q-44 0 -44 -74q0 -71 43 -71q42 0 42 71z" />
    <glyph glyph-name="guilsinglleft" unicode="&#x2039;" horiz-adv-x="334" 
d="M181 237l127 -155l-59 -59l-224 214l224 214l59 -59z" />
    <glyph glyph-name="guilsinglright" unicode="&#x203a;" horiz-adv-x="334" 
d="M85 450l223 -214l-223 -214l-60 59l128 155l-128 155z" />
    <glyph glyph-name="fraction" unicode="&#x2044;" horiz-adv-x="379" 
d="M268 738h126l-283 -802h-126z" />
    <glyph glyph-name="Euro" unicode="&#x20ac;" horiz-adv-x="640" 
d="M608 639l-32 -144q-10 7 -28 17t-66.5 27t-89.5 17q-122 0 -163 -101h201v-89h-220v-28v-27h220v-88h-201q22 -56 65 -80.5t94 -24.5q52 0 103 17.5t75 34.5l25 18v-156q-7 -5 -22 -12t-71 -19t-124 -12q-121 0 -208.5 56.5t-116.5 177.5h-45v88h33v27v28h-33v89h46
q30 119 119 175t210 56q62 0 119 -12t84 -24z" />
    <glyph glyph-name="afii61352" unicode="&#x2116;" horiz-adv-x="1150" 
d="M599 113l31 -98l-158 -28l-265 379v-366h-138v554l-74 107l188 29l278 -403v388h138v-562zM1122 286q0 -98 -58.5 -145.5t-157.5 -47.5t-157.5 47.5t-58.5 145.5q0 99 58.5 146.5t157.5 47.5t157.5 -47.5t58.5 -146.5zM971 286q0 77 -65 77t-65 -77q0 -76 65 -76t65 76z
M1101 67l-25 -67h-375l25 67h375z" />
    <glyph glyph-name="trademark" unicode="&#x2122;" horiz-adv-x="660" 
d="M547 630h65q0 1 -1.5 -16.5t-2.5 -35.5l-2 -17v-209h-69v160l-88 -142l-82 124v-142h-57v225l-33 47l82 12l100 -156zM42 630h231l-19 -52h-73v-226h-70v226h-88z" />
    <glyph glyph-name="partialdiff" unicode="&#x2202;" horiz-adv-x="523" 
d="M492 243q0 -127 -63 -188t-171 -61q-231 0 -231 243q0 50 13 90.5t32.5 66t46.5 43t51 26t49 11.5q-14 20 -51 68l-68 84l-30 38l157 23q117 -143 178 -226q40 -55 63.5 -105.5t23.5 -112.5zM341 241q0 51 -13 81t-39 60q-111 -7 -111 -145q0 -71 21 -99t59 -28
q37 0 60 31.5t23 99.5z" />
    <glyph glyph-name="product" unicode="&#x220f;" horiz-adv-x="741" 
d="M51 675h685l-47 -128h-74v-547h-170v547h-152v-547h-171v547h-117z" />
    <glyph glyph-name="minus" unicode="&#x2212;" horiz-adv-x="597" 
d="M533 172h-470v128h470v-128z" />
    <glyph glyph-name="approxequal" unicode="&#x2248;" horiz-adv-x="602" 
d="M212 91q-23 0 -44.5 -10t-31.5 -20l-10 -10l-76 49q1 5 4.5 13t16 28.5t29 36.5t46.5 29t65 13q50 0 96.5 -26t82.5 -26q23 0 44.5 9t31.5 17l10 9l76 -47q-1 -5 -4.5 -12.5t-16 -27.5t-29 -35.5t-46.5 -28t-65 -12.5q-49 0 -96 25.5t-83 25.5zM126 265l-76 49
q1 5 4.5 12.5t16 27.5t29 35t46.5 27.5t65 12.5q50 0 96.5 -26t82.5 -26q23 0 44.5 10t31.5 20l10 10l76 -47q-1 -5 -4.5 -13t-16 -29t-29 -37t-46.5 -29t-65 -13q-49 0 -96 25.5t-83 25.5q-23 0 -44.5 -9t-31.5 -17z" />
    <glyph glyph-name="notequal" unicode="&#x2260;" horiz-adv-x="591" 
d="M63 200h141l42 73h-183v127h257l60 104l111 -64l-23 -40h65v-127h-139l-42 -73h181v-127h-254l-57 -100l-111 64l20 36h-68v127z" />
    <glyph glyph-name="lessequal" unicode="&#x2264;" horiz-adv-x="439" 
d="M357 552l61 -113l-146 -92l146 -93l-61 -113l-324 206zM401 119v-119h-359v119h359z" />
    <glyph glyph-name="greaterequal" unicode="&#x2265;" horiz-adv-x="439" 
d="M94 552l324 -205l-324 -206l-61 113l146 93l-146 92zM409 119v-119h-358v119h358z" />
    <glyph glyph-name="zero.onum" horiz-adv-x="527" 
d="M510 262q0 -129 -64 -200.5t-183 -71.5q-117 0 -181.5 72t-64.5 200q0 127 64.5 198.5t181.5 71.5q119 0 183 -71t64 -199zM354 262q0 82 -19 117t-72 35q-51 0 -70 -35t-19 -117q0 -77 19.5 -116t69.5 -39q52 0 71.5 38.5t19.5 116.5z" />
    <glyph glyph-name="one.onum" horiz-adv-x="349" 
d="M279 522v-522h-154v406h-115l42 116h227z" />
    <glyph glyph-name="two.onum" horiz-adv-x="488" 
d="M449 350q0 -39 -11 -69t-36.5 -54t-46.5 -38t-63 -37.5t-63 -36.5h238l-42 -115h-383v103l77 55l61 42q21 15 44.5 33t34 28t20.5 23.5t13 26t3 28.5q0 73 -83 73q-33 0 -71.5 -12t-60.5 -24l-22 -12v131q74 37 185 37q93 0 149.5 -43.5t56.5 -138.5z" />
    <glyph glyph-name="three.onum" horiz-adv-x="473" 
d="M446 113q0 -96 -67 -153.5t-161 -57.5q-53 0 -102.5 12t-72.5 24l-23 11l28 134q7 -6 20.5 -15.5t54 -25.5t80.5 -16q43 0 64 21t21 51q0 107 -189 107l143 201h-195v116h391l-39 -106l-102 -126q149 -38 149 -177z" />
    <glyph glyph-name="four.onum" 
d="M433 262h82l-42 -116h-40v-146h-154v146h-275l161 467h160l-141 -351h95v92l154 89v-181z" />
    <glyph glyph-name="five.onum" horiz-adv-x="482" 
d="M461 116q0 -97 -65.5 -155.5t-163.5 -58.5q-55 0 -103.5 12t-70.5 24l-21 12l29 134q6 -7 18 -17t51 -27t81 -17q51 0 70.5 24.5t19.5 54.5q0 81 -118 81q-27 0 -56.5 -5.5t-45.5 -11.5l-16 -5v361h370l-43 -116h-172v-112q15 2 35 2q83 0 142 -45.5t59 -134.5z" />
    <glyph glyph-name="six.onum" horiz-adv-x="485" 
d="M469 202q0 -102 -59.5 -156.5t-166.5 -54.5q-104 2 -162 70t-58 237q0 90 21.5 155.5t59 100.5t79.5 50.5t90 15.5q46 0 85.5 -8t55.5 -16l16 -8l-26 -131q-53 44 -116 44q-101 0 -112 -133q47 27 104 27q85 0 137 -52t52 -141zM317 194q0 37 -18 57.5t-48 20.5
q-68 0 -68 -79q0 -83 66 -83q35 0 51.5 19.5t16.5 64.5z" />
    <glyph glyph-name="seven.onum" horiz-adv-x="441" 
d="M2 522h444l-7 -20l-19 -56l-28 -81l-32 -97l-34 -102l-34 -96l-27 -82l-19 -56l-7 -21l-168 -1l184 496h-253v116z" />
    <glyph glyph-name="eight.onum" horiz-adv-x="512" 
d="M489 191q0 -96 -57.5 -148t-175.5 -52t-175.5 52t-57.5 148q0 84 78 141q-21 23 -29 33t-19 34.5t-11 49.5q0 90 59.5 130.5t154.5 40.5t154.5 -40.5t59.5 -130.5q0 -11 -1.5 -21.5t-5.5 -21.5l-8 -17q-3 -6 -11 -16t-10.5 -13.5t-12.5 -14.5t-11 -13q79 -57 79 -141z
M320 432q0 35 -14.5 52.5t-49.5 17.5q-65 0 -65 -70q0 -61 65 -61q64 0 64 61zM336 186q0 71 -80 71t-80 -71q0 -34 21 -55t59 -21t59 21t21 55z" />
    <glyph glyph-name="nine.onum" horiz-adv-x="485" 
d="M15 327q0 100 59.5 153t166.5 53q49 0 86.5 -14t69 -47t48 -95t16.5 -151q0 -90 -21.5 -155.5t-59 -100.5t-79.5 -51t-90 -16q-46 0 -85.5 8.5t-55.5 16.5l-16 8l25 130q54 -44 117 -44q101 0 112 134q-46 -27 -108 -27q-80 0 -132.5 51t-52.5 147zM167 330
q0 -37 18.5 -58t47.5 -21q69 0 69 79q0 83 -64 83q-71 0 -71 -83z" />
    <glyph glyph-name="commaaccent" horiz-adv-x="220" 
d="M58 -55l60 26l60 -26l-20 -103l-54 -95l-86 17l40 98v83z" />
    <glyph glyph-name="zero.lnum" horiz-adv-x="560" 
d="M525 338q0 -190 -62 -269t-183 -79q-124 0 -184.5 82t-60.5 266t60.5 265.5t184.5 81.5q121 0 183 -79t62 -268zM352 338q0 123 -16 170t-56 47q-39 0 -55.5 -47t-16.5 -170q0 -124 16.5 -171.5t55.5 -47.5q40 0 56 47.5t16 171.5z" />
    <glyph glyph-name="one.lnum" horiz-adv-x="560" 
d="M388 675v-675h-170v547h-130l46 128h254z" />
    <glyph glyph-name="two.lnum" horiz-adv-x="560" 
d="M497 484q0 -69 -40.5 -130t-139.5 -160l-64 -67h268l-46 -127h-422v113l175 189q55 62 77 99t22 74q0 77 -90 77q-36 0 -78 -13.5t-67 -26.5l-24 -14v146q80 40 204 40q102 0 163.5 -47.5t61.5 -152.5z" />
    <glyph glyph-name="three.lnum" horiz-adv-x="560" 
d="M518 225q0 -106 -74 -169.5t-177 -63.5q-59 0 -114 12.5t-80 25.5l-25 13l31 148q8 -7 22.5 -17.5t59.5 -27.5t89 -17q48 0 72 23.5t24 59.5q0 16 -4.5 30t-14 24t-19 18t-25.5 14l-28 10q-12 4 -33 7l-30 5q-10 1 -31.5 3t-27.5 3l161 221h-216v128h431l-46 -125
l-109 -130q164 -43 164 -195z" />
    <glyph glyph-name="four.lnum" horiz-adv-x="560" 
d="M478 288h81l-45 -127h-36v-161h-171v161h-294l169 514h177l-158 -387h106v131l171 60v-191z" />
    <glyph glyph-name="five.lnum" horiz-adv-x="560" 
d="M514 228q0 -108 -72 -172t-181 -64q-60 0 -113.5 13t-76.5 26l-23 13l31 148q2 -3 7 -7.5t20.5 -16t33 -20.5t45 -16t56.5 -7q41 0 68.5 25t27.5 65q0 89 -124 89q-31 0 -63.5 -8.5t-49.5 -17.5l-17 -8v405h408l-47 -128h-191v-125q17 2 34 2q60 0 109 -18t83.5 -63.5
t34.5 -114.5z" />
    <glyph glyph-name="six.lnum" horiz-adv-x="560" 
d="M526 218q0 -111 -65 -169t-181 -58q-245 4 -245 338q0 99 24 171.5t65 110.5t86.5 55.5t98.5 17.5q51 0 95 -8.5t62 -17.5l18 -9l-29 -146q-7 6 -18.5 14t-45 22t-63.5 14q-114 0 -125 -148q46 30 117 30q90 0 148 -58t58 -159zM358 214q0 41 -19.5 64t-51.5 23
q-78 0 -78 -86q0 -47 21.5 -70.5t53.5 -23.5q38 0 56 21.5t18 71.5z" />
    <glyph glyph-name="seven.lnum" horiz-adv-x="560" 
d="M56 675h487l-227 -675h-185l203 547h-278v128zM543 675l1 1v-1h-1z" />
    <glyph glyph-name="eight.lnum" horiz-adv-x="560" 
d="M59 499q0 96 61 140.5t163 44.5t163.5 -44.5t61.5 -140.5q0 -27 -8.5 -51t-21 -39t-24.5 -26.5t-20 -16.5l-9 -4q4 -2 11 -5t25 -16.5t31.5 -30t24.5 -45.5t11 -62q0 -212 -245 -212q-244 0 -244 212q0 33 10.5 62t25.5 46t30.5 29t26.5 17l10 5q-3 2 -9 5t-20 15
t-25 26.5t-20 39t-9 51.5zM282 287q-74 0 -74 -82q0 -84 75 -84q77 0 77 84q0 82 -76 82h-2zM282 411h2q27 0 43.5 18t16.5 51q0 74 -61 74q-60 0 -60 -74q0 -33 16.5 -51t42.5 -18z" />
    <glyph glyph-name="nine.lnum" horiz-adv-x="560" 
d="M35 456q0 111 63.5 169t180.5 58q58 0 100.5 -15.5t76.5 -52.5t51.5 -104.5t17.5 -165.5q0 -99 -24 -171.5t-64.5 -111t-86.5 -56t-99 -17.5q-51 0 -94.5 8.5t-61.5 17.5l-18 9l28 146q7 -6 18.5 -14t45.5 -22t64 -14q112 0 124 148q-51 -30 -120 -30q-86 0 -144 59
t-58 159zM203 458q0 -41 20.5 -64.5t52.5 -23.5q34 0 54 22.5t20 66.5q0 91 -73 91q-74 0 -74 -92z" />
    <glyph glyph-name="zero.tnum" horiz-adv-x="520" 
d="M488 262q0 -130 -57 -201t-170 -71q-111 0 -168.5 71t-57.5 201q0 129 57 199.5t169 70.5q113 0 170 -70.5t57 -199.5zM332 262q0 93 -16.5 122.5t-54.5 29.5q-36 0 -52.5 -30t-16.5 -122q0 -87 17 -121t52 -34q37 0 54 33.5t17 121.5z" />
    <glyph glyph-name="one.tnum" horiz-adv-x="520" 
d="M353 522v-522h-154v406h-115l42 116h227z" />
    <glyph glyph-name="two.tnum" horiz-adv-x="520" 
d="M462 350q0 -39 -11 -69t-36.5 -54t-46.5 -38t-63 -37.5t-63 -36.5h238l-42 -115h-383v103l77 55l61 42q21 15 44.5 33t34 28t20.5 23.5t13 26t3 28.5q0 73 -83 73q-33 0 -71.5 -12t-60.5 -24l-22 -12v131q74 37 185 37q93 0 149.5 -43.5t56.5 -138.5z" />
    <glyph glyph-name="three.tnum" horiz-adv-x="520" 
d="M472 113q0 -96 -67 -153.5t-161 -57.5q-53 0 -102.5 12t-72.5 24l-23 11l28 134q7 -6 20.5 -15.5t54 -25.5t80.5 -16q43 0 64 21t21 51q0 107 -189 107l143 201h-195v116h391l-39 -106l-102 -126q149 -38 149 -177z" />
    <glyph glyph-name="four.tnum" horiz-adv-x="520" 
d="M431 262h72l-42 -116h-30v-146h-154v146h-265l161 467h160l-151 -351h95v92l154 89v-181z" />
    <glyph glyph-name="five.tnum" horiz-adv-x="520" 
d="M475 116q0 -97 -65.5 -155.5t-163.5 -58.5q-55 0 -103.5 12t-70.5 24l-21 12l29 134q6 -7 18 -17t51 -27t81 -17q51 0 70.5 24.5t19.5 54.5q0 81 -118 81q-27 0 -56.5 -5.5t-45.5 -11.5l-16 -5v361h370l-43 -116h-172v-112q15 2 35 2q83 0 142 -45.5t59 -134.5z" />
    <glyph glyph-name="six.tnum" horiz-adv-x="520" 
d="M489 202q0 -102 -59.5 -156.5t-166.5 -54.5q-104 2 -162 70t-58 237q0 90 21.5 155.5t59 100.5t79.5 50.5t90 15.5q46 0 85.5 -8t55.5 -16l16 -8l-26 -131q-53 44 -116 44q-101 0 -112 -133q47 27 104 27q85 0 137 -52t52 -141zM337 194q0 37 -18 57.5t-48 20.5
q-68 0 -68 -79q0 -83 66 -83q35 0 51.5 19.5t16.5 64.5z" />
    <glyph glyph-name="seven.tnum" horiz-adv-x="520" 
d="M56 522h444l-7 -20l-19 -56l-28 -82l-32 -96l-34 -102l-34 -97l-27 -81l-19 -57l-7 -21h-168l184 496h-253v116z" />
    <glyph glyph-name="eight.tnum" horiz-adv-x="520" 
d="M489 191q0 -96 -57 -148t-169 -52t-169 52t-57 148q0 49 21.5 81t58.5 59q-61 51 -61 118q0 86 57.5 128.5t149.5 42.5t149.5 -42.5t57.5 -128.5q0 -65 -62 -118q37 -27 59 -59t22 -81zM320 432q0 36 -12.5 53t-44.5 17t-45 -17.5t-13 -52.5q0 -29 16.5 -45t41.5 -16
q24 0 40.5 16t16.5 45zM336 186q0 71 -73 71t-73 -71q0 -76 73 -76t73 76z" />
    <glyph glyph-name="nine.tnum" horiz-adv-x="520" 
d="M35 327q0 100 59.5 153t166.5 53q49 0 86.5 -14t69 -47t48 -95t16.5 -151q0 -90 -21.5 -155.5t-59 -100.5t-79.5 -51t-90 -16q-46 0 -85.5 8.5t-55.5 16.5l-16 8l25 130q54 -44 117 -44q101 0 112 134q-46 -27 -108 -27q-80 0 -132.5 51t-52.5 147zM187 330
q0 -37 18.5 -58t47.5 -21q69 0 69 79q0 83 -64 83q-71 0 -71 -83z" />
    <glyph glyph-name="plus.case" horiz-adv-x="596" 
d="M234 109v172h-171v128h171v172h128v-172h171v-128h-171v-172h-128z" />
    <glyph glyph-name="minus.case" horiz-adv-x="597" 
d="M533 281h-470v128h470v-128z" />
    <glyph glyph-name="multiply.case" horiz-adv-x="620" 
d="M160 585l150 -149l149 148l90 -89l-149 -150l150 -149l-91 -91l-149 150l-148 -149l-91 90l148 149l-149 150z" />
    <glyph glyph-name="divide.case" horiz-adv-x="597" 
d="M379 164q0 -38 -20.5 -58.5t-58.5 -20.5q-39 0 -60 20.5t-21 58.5t21 58.5t60 20.5q38 0 58.5 -20.5t20.5 -58.5zM533 281h-470v128h470v-128zM379 524q0 -38 -20.5 -58.5t-58.5 -20.5q-39 0 -60 20.5t-21 58.5t21 58.5t60 20.5q38 0 58.5 -20.5t20.5 -58.5z" />
    <glyph glyph-name="plusminus.case" horiz-adv-x="434" 
d="M399 485v-119h-120v-120h-119v120h-120v119h120v120h119v-120h120zM399 200v-119h-359v119h359z" />
    <glyph glyph-name="equal.case" horiz-adv-x="603" 
d="M63 309h470v-127h-470v127zM533 382h-470v127h470v-127z" />
    <glyph glyph-name="notequal.case" horiz-adv-x="591" 
d="M63 309h141l42 73h-183v127h257l60 104l111 -64l-23 -40h65v-127h-139l-42 -73h181v-127h-254l-57 -100l-111 64l20 36h-68v127z" />
    <glyph glyph-name="lessequal.case" horiz-adv-x="439" 
d="M357 633l61 -113l-146 -92l146 -93l-61 -113l-324 206zM401 200v-119h-359v119h359z" />
    <glyph glyph-name="greaterequal.case" horiz-adv-x="439" 
d="M94 633l324 -205l-324 -206l-61 113l146 93l-146 92zM409 200v-119h-358v119h358z" />
    <glyph glyph-name="less.case" horiz-adv-x="515" 
d="M428 593l61 -112l-224 -123l224 -122l-61 -112l-403 234z" />
    <glyph glyph-name="greater.case" horiz-adv-x="515" 
d="M25 481l61 112l403 -235l-403 -234l-61 112l224 122z" />
    <glyph glyph-name="bullet.case" horiz-adv-x="415" 
d="M371 349q0 -69 -48 -116.5t-116 -47.5q-69 0 -116.5 47.5t-47.5 116.5t47.5 116.5t116.5 47.5q68 0 116 -47.5t48 -116.5z" />
    <glyph glyph-name="parenleft.case" horiz-adv-x="326" 
d="M152 746h140q-4 -5 -10.5 -15.5t-23.5 -47t-30 -78.5t-23.5 -111t-10.5 -143q0 -78 10 -149.5t24.5 -117.5t29 -80.5t24.5 -49.5l10 -16h-140q-4 5 -10.5 16t-24 49t-30.5 81.5t-23.5 116t-10.5 150.5q0 74 10 142.5t24.5 112.5t29.5 77t25 48z" />
    <glyph glyph-name="parenright.case" horiz-adv-x="326" 
d="M33 746h140q4 -5 10.5 -15.5t24 -47t30.5 -78.5t23.5 -111t10.5 -143q0 -78 -10 -149.5t-25 -117.5t-29.5 -80.5t-24.5 -49.5l-10 -16h-140q4 5 10.5 16t23.5 49t30 81.5t23.5 116t10.5 150.5q0 74 -10 142.5t-24.5 112.5t-29 77t-24.5 48z" />
    <glyph glyph-name="braceleft.case" horiz-adv-x="362" 
d="M334 746l-41 -111h-33q-16 0 -26 -10t-10 -25v-146q0 -31 -14 -56.5t-24 -34t-18 -13.5q56 -37 56 -108v-158q0 -16 10 -26t26 -10h50v-110h-74q-59 0 -96.5 36t-37.5 92v154q0 36 -19 61t-56 25v88q37 0 56 25t19 66v137q0 54 38 89t96 35h98z" />
    <glyph glyph-name="braceright.case" horiz-adv-x="362" 
d="M334 394v-88q-37 0 -56 -24.5t-19 -62.5v-157q0 -54 -37.5 -89t-96.5 -35h-98l40 110h34q16 0 25.5 10t9.5 26v158q0 71 55 108q-7 3 -17.5 11t-24 32.5t-13.5 56.5v150q0 19 -8 27t-27 8h-52v111h76q58 0 96 -35t38 -89v-137q0 -41 19 -66t56 -25z" />
    <glyph glyph-name="bracketleft.case" horiz-adv-x="378" 
d="M97 746h232l-40 -113h-69v-583h86v-112h-209v808z" />
    <glyph glyph-name="bracketright.case" horiz-adv-x="347" 
d="M249 746v-808h-232l40 112h70v584h-87v112h209z" />
    <glyph glyph-name="hyphen.case" horiz-adv-x="342" 
d="M63 406h262l-46 -127h-262z" />
    <glyph glyph-name="endash.case" horiz-adv-x="450" 
d="M63 406h370l-46 -127h-370z" />
    <glyph glyph-name="emdash.case" horiz-adv-x="510" 
d="M63 406h430l-46 -127h-430z" />
    <glyph glyph-name="guilsinglleft.case" horiz-adv-x="334" 
d="M181 346l127 -155l-59 -59l-224 214l224 214l59 -59z" />
    <glyph glyph-name="guilsinglright.case" horiz-adv-x="334" 
d="M85 559l223 -214l-223 -214l-60 59l128 155l-128 155z" />
    <glyph glyph-name="guillemotleft.case" horiz-adv-x="587" 
d="M434 346l128 -155l-60 -59l-223 214l223 214l60 -59zM181 346l127 -155l-59 -59l-224 214l224 214l59 -59z" />
    <glyph glyph-name="guillemotright.case" horiz-adv-x="587" 
d="M339 560l223 -214l-223 -214l-60 59l128 155l-128 155zM85 560l223 -214l-223 -214l-60 59l128 155l-128 155z" />
    <glyph glyph-name="periodcentered.case" horiz-adv-x="239" 
d="M208 345q0 -43 -23 -66t-66 -23q-42 0 -65 23t-23 66q0 42 23 65t65 23q43 0 66 -23t23 -65z" />
    <glyph glyph-name="exclamdown.case" horiz-adv-x="244" 
d="M38 -1v441l169 31v-472h-169zM33 596q0 41 23 64.5t65 23.5q43 0 66 -23t23 -65q0 -43 -23 -66.5t-66 -23.5q-42 0 -65 23.5t-23 66.5z" />
    <glyph glyph-name="questiondown.case" horiz-adv-x="454" 
d="M24 187q0 67 41.5 115t113.5 72v67l169 31v-175q-92 -23 -121.5 -46.5t-29.5 -60.5q0 -68 84 -68q35 0 77 13t66 27l25 13v-145q-82 -41 -203 -41q-105 0 -163.5 50t-58.5 148zM173 597q0 42 23 65t65 23q43 0 66 -23t23 -65q0 -43 -23 -66t-66 -23q-42 0 -65 23t-23 66z
" />
    <glyph glyph-name="approxequal.case" horiz-adv-x="602" 
d="M212 202q-23 0 -44.5 -10t-31.5 -20l-10 -10l-76 49q1 5 4.5 13t16 28.5t29 36.5t46.5 29t65 13q50 0 96.5 -26t82.5 -26q23 0 44.5 8.5t31.5 17.5l10 9l76 -47q-1 -5 -4.5 -12.5t-16 -27.5t-29 -35.5t-46.5 -28t-65 -12.5q-49 0 -96 25.5t-83 25.5zM126 376l-76 49
q1 5 4.5 12.5t16 27.5t29 35t46.5 27.5t65 12.5q50 0 96.5 -26t82.5 -26q23 0 44.5 10t31.5 20l10 10l76 -47q-1 -5 -4.5 -13t-16 -29t-29 -37t-46.5 -29t-65 -13q-49 0 -96 25.5t-83 25.5q-23 0 -44.5 -8.5t-31.5 -17.5z" />
    <glyph glyph-name="asciitilde.case" horiz-adv-x="602" 
d="M142 263l-92 55q1 5 4.5 13t16 28.5t29 36.5t46.5 29t65 13q50 0 96.5 -28.5t82.5 -28.5q23 0 40.5 12.5t23.5 24.5l6 12l92 -56q-1 -5 -4.5 -13t-16 -29t-29 -37t-46.5 -29t-65 -13q-49 0 -96 28t-83 28q-23 0 -40.5 -11.5t-23.5 -23.5z" />
    </font>
</defs>
</svg>
