<?xml version="1.0" standalone="no"?>
<!DOCTYPE svg PUBLIC "-//W3C//DTD SVG 1.1//EN" "http://www.w3.org/Graphics/SVG/1.1/DTD/svg11.dtd" >
<svg xmlns="http://www.w3.org/2000/svg" version="1.1">
<metadata>
Created by FontForge 20170731 at Sun Jan 31 15:05:50 2021
 By Aleksey,,,
Copyright (C) 2004 Hoefler &#38; Frere-Jones Typography, Inc. www.typography.com
</metadata>
<defs>
<font id="Whitney-Medium" horiz-adv-x="1079" >
  <font-face 
    font-family="Whitney"
    font-weight="500"
    font-stretch="normal"
    units-per-em="2048"
    panose-1="0 0 0 0 0 0 0 0 0 0"
    ascent="1638"
    descent="-410"
    x-height="977"
    cap-height="1413"
    bbox="-162 -410 2023 1948"
    underline-thickness="40"
    underline-position="-312"
    unicode-range="U+0020-FB02"
  />
<missing-glyph horiz-adv-x="1024" 
 />
    <glyph glyph-name=".notdef" horiz-adv-x="1024" 
 />
    <glyph glyph-name=".null" horiz-adv-x="0" 
 />
    <glyph glyph-name="nonmarkingreturn" horiz-adv-x="682" 
 />
    <glyph glyph-name="space" unicode=" " horiz-adv-x="450" 
 />
    <glyph glyph-name="exclam" unicode="!" horiz-adv-x="557" 
d="M389 1413l-51 -967l-119 -26l-49 993h219zM381 0h-205v244h205v-244z" />
    <glyph glyph-name="quotedbl" unicode="&#x22;" horiz-adv-x="837" 
d="M709 1384l-52 -426l-106 25l-51 401h209zM336 1384l-49 -426l-109 25l-49 401h207z" />
    <glyph glyph-name="numbersign" unicode="#" horiz-adv-x="1353" 
d="M449 352l-58 -366l-139 30l53 336h-221v156h246l57 369h-235l-27 155h287l57 357h145l-57 -357h346l58 367l139 -31l-53 -336h221v-155h-246l-57 -369h237l27 -156h-291l-55 -356h-144l56 356h-346zM532 877l-59 -369h348l58 369h-347z" />
    <glyph glyph-name="dollar" unicode="$" 
d="M719 1378q121 -21 207 -63l-27 -172q-95 58 -209 84q-69 -445 -69 -447q190 -68 276 -160t86 -241q0 -180 -122 -283.5t-343 -103.5h-18l-39 -242l-131 29l35 225q-160 23 -279 84l25 172q139 -79 282 -104q5 32 13 83.5t25 161t28 182t10 72.5q-190 67 -270 148.5
t-80 226.5q0 175 119 269t317 94h27l24 153l135 -30zM520 143h12q281 0 281 226q0 82 -46 138.5t-173 104.5zM561 1243h-31q-121 0 -183 -51.5t-62 -144.5q0 -80 46 -129.5t165 -94.5z" />
    <glyph glyph-name="percent" unicode="%" horiz-adv-x="1843" 
d="M758 993q0 -186 -95 -296.5t-239 -110.5t-239 110.5t-95 296.5q0 187 95 297.5t239 110.5t239 -110.5t95 -297.5zM1432 1364l-881 -1378l-139 34l878 1379zM598 993q0 123 -44 201t-130 78q-88 0 -131 -77t-43 -202q0 -121 44.5 -199.5t129.5 -78.5q88 0 131 77t43 201z
M1751 391q0 -186 -95 -296.5t-239 -110.5t-239 110.5t-95 296.5q0 187 95 297.5t239 110.5t239 -110.5t95 -297.5zM1591 391q0 123 -44 201t-130 78q-88 0 -131 -77t-43 -202q0 -121 44.5 -199.5t129.5 -78.5q88 0 131 77t43 201z" />
    <glyph glyph-name="ampersand" unicode="&#x26;" horiz-adv-x="1394" 
d="M1399 35l-199 -47l-207 202q-182 -217 -456 -217q-221 0 -343 99.5t-122 281.5q0 275 321 430q-72 75 -106.5 147t-34.5 167q0 144 103.5 243t281.5 99q189 0 348 -88l-31 -193q-176 113 -319 113q-94 0 -143.5 -46t-49.5 -124q0 -64 32.5 -119.5t109.5 -132.5l389 -389
q68 145 98 360l168 -37q-46 -268 -145 -444zM879 305l-375 369q-115 -55 -177.5 -131.5t-62.5 -167.5q0 -105 76.5 -171.5t198.5 -66.5q200 0 340 168z" />
    <glyph glyph-name="quotesingle" unicode="'" horiz-adv-x="464" 
d="M336 1384l-49 -426l-109 25l-49 401h207z" />
    <glyph glyph-name="parenleft" unicode="(" horiz-adv-x="831" 
d="M743 -154l-176 -39q-224 195 -330 389t-106 445q0 519 518 846l29 -172q-181 -130 -266.5 -295t-85.5 -383q0 -215 97 -402.5t320 -388.5z" />
    <glyph glyph-name="parenright" unicode=")" horiz-adv-x="831" 
d="M698 643q0 -517 -516 -846l-30 172q182 132 268 296.5t86 383.5q0 215 -97.5 401.5t-320.5 389.5l176 39q224 -197 329 -391t105 -445z" />
    <glyph glyph-name="asterisk" unicode="*" horiz-adv-x="819" 
d="M735 1165l-223 -106l119 -219l-53 -35l-168 178l-170 -178l-52 35l117 219l-221 106l20 60l242 -43l29 241h67l29 -241l244 43z" />
    <glyph glyph-name="plus" unicode="+" horiz-adv-x="1171" 
d="M1061 616h-395v-407h-160v407h-395v152h395v408h160v-408h395v-152z" />
    <glyph glyph-name="comma" unicode="," horiz-adv-x="464" 
d="M369 244l-213 -516l-101 24l103 492h211z" />
    <glyph glyph-name="hyphen" unicode="-" horiz-adv-x="724" 
d="M614 494h-503v178h503v-178z" />
    <glyph glyph-name="period" unicode="." horiz-adv-x="464" 
d="M334 0h-203v244h203v-244z" />
    <glyph glyph-name="slash" unicode="/" horiz-adv-x="1097" 
d="M1055 1397l-967 -1657l-164 35l967 1657z" />
    <glyph glyph-name="zero" unicode="0" horiz-adv-x="1267" 
d="M1163 692q0 -339 -144 -529t-384 -190q-242 0 -386.5 190t-144.5 529t144.5 529t386.5 190q240 0 384 -190t144 -529zM975 692q0 268 -89.5 412.5t-250.5 144.5t-251.5 -144.5t-90.5 -412.5t90.5 -412.5t251.5 -144.5t250.5 144.5t89.5 412.5z" />
    <glyph glyph-name="one" unicode="1" horiz-adv-x="731" 
d="M537 0h-183v1196l-288 -109l-21 148l332 154h160v-1389z" />
    <glyph glyph-name="two" unicode="2" horiz-adv-x="1093" 
d="M993 0h-903v141l512 535q97 102 138.5 176t41.5 156q0 116 -64.5 174.5t-187.5 58.5q-190 0 -376 -164l-27 178q181 156 414 156q200 0 316 -106t116 -285q0 -121 -55.5 -219t-190.5 -236l-395 -401h637z" />
    <glyph glyph-name="three" unicode="3" horiz-adv-x="1052" 
d="M958 379q0 -184 -133.5 -295t-359.5 -111q-107 0 -211.5 29.5t-185.5 79.5l30 180q180 -123 377 -123q139 0 217 61.5t78 176.5q0 268 -379 268h-63l-27 164h105q337 0 337 231q0 93 -67 149t-193 56q-201 0 -366 -133l-27 172q173 127 402 127q112 0 199 -30
t138.5 -81.5t77 -115t25.5 -135.5q0 -237 -254 -320q280 -77 280 -350z" />
    <glyph glyph-name="four" unicode="4" horiz-adv-x="1206" 
d="M1155 313h-221v-313h-170v313h-692v136l643 940h219v-924h221v-152zM764 465v717l-496 -717h496z" />
    <glyph glyph-name="five" unicode="5" 
d="M995 434q0 -146 -70 -252t-186.5 -157.5t-265.5 -51.5q-213 0 -385 107l29 174q167 -119 362 -119q148 0 240 72.5t92 216.5q0 123 -76.5 194.5t-216.5 71.5q-130 0 -235 -45l-138 31l50 708h729l24 -163h-600l-31 -404q116 35 222 35q210 0 333 -114.5t123 -303.5z" />
    <glyph glyph-name="six" unicode="6" horiz-adv-x="1155" 
d="M297 739q162 109 350 109q199 0 314.5 -114.5t115.5 -309.5q0 -196 -135.5 -323.5t-341.5 -127.5q-109 0 -200 38t-157.5 110.5t-103.5 184.5t-37 253t36 262t101 214t159 167t206.5 125t247.5 84l25 -164q-112 -28 -202.5 -69t-169.5 -100.5t-132.5 -145.5t-75.5 -193z
M281 565q2 -197 89 -313.5t236 -116.5q128 0 207.5 75.5t79.5 205.5t-70.5 200t-216.5 70q-179 0 -325 -121z" />
    <glyph glyph-name="seven" unicode="7" horiz-adv-x="1081" 
d="M989 1241l-555 -1255l-180 41l528 1192h-686l-24 165h917v-143z" />
    <glyph glyph-name="eight" unicode="8" horiz-adv-x="1163" 
d="M633 791q97 53 153 123t56 147q0 90 -67.5 142t-190.5 52q-124 0 -191 -55.5t-67 -142.5q0 -89 64 -140.5t243 -125.5zM535 662q-121 -54 -190 -131.5t-69 -168.5q0 -110 85.5 -171.5t222.5 -61.5q136 0 219.5 61.5t83.5 165.5t-72 163t-280 143zM381 729
q-116 58 -176 133t-60 193q0 155 122.5 255.5t320.5 100.5q197 0 315.5 -97.5t118.5 -248.5q0 -200 -242 -338q73 -35 123 -68t90 -77.5t59 -101.5t19 -130q0 -163 -134 -270t-357 -107q-229 0 -358.5 109t-129.5 272q0 224 289 375z" />
    <glyph glyph-name="nine" unicode="9" horiz-adv-x="1155" 
d="M852 623q-160 -105 -344 -105q-201 0 -315.5 116.5t-114.5 317.5q0 200 134.5 329.5t340.5 129.5q225 0 362.5 -153t137.5 -433q0 -175 -56 -320t-159.5 -249.5t-242 -175t-310.5 -107.5l-27 164q498 107 594 486zM874 801v14q0 198 -88.5 316t-236.5 118
q-131 0 -209 -76t-78 -212q0 -135 70.5 -208t214.5 -73q178 0 327 121z" />
    <glyph glyph-name="colon" unicode=":" horiz-adv-x="483" 
d="M344 733h-205v244h205v-244zM344 0h-205v244h205v-244z" />
    <glyph glyph-name="semicolon" unicode=";" horiz-adv-x="483" 
d="M358 733h-204v244h204v-244zM365 244l-213 -516l-101 24l103 492h211z" />
    <glyph glyph-name="less" unicode="&#x3c;" horiz-adv-x="1171" 
d="M1032 168l-915 455v139l915 455v-177l-727 -346l727 -348v-178z" />
    <glyph glyph-name="equal" unicode="=" horiz-adv-x="1208" 
d="M1061 840h-911v164h911v-164zM1061 381h-911v164h911v-164z" />
    <glyph glyph-name="greater" unicode="&#x3e;" horiz-adv-x="1171" 
d="M1055 623l-916 -455v176l727 346l-727 348v179l916 -455v-139z" />
    <glyph glyph-name="question" unicode="?" horiz-adv-x="1060" 
d="M948 1077q0 -65 -18 -119t-48.5 -95t-82.5 -79.5t-106.5 -68t-135.5 -66.5l-18 -203l-119 -26l-27 338l84 35q152 63 215.5 122.5t63.5 153.5q0 92 -66.5 144.5t-171.5 52.5q-112 0 -208 -43.5t-193 -122.5l-27 188q207 152 438 152q189 0 304.5 -98.5t115.5 -264.5z
M582 0h-205v244h205v-244z" />
    <glyph glyph-name="at" unicode="@" horiz-adv-x="1712" 
d="M975 397l57 357q-61 20 -119 20q-104 0 -184 -109.5t-80 -283.5q0 -148 101 -148q52 0 103.5 38t121.5 126zM985 268q-78 -89 -142 -128.5t-136 -39.5q-90 0 -152.5 66t-62.5 194q0 119 37 221.5t98.5 171.5t140 108.5t162.5 39.5q129 0 270 -51l-63 -416q-9 -61 -9 -106
q0 -62 35.5 -96.5t98.5 -34.5q111 0 182.5 112.5t71.5 311.5q0 144 -44.5 257.5t-123.5 185t-184.5 109t-229.5 37.5q-149 0 -284.5 -62.5t-235.5 -171t-159.5 -264.5t-59.5 -333q0 -151 44.5 -266t124.5 -186t186 -106.5t234 -35.5q240 0 445 100l12 -73q-214 -99 -465 -99
q-310 0 -491 175t-181 489q0 183 65 350.5t176 289.5t267 194.5t330 72.5q300 0 481 -180t181 -481q0 -237 -99.5 -380t-267.5 -143q-95 0 -163 43.5t-89 124.5z" />
    <glyph glyph-name="A" unicode="A" horiz-adv-x="1409" 
d="M1350 27l-187 -41l-166 438h-583l-160 -424h-195l553 1419h193zM932 594l-227 596l-226 -596h453z" />
    <glyph glyph-name="B" unicode="B" horiz-adv-x="1116" 
d="M1030 414q0 -208 -136 -311t-386 -103h-338v1413h342q226 0 341.5 -98.5t115.5 -267.5q0 -208 -203 -293q264 -79 264 -340zM780 1040q0 209 -272 209h-150v-430h136q138 0 212 58t74 163zM842 410q0 123 -84 187.5t-242 64.5h-158v-498h164q154 0 237 62t83 184z" />
    <glyph glyph-name="C" unicode="C" horiz-adv-x="1323" 
d="M1194 111q-85 -62 -198 -100t-230 -38q-296 0 -474.5 201.5t-178.5 530.5q0 217 81 384t230.5 259t345.5 92q229 0 401 -117l-28 -197q-180 138 -375 138q-214 0 -335.5 -150t-121.5 -407q0 -256 122 -405.5t335 -149.5q203 0 397 141z" />
    <glyph glyph-name="D" unicode="D" horiz-adv-x="1439" 
d="M1323 709q0 -158 -50 -288t-144 -224t-236.5 -145.5t-321.5 -51.5h-401v1413h410q181 0 323 -51.5t233.5 -145.5t139 -222.5t47.5 -284.5zM1124 707q0 259 -144.5 395.5t-393.5 136.5h-224v-1065h218q260 0 402 134t142 399z" />
    <glyph glyph-name="E" unicode="E" horiz-adv-x="1028" 
d="M952 0h-782v1413h762v-176h-570v-410h443l29 -176h-472v-475h590v-176z" />
    <glyph glyph-name="F" unicode="F" horiz-adv-x="978" 
d="M905 1237h-543v-432h426l29 -176h-455v-629h-192v1413h735v-176z" />
    <glyph glyph-name="G" unicode="G" horiz-adv-x="1427" 
d="M1278 111q-97 -62 -220.5 -100t-256.5 -38q-220 0 -376.5 92.5t-234 256t-77.5 383.5q0 219 79 384.5t231.5 258t360.5 92.5q248 0 430 -121l-30 -197q-180 142 -402 142q-228 0 -349.5 -148.5t-121.5 -408.5t125.5 -407.5t364.5 -147.5q160 0 286 69v375h-325l-27 176
h543v-661z" />
    <glyph glyph-name="H" unicode="H" horiz-adv-x="1439" 
d="M1270 0h-193v651h-715v-651h-192v1413h192v-586h715v586h193v-1413z" />
    <glyph glyph-name="I" unicode="I" horiz-adv-x="557" 
d="M375 0h-193v1413h193v-1413z" />
    <glyph glyph-name="J" unicode="J" horiz-adv-x="757" 
d="M600 348q0 -183 -106 -272.5t-293 -89.5q-57 0 -127 12l-29 174q71 -18 158 -18q101 0 153 50.5t52 160.5v1048h192v-1065z" />
    <glyph glyph-name="K" unicode="K" horiz-adv-x="1247" 
d="M1229 31l-201 -45l-666 731v-717h-192v1413h192v-635l599 635h231l-621 -655z" />
    <glyph glyph-name="L" unicode="L" horiz-adv-x="958" 
d="M899 0h-729v1413h192v-1237h510z" />
    <glyph glyph-name="M" unicode="M" horiz-adv-x="1843" 
d="M1710 0h-184l-88 1124l-447 -1130h-145l-447 1130l-86 -1124h-180l113 1413h237l441 -1159l440 1159h235z" />
    <glyph glyph-name="N" unicode="N" horiz-adv-x="1439" 
d="M1270 0h-146l-776 1100v-1100h-178v1413h172l750 -1059v1059h178v-1413z" />
    <glyph glyph-name="O" unicode="O" horiz-adv-x="1527" 
d="M1415 709q0 -329 -178 -532.5t-475 -203.5q-196 0 -343.5 92t-226.5 257.5t-79 382.5q0 330 178.5 532.5t474.5 202.5q297 0 473 -201t176 -530zM1217 707q0 256 -122 406.5t-331 150.5q-210 0 -331.5 -150.5t-121.5 -406.5t122 -406.5t331 -150.5q210 0 331.5 150.5
t121.5 406.5z" />
    <glyph glyph-name="P" unicode="P" horiz-adv-x="1097" 
d="M1024 1006q0 -212 -137.5 -322.5t-374.5 -110.5h-150v-573h-192v1413h375q226 0 352.5 -106t126.5 -301zM829 999q0 244 -294 244h-173v-500h160q148 0 227.5 63.5t79.5 192.5z" />
    <glyph glyph-name="Q" unicode="Q" horiz-adv-x="1527" 
d="M1415 709q0 -264 -117.5 -443.5t-318.5 -245.5l405 -143l-38 -170l-764 285q-469 175 -469 713q0 330 178.5 532.5t474.5 202.5q297 0 473 -201t176 -530zM1217 707q0 256 -122 406.5t-331 150.5q-210 0 -331.5 -150.5t-121.5 -406.5q0 -257 122.5 -412.5t330.5 -155.5
q209 0 331 155.5t122 412.5z" />
    <glyph glyph-name="R" unicode="R" horiz-adv-x="1167" 
d="M831 1001q0 117 -72 179.5t-212 62.5h-185v-485h164q142 0 223.5 62.5t81.5 180.5zM715 621l420 -592l-195 -43l-432 610h-146v-596h-192v1413h385q219 0 344 -104.5t125 -296.5q0 -154 -82.5 -252.5t-226.5 -138.5z" />
    <glyph glyph-name="S" unicode="S" horiz-adv-x="1048" 
d="M950 381q0 -181 -123 -289t-323 -108q-221 0 -395 92l28 196q183 -120 371 -120q113 0 182.5 57t69.5 158q0 95 -54.5 150t-216.5 128q-105 48 -170 87.5t-111.5 87.5t-65.5 104.5t-19 132.5q0 169 118.5 271t311.5 102q181 0 321 -80l-30 -193q-139 105 -297 105
q-116 0 -175 -54t-59 -137q0 -82 53.5 -133t215.5 -125q143 -65 219 -121.5t112.5 -130t36.5 -180.5z" />
    <glyph glyph-name="T" unicode="T" horiz-adv-x="1228" 
d="M1174 1237h-463v-1237h-193v1237h-450v176h1077z" />
    <glyph glyph-name="U" unicode="U" horiz-adv-x="1411" 
d="M1255 545q0 -267 -148 -419.5t-405 -152.5q-255 0 -400.5 151.5t-145.5 410.5v878h192v-854q0 -191 88.5 -300t265.5 -109q178 0 269.5 104.5t91.5 298.5v860h192v-868z" />
    <glyph glyph-name="V" unicode="V" horiz-adv-x="1386" 
d="M1327 1413l-551 -1419h-172l-545 1392l193 41l440 -1175l432 1161h203z" />
    <glyph glyph-name="W" unicode="W" horiz-adv-x="2082" 
d="M2011 1413l-426 -1413h-162l-383 1145l-383 -1145h-159l-418 1386l188 41l320 -1124l360 1110h193l360 -1110l314 1110h196z" />
    <glyph glyph-name="X" unicode="X" horiz-adv-x="1302" 
d="M545 735l-439 651l195 41l352 -534l336 520h213l-446 -668l485 -718l-197 -41l-397 602l-383 -588h-211z" />
    <glyph glyph-name="Y" unicode="Y" horiz-adv-x="1302" 
d="M1257 1413l-514 -852v-561h-192v561l-500 825l193 41l405 -690l395 676h213z" />
    <glyph glyph-name="Z" unicode="Z" horiz-adv-x="1239" 
d="M1153 0h-1055v143l805 1102h-743l-27 168h1002v-143l-805 -1102h796z" />
    <glyph glyph-name="bracketleft" unicode="[" horiz-adv-x="837" 
d="M743 -213h-565v1626h557v-139h-381v-1346h367z" />
    <glyph glyph-name="backslash" unicode="\" horiz-adv-x="1097" 
d="M1174 -227l-164 -35l-967 1657l164 35z" />
    <glyph glyph-name="bracketright" unicode="]" horiz-adv-x="837" 
d="M657 -213h-555v141h381v1346h-368l-23 139h565v-1626z" />
    <glyph glyph-name="asciicircum" unicode="^" horiz-adv-x="929" 
d="M743 1135l-100 -21l-180 152l-174 -146h-115l205 289h172z" />
    <glyph glyph-name="underscore" unicode="_" horiz-adv-x="929" 
d="M934 -213h-938v143h938v-143z" />
    <glyph glyph-name="grave" unicode="`" horiz-adv-x="929" 
d="M649 1120h-123l-274 260l221 50z" />
    <glyph glyph-name="a" unicode="a" horiz-adv-x="1021" 
d="M883 0h-148l-20 131q-147 -151 -344 -151q-132 0 -209.5 73.5t-77.5 198.5q0 177 148.5 263t467.5 120v41q0 166 -186 166q-149 0 -338 -84l-24 157q101 41 187 61.5t191 20.5q180 0 266.5 -75.5t86.5 -237.5v-684zM700 268v228q-105 -10 -183.5 -28.5t-126 -40
t-76.5 -50t-39.5 -56t-10.5 -59.5q0 -60 39 -95.5t107 -35.5q156 0 290 137z" />
    <glyph glyph-name="b" unicode="b" horiz-adv-x="1091" 
d="M1004 516q0 -259 -130 -393.5t-350 -134.5q-179 0 -381 61v1401l183 29v-617q131 135 292 135q81 0 150 -30t122 -88t83.5 -151t30.5 -212zM819 508q0 156 -63 242t-164 86q-137 0 -266 -160v-500q88 -33 196 -33q297 0 297 365z" />
    <glyph glyph-name="c" unicode="c" horiz-adv-x="960" 
d="M877 84q-137 -104 -334 -104q-202 0 -328.5 134t-126.5 373q0 122 36 220t98.5 160.5t145.5 96t179 33.5q193 0 319 -90l-26 -178q-133 109 -295 109q-123 0 -198 -91.5t-75 -257.5q0 -173 79.5 -261.5t213.5 -88.5q79 0 146.5 24t138.5 85z" />
    <glyph glyph-name="d" unicode="d" horiz-adv-x="1101" 
d="M958 0h-145l-22 141q-135 -161 -318 -161q-81 0 -149.5 29.5t-122 87.5t-83.5 151t-30 213q0 130 35.5 232.5t96.5 166t140 96.5t170 33q141 0 246 -43v504l182 29v-1479zM776 313v467q-59 30 -111.5 43t-127.5 13q-119 0 -192 -95.5t-73 -271.5q0 -157 63 -242.5
t165 -85.5q80 0 146.5 44t129.5 128z" />
    <glyph glyph-name="e" unicode="e" horiz-adv-x="1021" 
d="M934 508v-39h-664q4 -166 79 -250t206 -84q99 0 181 35t169 104l27 -163q-166 -131 -391 -131q-97 0 -178 30.5t-143.5 91t-97 160t-34.5 230.5q0 231 121 368t309 137q138 0 233.5 -67t139 -175t43.5 -247zM750 606q-36 248 -234 248q-88 0 -152 -63t-85 -185h471z" />
    <glyph glyph-name="f" unicode="f" horiz-adv-x="636" 
d="M606 1290q-40 8 -94 8q-135 0 -135 -124v-197h196l23 -154h-219v-823h-178v823h-148v154h148v215q0 139 81.5 203.5t221.5 64.5q21 0 46 -2t32 -2z" />
    <glyph glyph-name="g" unicode="g" horiz-adv-x="1032" 
d="M375 76q-166 -82 -166 -182q0 -61 76.5 -98.5t214.5 -37.5t217.5 42t79.5 106q0 46 -42 76.5t-143 48.5l-116 20q-32 6 -74.5 15t-46.5 10zM678 659q0 89 -56.5 147t-146.5 58t-144.5 -60.5t-54.5 -152.5q0 -86 55 -143t144 -57q92 0 147.5 59t55.5 149zM727 915l248 76
l26 -164l-186 -18q39 -65 39 -152q0 -151 -109.5 -243t-265.5 -92q-35 0 -73 6q-50 -31 -50 -60q0 -25 35 -36.5t172 -36.5l70 -13q167 -30 251.5 -88t84.5 -166q0 -99 -67.5 -168.5t-173 -101t-236.5 -31.5q-201 0 -329 64.5t-128 187.5q0 74 51 134.5t156 117.5
q-62 45 -62 102q0 73 103 134q-84 41 -133.5 117t-49.5 173q0 153 110 246.5t265 93.5q147 0 252 -82z" />
    <glyph glyph-name="h" unicode="h" 
d="M940 0h-182v666q0 79 -36.5 123.5t-113.5 44.5q-134 0 -282 -158v-676h-183v1450l183 29v-631q166 149 331 149q136 0 209.5 -76t73.5 -210v-711z" />
    <glyph glyph-name="i" unicode="i" horiz-adv-x="497" 
d="M365 1288q0 -47 -34 -80.5t-81 -33.5q-48 0 -82.5 33.5t-34.5 80.5t35 82t82 35t81 -35t34 -82zM340 0h-182v977h182v-977z" />
    <glyph glyph-name="j" unicode="j" horiz-adv-x="497" 
d="M365 1288q0 -47 -34 -80.5t-81 -33.5q-48 0 -82.5 33.5t-34.5 80.5t35 82t82 35t81 -35t34 -82zM340 -123q0 -127 -69 -188.5t-191 -61.5q-63 0 -84 6l-27 162q31 -8 86 -8q103 0 103 107v1083h182v-1100z" />
    <glyph glyph-name="k" unicode="k" horiz-adv-x="985" 
d="M958 16l-198 -30l-434 526v-512h-183v1450l183 29v-912l379 410h219l-412 -432z" />
    <glyph glyph-name="l" unicode="l" horiz-adv-x="497" 
d="M340 0h-182v1450l182 29v-1479z" />
    <glyph glyph-name="m" unicode="m" horiz-adv-x="1669" 
d="M1530 0h-182v666q0 168 -144 168q-128 0 -276 -158v-676h-183v666q0 168 -143 168q-128 0 -276 -158v-676h-183v977h146l22 -141q176 161 340 161q198 0 258 -161q169 161 344 161q137 0 207 -75.5t70 -210.5v-711z" />
    <glyph glyph-name="n" unicode="n" 
d="M940 0h-182v666q0 79 -36.5 123.5t-113.5 44.5q-134 0 -282 -158v-676h-183v977h146l22 -141q176 161 346 161q136 0 209.5 -76t73.5 -210v-711z" />
    <glyph glyph-name="o" unicode="o" 
d="M991 487q0 -236 -126.5 -371.5t-327.5 -135.5q-200 0 -324.5 135t-124.5 372t125 373.5t324 136.5q201 0 327.5 -136.5t126.5 -373.5zM807 487q0 157 -71 257t-199 100t-196.5 -98.5t-68.5 -258.5q0 -156 70 -256t195 -100q131 0 200.5 98t69.5 258z" />
    <glyph glyph-name="p" unicode="p" horiz-adv-x="1101" 
d="M1014 516q0 -130 -35.5 -232.5t-97 -166t-140.5 -96.5t-170 -33q-140 0 -245 43v-385l-183 -27v1358h146l22 -141q139 161 318 161q80 0 149 -30t122 -88t83.5 -151t30.5 -212zM829 508q0 156 -63 242t-166 86q-145 0 -274 -172v-469q58 -29 110 -41.5t127 -12.5
q119 0 192.5 95.5t73.5 271.5z" />
    <glyph glyph-name="q" unicode="q" horiz-adv-x="1091" 
d="M948 -354l-182 -27v494q-133 -133 -293 -133q-81 0 -149.5 29.5t-122 87.5t-83.5 151t-30 213q0 259 129.5 393.5t349.5 134.5q179 0 381 -61v-1282zM766 301v498q-93 35 -197 35q-297 0 -297 -365q0 -157 63 -242.5t165 -85.5q137 0 266 160z" />
    <glyph glyph-name="r" unicode="r" horiz-adv-x="733" 
d="M690 823q-117 -6 -214.5 -75t-149.5 -170v-578h-183v977h146l30 -199q58 93 144.5 153t198.5 66z" />
    <glyph glyph-name="s" unicode="s" horiz-adv-x="905" 
d="M825 272q0 -136 -99.5 -214t-285.5 -78q-92 0 -190 27t-166 65l27 172q165 -113 344 -113q94 0 146 34t52 95q0 66 -48 99.5t-183 66.5q-177 44 -249.5 109t-72.5 192q0 119 93.5 194.5t250.5 75.5q176 0 322 -65l-29 -172q-147 84 -297 84q-82 0 -125 -30t-43 -83
q0 -50 44 -81t159 -60q190 -48 270 -116t80 -202z" />
    <glyph glyph-name="t" unicode="t" horiz-adv-x="690" 
d="M612 -4q-62 -12 -137 -12q-138 0 -211.5 59t-73.5 199v581h-147v154h147v326l179 26v-352h211l24 -154h-235v-549q0 -64 31 -96.5t104 -32.5q44 0 84 7z" />
    <glyph glyph-name="u" unicode="u" 
d="M936 0h-145l-23 141q-172 -161 -346 -161q-137 0 -210 76t-73 210v711h183v-666q0 -79 36.5 -123.5t112.5 -44.5q135 0 283 158v676h182v-977z" />
    <glyph glyph-name="v" unicode="v" horiz-adv-x="968" 
d="M920 977l-349 -981h-174l-346 967l182 28l254 -772l246 758h187z" />
    <glyph glyph-name="w" unicode="w" horiz-adv-x="1478" 
d="M1421 977l-315 -977h-143l-226 739l-223 -739h-141l-316 963l174 28l215 -723l218 709h153l217 -709l209 709h178z" />
    <glyph glyph-name="x" unicode="x" horiz-adv-x="966" 
d="M907 12l-180 -26l-246 379l-229 -365h-193l330 500l-309 463l180 28l223 -348l213 334h191l-309 -471z" />
    <glyph glyph-name="y" unicode="y" horiz-adv-x="989" 
d="M942 977l-393 -1063q-60 -163 -141 -225t-209 -62q-28 0 -64 8l-24 160q54 -14 102 -14q113 0 156 115l37 100l-357 967l180 28l267 -778l260 764h186z" />
    <glyph glyph-name="z" unicode="z" horiz-adv-x="925" 
d="M852 0h-780v143l546 682h-497l-25 152h731v-143l-548 -682h548z" />
    <glyph glyph-name="braceleft" unicode="{" horiz-adv-x="976" 
d="M883 -213h-238q-293 0 -293 268q0 46 13.5 139.5t13.5 143.5q0 194 -201 194h-74l-22 138h98q199 0 199 192q0 50 -13.5 143t-13.5 140q0 268 293 268h229v-139h-215q-67 0 -100 -33.5t-33 -93.5q0 -41 14.5 -139t14.5 -144q0 -119 -53.5 -178.5t-155.5 -83.5v-4
q102 -22 155.5 -82t53.5 -180q0 -44 -14.5 -143t-14.5 -140q0 -125 131 -125h203z" />
    <glyph glyph-name="bar" unicode="|" horiz-adv-x="544" 
d="M354 -354l-164 -27v1833l164 27v-1833z" />
    <glyph glyph-name="braceright" unicode="}" horiz-adv-x="976" 
d="M895 532h-98q-201 0 -201 -194q0 -49 14.5 -142t14.5 -141q0 -268 -293 -268h-230v141h213q136 0 136 123q0 40 -14.5 140t-14.5 145q0 120 53.5 180t155.5 82v4q-102 24 -155.5 83.5t-53.5 178.5q0 46 14.5 146t14.5 141q0 123 -136 123h-200l-23 139h240
q293 0 293 -268q0 -45 -14.5 -139t-14.5 -144q0 -192 203 -192h73z" />
    <glyph glyph-name="asciitilde" unicode="~" horiz-adv-x="837" 
d="M735 690q-27 -233 -170 -233q-56 0 -145 47q-60 31 -85 41t-48 10q-24 0 -39 -22.5t-27 -81.5l-119 24q27 234 170 234q35 0 65.5 -11t78.5 -36q65 -33 88.5 -42.5t46.5 -9.5q22 0 37 23.5t28 83.5z" />
    <glyph glyph-name="nbspace" unicode="&#xa0;" horiz-adv-x="225" 
 />
    <glyph glyph-name="exclamdown" unicode="&#xa1;" horiz-adv-x="557" 
d="M381 1169h-205v244h205v-244zM389 0h-219l49 967l119 26z" />
    <glyph glyph-name="cent" unicode="&#xa2;" horiz-adv-x="985" 
d="M543 193l-33 -213l-133 30l33 201q-146 42 -230 165.5t-84 311.5q0 238 128 370t331 132h6l35 213l133 -29l-31 -196q104 -22 181 -76l-25 -172q-94 75 -184 96l-105 -678h8q88 0 153.5 22.5t137.5 82.5l23 -158q-135 -102 -334 -102h-10zM438 373l103 665
q-126 -5 -198.5 -93t-72.5 -253q0 -253 168 -319z" />
    <glyph glyph-name="sterling" unicode="&#xa3;" horiz-adv-x="1097" 
d="M291 762l92 285q62 193 166 278.5t282 85.5q88 0 170 -20l-24 -168q-70 20 -162 20q-100 0 -161.5 -57.5t-104.5 -190.5q-74 -233 -76 -233h356l25 -160h-432q1 0 -34 -109.5t-70 -218.5l-35 -110h700l27 -164h-918v141l148 461h-148v160h199z" />
    <glyph glyph-name="currency" unicode="&#xa4;" horiz-adv-x="1210" 
d="M231 795h-178v143h201q53 218 189 345.5t341 127.5q206 0 349 -106l-31 -177q-77 61 -151.5 91t-166.5 30q-130 0 -220 -81.5t-130 -229.5h469l23 -143h-516q-4 -66 -4 -103q0 -34 4 -92h505v-143h-481q39 -152 130 -236t224 -84q174 0 338 129l29 -170
q-167 -123 -373 -123q-210 0 -347.5 130t-184.5 354h-182l-23 143h186q-4 62 -4 90q0 35 4 105z" />
    <glyph glyph-name="yen" unicode="&#xa5;" horiz-adv-x="1243" 
d="M705 463v-156h339v-141h-339v-166h-175v166h-325l-25 141h350v156h-340v141h306l-445 754l182 41l388 -697l376 682h201l-459 -780h293l23 -141h-350z" />
    <glyph glyph-name="brokenbar" unicode="&#xa6;" horiz-adv-x="1024" 
d="M51 -410v2048h922v-2048h-922z" />
    <glyph glyph-name="section" unicode="&#xa7;" horiz-adv-x="1077" 
d="M985 735q0 -103 -61 -203l-148 27q45 81 45 141q0 58 -41 88t-162 56l-108 22q-79 17 -132 35.5t-97 49t-65 75.5t-21 107q0 115 93 191.5t238 76.5q187 0 336 -64l-26 -163q-146 81 -314 81q-74 0 -115.5 -32.5t-41.5 -81.5q0 -48 37 -75t122 -46l185 -41
q149 -34 212.5 -90.5t63.5 -153.5zM92 649q0 101 62 203l147 -27q-45 -81 -45 -141q0 -58 41 -87.5t162 -55.5l108 -23q79 -17 132 -35.5t97.5 -48.5t65.5 -75t21 -107q0 -115 -93.5 -191.5t-238.5 -76.5q-189 0 -336 63l27 164q148 -82 313 -82q74 0 116 33t42 82
q0 48 -37.5 74.5t-122.5 46.5l-184 41q-149 34 -213 90t-64 153z" />
    <glyph glyph-name="dieresis" unicode="&#xa8;" horiz-adv-x="929" 
d="M750 1128h-203v207h203v-207zM383 1128h-203v207h203v-207z" />
    <glyph glyph-name="copyright" unicode="&#xa9;" horiz-adv-x="1636" 
d="M1526 709q0 -215 -89.5 -383t-251 -260.5t-368.5 -92.5q-315 0 -510.5 202.5t-195.5 529.5q0 216 89.5 383.5t250.5 259.5t368 92q208 0 369 -91.5t249.5 -257.5t88.5 -382zM1436 707q0 155 -47.5 281t-131 208t-196 126t-242.5 44q-132 0 -245 -44t-196 -126
t-130 -207.5t-47 -281.5q0 -155 47.5 -281t131 -208.5t196 -126.5t243.5 -44q132 0 244.5 44t195.5 126.5t130 208t47 281.5zM1098 379q-122 -84 -258 -84q-172 0 -276.5 115t-104.5 303q0 186 106 301.5t275 115.5q129 0 243 -71l-20 -139q-112 84 -223 84
q-110 0 -177 -79.5t-67 -211.5q0 -131 67.5 -211t176.5 -80t237 90z" />
    <glyph glyph-name="ordfeminine" unicode="&#xaa;" horiz-adv-x="780" 
d="M643 731h-111l-12 78q-98 -90 -219 -90q-89 0 -140.5 49.5t-51.5 134.5q0 116 97.5 174.5t303.5 81.5v19q0 100 -117 100q-97 0 -221 -57l-20 118q131 56 254 56q121 0 179 -51t58 -160v-453zM662 457h-547v121h526zM510 918v135q-153 -16 -211.5 -52.5t-58.5 -89.5
q0 -37 23.5 -58.5t64.5 -21.5q92 0 182 87z" />
    <glyph glyph-name="guillemotleft" unicode="&#xab;" 
d="M985 977l-299 -488l289 -466l-156 -33l-330 499l326 488h170zM569 977l-299 -488l287 -466l-154 -33l-331 499l325 488h172z" />
    <glyph glyph-name="logicalnot" unicode="&#xac;" horiz-adv-x="1171" 
d="M1061 612h-950v160h950v-160z" />
    <glyph glyph-name="registered" unicode="&#xae;" horiz-adv-x="1153" 
d="M1040 963q0 -211 -130.5 -343.5t-334.5 -132.5q-206 0 -335 131.5t-129 344.5q0 211 130.5 344t333.5 133q206 0 335.5 -132t129.5 -345zM975 963q0 196 -114 308.5t-286 112.5t-284.5 -112.5t-112.5 -308.5q0 -195 112.5 -307.5t284.5 -112.5q173 0 286.5 112.5
t113.5 307.5zM803 729l-90 -20l-158 225h-51v-217h-90v526h159q85 0 135 -40.5t50 -112.5q0 -56 -28 -93.5t-79 -52.5zM666 1083q0 38 -24 58t-69 20h-69v-155h65q97 0 97 77z" />
    <glyph glyph-name="macron" unicode="&#xaf;" horiz-adv-x="929" 
d="M717 1178h-504v147h504v-147z" />
    <glyph glyph-name="degree" unicode="&#xb0;" horiz-adv-x="874" 
d="M778 1053q0 -149 -95.5 -244.5t-246.5 -95.5q-149 0 -245.5 95.5t-96.5 244.5t96.5 246.5t245.5 97.5q150 0 246 -97t96 -247zM639 1053q0 91 -58 152t-145 61q-86 0 -144.5 -61t-58.5 -152t58 -150t145 -59q88 0 145.5 58.5t57.5 150.5z" />
    <glyph glyph-name="plusminus" unicode="&#xb1;" horiz-adv-x="1206" 
d="M1155 313h-221v-313h-170v313h-692v136l647 946l174 -39l-617 -889h488v354l170 37v-391h221v-154z" />
    <glyph glyph-name="twosuperior" unicode="&#xb2;" horiz-adv-x="1024" 
d="M51 -410v2048h922v-2048h-922z" />
    <glyph glyph-name="threesuperior" unicode="&#xb3;" horiz-adv-x="1024" 
d="M51 -410v2048h922v-2048h-922z" />
    <glyph glyph-name="acute" unicode="&#xb4;" horiz-adv-x="929" 
d="M678 1380l-275 -260h-122l176 310z" />
    <glyph glyph-name="mu" unicode="&#xb5;" horiz-adv-x="1171" 
d="M918 250l-334 338l-334 -338l-107 106l338 334l-338 334l111 111l334 -338l334 338l106 -107l-338 -334l338 -334z" />
    <glyph glyph-name="paragraph" unicode="&#xb6;" horiz-adv-x="1097" 
d="M928 0h-164v1247h-143v-295l-68 -407q-226 8 -353.5 116t-127.5 310q0 196 129.5 304.5t355.5 108.5h371v-1384z" />
    <glyph glyph-name="periodcentered" unicode="&#xb7;" horiz-adv-x="464" 
d="M334 459h-203v243h203v-243z" />
    <glyph glyph-name="cedilla" unicode="&#xb8;" horiz-adv-x="929" 
d="M627 -152l-252 -221h-123l156 273z" />
    <glyph glyph-name="onesuperior" unicode="&#xb9;" horiz-adv-x="1024" 
d="M51 -410v2048h922v-2048h-922z" />
    <glyph glyph-name="ordmasculine" unicode="&#xba;" horiz-adv-x="788" 
d="M696 1055q0 -157 -84 -246.5t-219 -89.5q-132 0 -216.5 90t-84.5 246q0 158 84.5 249t216.5 91q135 0 219 -91t84 -249zM680 457h-565v121h544zM555 1055q0 97 -42 159t-120 62q-79 0 -119.5 -61t-40.5 -160q0 -96 41.5 -157.5t118.5 -61.5q79 0 120.5 61t41.5 158z" />
    <glyph glyph-name="guillemotright" unicode="&#xbb;" 
d="M1006 487l-326 -487h-170l299 487l-289 467l156 33zM590 487l-326 -487h-172l301 487l-289 467l154 33z" />
    <glyph glyph-name="onequarter" unicode="&#xbc;" horiz-adv-x="1024" 
d="M51 -410v2048h922v-2048h-922z" />
    <glyph glyph-name="onehalf" unicode="&#xbd;" horiz-adv-x="1024" 
d="M51 -410v2048h922v-2048h-922z" />
    <glyph glyph-name="threequarters" unicode="&#xbe;" horiz-adv-x="1024" 
d="M51 -410v2048h922v-2048h-922z" />
    <glyph glyph-name="questiondown" unicode="&#xbf;" horiz-adv-x="1060" 
d="M684 1169h-205v244h205v-244zM971 125q-207 -152 -439 -152q-189 0 -304 98.5t-115 264.5q0 65 18 119t48.5 95t82.5 79.5t106.5 68t135.5 66.5l18 203l119 26l27 -338l-84 -34q-152 -63 -215.5 -122.5t-63.5 -154.5q0 -92 66.5 -144.5t171.5 -52.5q112 0 208 43.5
t193 122.5z" />
    <glyph glyph-name="Agrave" unicode="&#xc0;" horiz-adv-x="1409" 
d="M1350 27l-187 -41l-166 438h-583l-160 -424h-195l553 1419h193zM932 594l-227 596l-226 -596h453zM764 1530h-123l-274 260l221 49z" />
    <glyph glyph-name="Aacute" unicode="&#xc1;" horiz-adv-x="1409" 
d="M1051 1790l-275 -260h-123l176 309zM1350 27l-187 -41l-166 438h-583l-160 -424h-195l553 1419h193zM932 594l-227 596l-226 -596h453z" />
    <glyph glyph-name="Acircumflex" unicode="&#xc2;" horiz-adv-x="1409" 
d="M1350 27l-187 -41l-166 438h-583l-160 -424h-195l553 1419h193zM932 594l-227 596l-226 -596h453zM983 1526l-100 -21l-181 152l-174 -146h-114l204 289h173z" />
    <glyph glyph-name="Atilde" unicode="&#xc3;" horiz-adv-x="1409" 
d="M1350 27l-187 -41l-166 438h-583l-160 -424h-195l553 1419h193zM932 594l-227 596l-226 -596h453zM1020 1769q-27 -233 -168 -233q-36 0 -66.5 11t-78.5 36q-59 31 -85 41t-49 10q-24 0 -38.5 -22t-26.5 -82l-119 24q27 234 168 234q36 0 66.5 -11t78.5 -36
q59 -31 85 -41t49 -10q24 0 38.5 22.5t26.5 81.5z" />
    <glyph glyph-name="Adieresis" unicode="&#xc4;" horiz-adv-x="1409" 
d="M1350 27l-187 -41l-166 438h-583l-160 -424h-195l553 1419h193zM932 594l-227 596l-226 -596h453zM989 1538h-203v207h203v-207zM623 1538h-203v207h203v-207z" />
    <glyph glyph-name="Aring" unicode="&#xc5;" horiz-adv-x="1409" 
d="M1350 27l-187 -41l-166 438h-583l-160 -424h-195l553 1419h193zM932 594l-227 596l-226 -596h453zM918 1735q0 -92 -60 -150.5t-153 -58.5t-153 58.5t-60 150.5q0 91 60.5 152t152.5 61t152.5 -61t60.5 -152zM821 1735q0 53 -32.5 88t-83.5 35t-84 -35t-33 -88t33 -87
t84 -34t83.5 34t32.5 87z" />
    <glyph glyph-name="AE" unicode="&#xc6;" horiz-adv-x="1804" 
d="M1729 0h-785v424h-489l-242 -424h-207l821 1413h881v-176h-573v-410h446l27 -176h-473v-475h594v-176zM944 594v676l-389 -676h389z" />
    <glyph glyph-name="Ccedilla" unicode="&#xc7;" horiz-adv-x="1323" 
d="M1194 111q-85 -62 -198 -100t-230 -38q-296 0 -474.5 201.5t-178.5 530.5q0 217 81 384t230.5 259t345.5 92q229 0 401 -117l-28 -197q-180 138 -375 138q-214 0 -335.5 -150t-121.5 -407q0 -256 122 -405.5t335 -149.5q203 0 397 141zM877 -170l-252 -221h-123l155 272z
" />
    <glyph glyph-name="Egrave" unicode="&#xc8;" horiz-adv-x="1028" 
d="M952 0h-782v1413h762v-176h-570v-410h443l29 -176h-472v-475h590v-176zM649 1530h-123l-274 260l221 49z" />
    <glyph glyph-name="Eacute" unicode="&#xc9;" horiz-adv-x="1028" 
d="M952 0h-782v1413h762v-176h-570v-410h443l29 -176h-472v-475h590v-176zM809 1790l-274 -260h-123l176 309z" />
    <glyph glyph-name="Ecircumflex" unicode="&#xca;" horiz-adv-x="1028" 
d="M952 0h-782v1413h762v-176h-570v-410h443l29 -176h-472v-475h590v-176zM815 1544l-100 -20l-180 151l-175 -145h-114l205 289h172z" />
    <glyph glyph-name="Edieresis" unicode="&#xcb;" horiz-adv-x="1028" 
d="M952 0h-782v1413h762v-176h-570v-410h443l29 -176h-472v-475h590v-176zM821 1538h-203v207h203v-207zM455 1538h-203v207h203v-207z" />
    <glyph glyph-name="Igrave" unicode="&#xcc;" horiz-adv-x="557" 
d="M375 0h-193v1413h193v-1413zM342 1530h-123l-274 260l221 49z" />
    <glyph glyph-name="Iacute" unicode="&#xcd;" horiz-adv-x="557" 
d="M612 1790l-274 -260h-123l176 309zM375 0h-193v1413h193v-1413z" />
    <glyph glyph-name="Icircumflex" unicode="&#xce;" horiz-adv-x="557" 
d="M375 0h-193v1413h193v-1413zM557 1526l-100 -21l-181 152l-174 -146h-114l205 289h172z" />
    <glyph glyph-name="Idieresis" unicode="&#xcf;" horiz-adv-x="557" 
d="M375 0h-193v1413h193v-1413zM563 1538h-203v207h203v-207zM197 1538h-203v207h203v-207z" />
    <glyph glyph-name="Eth" unicode="&#xd0;" horiz-adv-x="1484" 
d="M1368 709q0 -158 -50 -288t-144 -224t-236.5 -145.5t-321.5 -51.5h-399v653h-151l-29 172h180v588h410q181 0 323 -51.5t233 -145.5t138 -222.5t47 -284.5zM1171 707q0 259 -144.5 395.5t-393.5 136.5h-225v-414h352v-172h-352v-479h219q259 0 401.5 134t142.5 399z" />
    <glyph glyph-name="Ntilde" unicode="&#xd1;" horiz-adv-x="1439" 
d="M1270 0h-146l-776 1100v-1100h-178v1413h172l750 -1059v1059h178v-1413zM1038 1733q-27 -234 -168 -234q-36 0 -66.5 11t-78.5 36q-60 31 -85 41t-48 10q-24 0 -39 -22.5t-27 -81.5l-118 25q27 233 167 233q37 0 67.5 -11t78.5 -36q60 -31 85 -41t48 -10q24 0 39 23
t27 81z" />
    <glyph glyph-name="Ograve" unicode="&#xd2;" horiz-adv-x="1527" 
d="M1415 709q0 -329 -178 -532.5t-475 -203.5q-196 0 -343.5 92t-226.5 257.5t-79 382.5q0 330 178.5 532.5t474.5 202.5q297 0 473 -201t176 -530zM1217 707q0 256 -122 406.5t-331 150.5q-210 0 -331.5 -150.5t-121.5 -406.5t122 -406.5t331 -150.5q210 0 331.5 150.5
t121.5 406.5zM854 1548h-123l-274 260l221 50z" />
    <glyph glyph-name="Oacute" unicode="&#xd3;" horiz-adv-x="1527" 
d="M1049 1808l-275 -260h-123l176 310zM1415 709q0 -329 -178 -532.5t-475 -203.5q-196 0 -343.5 92t-226.5 257.5t-79 382.5q0 330 178.5 532.5t474.5 202.5q297 0 473 -201t176 -530zM1217 707q0 256 -122 406.5t-331 150.5q-210 0 -331.5 -150.5t-121.5 -406.5
t122 -406.5t331 -150.5q210 0 331.5 150.5t121.5 406.5z" />
    <glyph glyph-name="Ocircumflex" unicode="&#xd4;" horiz-adv-x="1527" 
d="M1415 709q0 -329 -178 -532.5t-475 -203.5q-196 0 -343.5 92t-226.5 257.5t-79 382.5q0 330 178.5 532.5t474.5 202.5q297 0 473 -201t176 -530zM1217 707q0 256 -122 406.5t-331 150.5q-210 0 -331.5 -150.5t-121.5 -406.5t122 -406.5t331 -150.5q210 0 331.5 150.5
t121.5 406.5zM1040 1554l-100 -20l-180 152l-174 -146h-115l205 289h172z" />
    <glyph glyph-name="Otilde" unicode="&#xd5;" horiz-adv-x="1527" 
d="M1415 709q0 -329 -178 -532.5t-475 -203.5q-196 0 -343.5 92t-226.5 257.5t-79 382.5q0 330 178.5 532.5t474.5 202.5q297 0 473 -201t176 -530zM1217 707q0 256 -122 406.5t-331 150.5q-210 0 -331.5 -150.5t-121.5 -406.5t122 -406.5t331 -150.5q210 0 331.5 150.5
t121.5 406.5zM1077 1798q-27 -233 -168 -233q-36 0 -66.5 11t-78.5 36q-60 31 -85 41t-48 10q-24 0 -39 -22.5t-27 -81.5l-119 24q27 234 168 234q36 0 66.5 -11t79.5 -37q60 -31 85 -41t48 -10q24 0 38.5 23t26.5 82z" />
    <glyph glyph-name="Odieresis" unicode="&#xd6;" horiz-adv-x="1527" 
d="M1415 709q0 -329 -178 -532.5t-475 -203.5q-196 0 -343.5 92t-226.5 257.5t-79 382.5q0 330 178.5 532.5t474.5 202.5q297 0 473 -201t176 -530zM1217 707q0 256 -122 406.5t-331 150.5q-210 0 -331.5 -150.5t-121.5 -406.5t122 -406.5t331 -150.5q210 0 331.5 150.5
t121.5 406.5zM1047 1556h-203v207h203v-207zM680 1556h-203v207h203v-207z" />
    <glyph glyph-name="multiply" unicode="&#xd7;" horiz-adv-x="1024" 
d="M51 -410v2048h922v-2048h-922z" />
    <glyph glyph-name="Oslash" unicode="&#xd8;" horiz-adv-x="1527" 
d="M1423 1395l-157 -193q149 -191 149 -493q0 -329 -178 -532.5t-475 -203.5q-226 0 -389 125l-97 -116l-167 36l153 191q-149 198 -149 496q0 330 178.5 532.5t474.5 202.5q228 0 391 -125l94 117zM1042 1174q-114 94 -278 94q-211 0 -334 -152t-123 -409q0 -201 80 -345z
M1223 707q0 201 -78 344l-658 -811q112 -95 277 -95q212 0 335.5 152.5t123.5 409.5z" />
    <glyph glyph-name="Ugrave" unicode="&#xd9;" horiz-adv-x="1411" 
d="M1255 545q0 -267 -148 -419.5t-405 -152.5q-255 0 -400.5 151.5t-145.5 410.5v878h192v-854q0 -191 88.5 -300t265.5 -109q178 0 269.5 104.5t91.5 298.5v860h192v-868zM809 1485h-123l-274 260l221 49z" />
    <glyph glyph-name="Uacute" unicode="&#xda;" horiz-adv-x="1411" 
d="M999 1745l-274 -260h-123l176 309zM1255 545q0 -267 -148 -419.5t-405 -152.5q-255 0 -400.5 151.5t-145.5 410.5v878h192v-854q0 -191 88.5 -300t265.5 -109q178 0 269.5 104.5t91.5 298.5v860h192v-868z" />
    <glyph glyph-name="Ucircumflex" unicode="&#xdb;" horiz-adv-x="1411" 
d="M1255 545q0 -267 -148 -419.5t-405 -152.5q-255 0 -400.5 151.5t-145.5 410.5v878h192v-854q0 -191 88.5 -300t265.5 -109q178 0 269.5 104.5t91.5 298.5v860h192v-868zM985 1507l-100 -20l-180 151l-175 -145h-114l205 289h172z" />
    <glyph glyph-name="Udieresis" unicode="&#xdc;" horiz-adv-x="1411" 
d="M1255 545q0 -267 -148 -419.5t-405 -152.5q-255 0 -400.5 151.5t-145.5 410.5v878h192v-854q0 -191 88.5 -300t265.5 -109q178 0 269.5 104.5t91.5 298.5v860h192v-868zM991 1501h-203v207h203v-207zM625 1501h-203v207h203v-207z" />
    <glyph glyph-name="Yacute" unicode="&#xdd;" horiz-adv-x="1302" 
d="M1257 1413l-514 -852v-561h-192v561l-500 825l193 41l405 -690l395 676h213zM956 1735l-274 -260h-123l176 309z" />
    <glyph glyph-name="Thorn" unicode="&#xde;" horiz-adv-x="1097" 
d="M1024 735q0 -211 -137.5 -321.5t-374.5 -110.5h-150v-303h-192v1413h192v-270h183q226 0 352.5 -106.5t126.5 -301.5zM829 729q0 244 -294 244h-173v-500h160q148 0 227.5 63.5t79.5 192.5z" />
    <glyph glyph-name="germandbls" unicode="&#xdf;" horiz-adv-x="1253" 
d="M1182 293q0 -152 -96 -232.5t-259 -80.5q-172 0 -309 83l29 170q150 -102 293 -102q76 0 123 40t47 108q0 37 -6.5 64.5t-32 62.5t-70.5 63t-127.5 58.5t-198.5 56.5l-20 143q168 220 168 389q0 90 -45 139.5t-123 49.5q-84 0 -130 -54.5t-46 -148.5v-1102h-182v823h-146
v154h146v104q0 182 95.5 280.5t258.5 98.5q168 0 261 -86.5t93 -249.5q0 -110 -49 -206.5t-143 -212.5q247 -59 358 -155.5t111 -256.5z" />
    <glyph glyph-name="agrave" unicode="&#xe0;" horiz-adv-x="1021" 
d="M883 0h-148l-20 131q-147 -151 -344 -151q-132 0 -209.5 73.5t-77.5 198.5q0 177 148.5 263t467.5 120v41q0 166 -186 166q-149 0 -338 -84l-24 157q101 41 187 61.5t191 20.5q180 0 266.5 -75.5t86.5 -237.5v-684zM700 268v228q-105 -10 -183.5 -28.5t-126 -40
t-76.5 -50t-39.5 -56t-10.5 -59.5q0 -60 39 -95.5t107 -35.5q156 0 290 137zM586 1120h-123l-275 260l222 50z" />
    <glyph glyph-name="aacute" unicode="&#xe1;" horiz-adv-x="1021" 
d="M883 0h-148l-20 131q-147 -151 -344 -151q-132 0 -209.5 73.5t-77.5 198.5q0 177 148.5 263t467.5 120v41q0 166 -186 166q-149 0 -338 -84l-24 157q101 41 187 61.5t191 20.5q180 0 266.5 -75.5t86.5 -237.5v-684zM700 268v228q-105 -10 -183.5 -28.5t-126 -40
t-76.5 -50t-39.5 -56t-10.5 -59.5q0 -60 39 -95.5t107 -35.5q156 0 290 137zM809 1380l-274 -260h-123l176 310z" />
    <glyph glyph-name="acircumflex" unicode="&#xe2;" horiz-adv-x="1021" 
d="M883 0h-148l-20 131q-147 -151 -344 -151q-132 0 -209.5 73.5t-77.5 198.5q0 177 148.5 263t467.5 120v41q0 166 -186 166q-149 0 -338 -84l-24 157q101 41 187 61.5t191 20.5q180 0 266.5 -75.5t86.5 -237.5v-684zM700 268v228q-105 -10 -183.5 -28.5t-126 -40
t-76.5 -50t-39.5 -56t-10.5 -59.5q0 -60 39 -95.5t107 -35.5q156 0 290 137zM778 1135l-100 -21l-180 152l-174 -146h-115l205 289h172z" />
    <glyph glyph-name="atilde" unicode="&#xe3;" horiz-adv-x="1021" 
d="M883 0h-148l-20 131q-147 -151 -344 -151q-132 0 -209.5 73.5t-77.5 198.5q0 177 148.5 263t467.5 120v41q0 166 -186 166q-149 0 -338 -84l-24 157q101 41 187 61.5t191 20.5q180 0 266.5 -75.5t86.5 -237.5v-684zM700 268v228q-105 -10 -183.5 -28.5t-126 -40
t-76.5 -50t-39.5 -56t-10.5 -59.5q0 -60 39 -95.5t107 -35.5q156 0 290 137zM825 1360q-27 -234 -168 -234q-36 0 -65.5 11t-79.5 37q-60 31 -85 41t-48 10q-24 0 -39 -22.5t-27 -82.5l-118 25q27 233 167 233q37 0 67.5 -11t78.5 -36q60 -31 85 -41t48 -10q24 0 39 23
t27 81z" />
    <glyph glyph-name="adieresis" unicode="&#xe4;" horiz-adv-x="1021" 
d="M883 0h-148l-20 131q-147 -151 -344 -151q-132 0 -209.5 73.5t-77.5 198.5q0 177 148.5 263t467.5 120v41q0 166 -186 166q-149 0 -338 -84l-24 157q101 41 187 61.5t191 20.5q180 0 266.5 -75.5t86.5 -237.5v-684zM700 268v228q-105 -10 -183.5 -28.5t-126 -40
t-76.5 -50t-39.5 -56t-10.5 -59.5q0 -60 39 -95.5t107 -35.5q156 0 290 137zM797 1128h-203v207h203v-207zM430 1128h-203v207h203v-207z" />
    <glyph glyph-name="aring" unicode="&#xe5;" horiz-adv-x="1021" 
d="M883 0h-148l-20 131q-147 -151 -344 -151q-132 0 -209.5 73.5t-77.5 198.5q0 177 148.5 263t467.5 120v41q0 166 -186 166q-149 0 -338 -84l-24 157q101 41 187 61.5t191 20.5q180 0 266.5 -75.5t86.5 -237.5v-684zM700 268v228q-105 -10 -183.5 -28.5t-126 -40
t-76.5 -50t-39.5 -56t-10.5 -59.5q0 -60 39 -95.5t107 -35.5q156 0 290 137zM713 1325q0 -92 -60 -150.5t-153 -58.5t-153 58.5t-60 150.5q0 91 60.5 152t152.5 61t152.5 -61t60.5 -152zM616 1325q0 53 -32.5 88t-83.5 35t-84 -35t-33 -88t33 -87t84 -34t83.5 34t32.5 87z
" />
    <glyph glyph-name="ae" unicode="&#xe6;" horiz-adv-x="1617" 
d="M1528 508v-39h-664q6 -166 81 -250t204 -84q100 0 182.5 35t169.5 104l25 -163q-163 -131 -389 -131q-232 0 -355 155q-170 -155 -379 -155q-144 0 -231.5 70.5t-87.5 201.5q0 169 144 258.5t454 122.5v43q0 90 -40.5 128t-127.5 38q-149 0 -338 -84l-24 157
q101 41 184.5 61.5t179.5 20.5q126 0 194.5 -31t108.5 -106q109 137 295 137q138 0 233 -67t138 -175t43 -247zM1343 606q-31 248 -231 248q-89 0 -153.5 -63.5t-84.5 -184.5h469zM717 260q-35 115 -35 232v2q-100 -11 -175.5 -29.5t-121 -40t-73.5 -49.5t-38 -54.5
t-10 -58.5q0 -62 44 -96.5t120 -34.5q151 0 289 129z" />
    <glyph glyph-name="ccedilla" unicode="&#xe7;" horiz-adv-x="960" 
d="M877 84q-137 -104 -334 -104q-202 0 -328.5 134t-126.5 373q0 122 36 220t98.5 160.5t145.5 96t179 33.5q193 0 319 -90l-26 -178q-133 109 -295 109q-123 0 -198 -91.5t-75 -257.5q0 -173 79.5 -261.5t213.5 -88.5q79 0 146.5 24t138.5 85zM682 -170l-252 -221h-123
l156 272z" />
    <glyph glyph-name="egrave" unicode="&#xe8;" horiz-adv-x="1021" 
d="M934 508v-39h-664q4 -166 79 -250t206 -84q99 0 181 35t169 104l27 -163q-166 -131 -391 -131q-97 0 -178 30.5t-143.5 91t-97 160t-34.5 230.5q0 231 121 368t309 137q138 0 233.5 -67t139 -175t43.5 -247zM750 606q-36 248 -234 248q-88 0 -152 -63t-85 -185h471z
M590 1120h-123l-274 260l221 50z" />
    <glyph glyph-name="eacute" unicode="&#xe9;" horiz-adv-x="1021" 
d="M934 508v-39h-664q4 -166 79 -250t206 -84q99 0 181 35t169 104l27 -163q-166 -131 -391 -131q-97 0 -178 30.5t-143.5 91t-97 160t-34.5 230.5q0 231 121 368t309 137q138 0 233.5 -67t139 -175t43.5 -247zM750 606q-36 248 -234 248q-88 0 -152 -63t-85 -185h471z
M823 1380l-274 -260h-123l176 310z" />
    <glyph glyph-name="ecircumflex" unicode="&#xea;" horiz-adv-x="1021" 
d="M934 508v-39h-664q4 -166 79 -250t206 -84q99 0 181 35t169 104l27 -163q-166 -131 -391 -131q-97 0 -178 30.5t-143.5 91t-97 160t-34.5 230.5q0 231 121 368t309 137q138 0 233.5 -67t139 -175t43.5 -247zM750 606q-36 248 -234 248q-88 0 -152 -63t-85 -185h471z
M795 1135l-101 -21l-180 152l-174 -146h-115l205 289h172z" />
    <glyph glyph-name="edieresis" unicode="&#xeb;" horiz-adv-x="1021" 
d="M934 508v-39h-664q4 -166 79 -250t206 -84q99 0 181 35t169 104l27 -163q-166 -131 -391 -131q-97 0 -178 30.5t-143.5 91t-97 160t-34.5 230.5q0 231 121 368t309 137q138 0 233.5 -67t139 -175t43.5 -247zM750 606q-36 248 -234 248q-88 0 -152 -63t-85 -185h471z
M801 1128h-203v207h203v-207zM434 1128h-203v207h203v-207z" />
    <glyph glyph-name="igrave" unicode="&#xec;" horiz-adv-x="497" 
d="M319 1120h-104l-233 260l188 50zM348 0h-182v977h182v-977z" />
    <glyph glyph-name="iacute" unicode="&#xed;" horiz-adv-x="497" 
d="M532 1380l-233 -260h-104l149 310zM348 0h-182v977h182v-977z" />
    <glyph glyph-name="icircumflex" unicode="&#xee;" horiz-adv-x="497" 
d="M506 1135l-92 -21l-162 152l-156 -146h-104l184 289h156zM348 0h-182v977h182v-977z" />
    <glyph glyph-name="idieresis" unicode="&#xef;" horiz-adv-x="497" 
d="M504 1128h-182v207h182v-207zM178 1128h-182v207h182v-207zM348 0h-182v977h182v-977z" />
    <glyph glyph-name="eth" unicode="&#xf0;" horiz-adv-x="1103" 
d="M1008 610q0 -169 -45 -298t-125 -210q-119 -122 -308 -122q-196 0 -319 123t-123 331q0 206 122 346t304 140q161 0 293 -93q-40 183 -168 314l-70 -103h-163l122 189q-98 60 -235 100l24 152q173 -44 299 -119l80 119l158 -29l-119 -172q273 -238 273 -668zM829 649
q-133 119 -288 119q-122 0 -195.5 -89t-73.5 -233t73 -229.5t200 -85.5q129 0 207.5 126t78.5 333q0 41 -2 59z" />
    <glyph glyph-name="ntilde" unicode="&#xf1;" 
d="M940 0h-182v666q0 79 -36.5 123.5t-113.5 44.5q-134 0 -282 -158v-676h-183v977h146l22 -141q176 161 346 161q136 0 209.5 -76t73.5 -210v-711zM862 1360q-27 -234 -168 -234q-36 0 -65.5 11t-79.5 37q-60 31 -85 41t-48 10q-24 0 -39 -22.5t-27 -82.5l-119 25
q27 233 168 233q37 0 67.5 -11t78.5 -36q60 -31 85 -41t48 -10q24 0 38.5 22.5t26.5 81.5z" />
    <glyph glyph-name="ograve" unicode="&#xf2;" 
d="M991 487q0 -236 -126.5 -371.5t-327.5 -135.5q-200 0 -324.5 135t-124.5 372t125 373.5t324 136.5q201 0 327.5 -136.5t126.5 -373.5zM807 487q0 157 -71 257t-199 100t-196.5 -98.5t-68.5 -258.5q0 -156 70 -256t195 -100q131 0 200.5 98t69.5 258zM606 1120h-123
l-274 260l221 50z" />
    <glyph glyph-name="oacute" unicode="&#xf3;" 
d="M862 1380l-274 -260h-123l176 310zM991 487q0 -236 -126.5 -371.5t-327.5 -135.5q-200 0 -324.5 135t-124.5 372t125 373.5t324 136.5q201 0 327.5 -136.5t126.5 -373.5zM807 487q0 157 -71 257t-199 100t-196.5 -98.5t-68.5 -258.5q0 -156 70 -256t195 -100
q131 0 200.5 98t69.5 258z" />
    <glyph glyph-name="ocircumflex" unicode="&#xf4;" 
d="M991 487q0 -236 -126.5 -371.5t-327.5 -135.5q-200 0 -324.5 135t-124.5 372t125 373.5t324 136.5q201 0 327.5 -136.5t126.5 -373.5zM807 487q0 157 -71 257t-199 100t-196.5 -98.5t-68.5 -258.5q0 -156 70 -256t195 -100q131 0 200.5 98t69.5 258zM815 1135l-100 -21
l-180 152l-175 -146h-114l205 289h172z" />
    <glyph glyph-name="otilde" unicode="&#xf5;" 
d="M991 487q0 -236 -126.5 -371.5t-327.5 -135.5q-200 0 -324.5 135t-124.5 372t125 373.5t324 136.5q201 0 327.5 -136.5t126.5 -373.5zM807 487q0 157 -71 257t-199 100t-196.5 -98.5t-68.5 -258.5q0 -156 70 -256t195 -100q131 0 200.5 98t69.5 258zM850 1360
q-27 -234 -168 -234q-36 0 -65.5 11t-79.5 37q-59 31 -85 41t-49 10q-24 0 -38.5 -22.5t-26.5 -82.5l-119 25q27 233 168 233q36 0 66.5 -11t78.5 -36q59 -31 85 -41t49 -10q24 0 38.5 22.5t26.5 81.5z" />
    <glyph glyph-name="odieresis" unicode="&#xf6;" 
d="M991 487q0 -236 -126.5 -371.5t-327.5 -135.5q-200 0 -324.5 135t-124.5 372t125 373.5t324 136.5q201 0 327.5 -136.5t126.5 -373.5zM807 487q0 157 -71 257t-199 100t-196.5 -98.5t-68.5 -258.5q0 -156 70 -256t195 -100q131 0 200.5 98t69.5 258zM819 1128h-203v207
h203v-207zM453 1128h-203v207h203v-207z" />
    <glyph glyph-name="divide" unicode="&#xf7;" horiz-adv-x="1171" 
d="M686 956h-201v220h201v-220zM1061 616h-950v152h950v-152zM686 209h-201v219h201v-219z" />
    <glyph glyph-name="oslash" unicode="&#xf8;" 
d="M1001 961l-106 -138q96 -132 96 -336q0 -236 -126.5 -371.5t-327.5 -135.5q-143 0 -252 73l-56 -69l-151 32l106 136q-96 129 -96 335q0 237 125 373.5t324 136.5q145 0 258 -75l55 71zM694 797q-62 53 -157 53q-131 0 -201 -100t-70 -263q0 -111 33 -190zM778 678
l-395 -500q63 -51 154 -51q133 0 204.5 99t71.5 261q0 107 -35 191z" />
    <glyph glyph-name="ugrave" unicode="&#xf9;" 
d="M936 0h-145l-23 141q-172 -161 -346 -161q-137 0 -210 76t-73 210v711h183v-666q0 -79 36.5 -123.5t112.5 -44.5q135 0 283 158v676h182v-977zM594 1120h-123l-274 260l221 50z" />
    <glyph glyph-name="uacute" unicode="&#xfa;" 
d="M936 0h-145l-23 141q-172 -161 -346 -161q-137 0 -210 76t-73 210v711h183v-666q0 -79 36.5 -123.5t112.5 -44.5q135 0 283 158v676h182v-977zM829 1380l-274 -260h-123l176 310z" />
    <glyph glyph-name="ucircumflex" unicode="&#xfb;" 
d="M936 0h-145l-23 141q-172 -161 -346 -161q-137 0 -210 76t-73 210v711h183v-666q0 -79 36.5 -123.5t112.5 -44.5q135 0 283 158v676h182v-977zM817 1135l-100 -21l-180 152l-175 -146h-114l205 289h172z" />
    <glyph glyph-name="udieresis" unicode="&#xfc;" 
d="M936 0h-145l-23 141q-172 -161 -346 -161q-137 0 -210 76t-73 210v711h183v-666q0 -79 36.5 -123.5t112.5 -44.5q135 0 283 158v676h182v-977zM827 1128h-202v207h202v-207zM461 1128h-203v207h203v-207z" />
    <glyph glyph-name="yacute" unicode="&#xfd;" horiz-adv-x="989" 
d="M942 977l-393 -1063q-60 -163 -141 -225t-209 -62q-28 0 -64 8l-24 160q54 -14 102 -14q113 0 156 115l37 100l-357 967l180 28l267 -778l260 764h186zM817 1362l-274 -260h-123l176 309z" />
    <glyph glyph-name="thorn" unicode="&#xfe;" horiz-adv-x="1101" 
d="M1014 516q0 -130 -35.5 -232.5t-97 -166t-140.5 -96.5t-170 -33q-140 0 -245 43v-385l-183 -27v1831l183 29v-627q137 145 303 145q80 0 149 -30t122 -88t83.5 -151t30.5 -212zM829 508q0 156 -63 242t-166 86q-145 0 -274 -172v-469q108 -54 231 -54q125 0 198.5 95
t73.5 272z" />
    <glyph glyph-name="ydieresis" unicode="&#xff;" horiz-adv-x="989" 
d="M942 977l-393 -1063q-60 -163 -141 -225t-209 -62q-28 0 -64 8l-24 160q54 -14 102 -14q113 0 156 115l37 100l-357 967l180 28l267 -778l260 764h186zM778 1128h-203v207h203v-207zM412 1128h-203v207h203v-207z" />
    <glyph glyph-name="dotlessi" unicode="&#x131;" horiz-adv-x="497" 
d="M348 0h-182v977h182v-977z" />
    <glyph glyph-name="Lslash" unicode="&#x141;" horiz-adv-x="1003" 
d="M946 0h-729v637l-151 -33l-29 168l180 39v602h191v-561l325 70v-172l-325 -72v-502h512z" />
    <glyph glyph-name="lslash" unicode="&#x142;" horiz-adv-x="591" 
d="M557 748l-172 -37v-711h-178v674l-156 -35l-26 160l182 39v612l178 29v-605l172 37v-163z" />
    <glyph glyph-name="OE" unicode="&#x152;" horiz-adv-x="1787" 
d="M1710 0h-852q-180 0 -321.5 52t-233 146t-139 222.5t-47.5 284.5q0 158 49.5 288t143.5 223.5t236.5 145t321.5 51.5h822v-176h-568v-410h443l26 -176h-469v-475h588v-176zM932 174v1065h-74q-259 0 -402 -133.5t-143 -398.5q0 -258 146 -395.5t395 -137.5h78z" />
    <glyph glyph-name="oe" unicode="&#x153;" horiz-adv-x="1742" 
d="M1653 508v-39h-664q6 -167 80.5 -250.5t204.5 -83.5q100 0 182.5 35t169.5 104l25 -163q-166 -131 -389 -131q-255 0 -365 196q-119 -196 -360 -196q-200 0 -324.5 135t-124.5 372t125 373.5t324 136.5q256 0 362 -198q115 198 340 198q138 0 233 -67t138 -175t43 -247z
M1468 606q-36 248 -231 248q-90 0 -154 -63t-84 -185h469zM807 487q0 157 -71 257t-199 100t-196.5 -98.5t-68.5 -258.5q0 -156 70 -256t195 -100q131 0 200.5 98t69.5 258z" />
    <glyph glyph-name="Scaron" unicode="&#x160;" horiz-adv-x="1048" 
d="M950 381q0 -181 -123 -289t-323 -108q-221 0 -395 92l28 196q183 -120 371 -120q113 0 182.5 57t69.5 158q0 95 -54.5 150t-216.5 128q-105 48 -170 87.5t-111.5 87.5t-65.5 104.5t-19 132.5q0 169 118.5 271t311.5 102q181 0 321 -80l-30 -193q-139 105 -297 105
q-116 0 -175 -54t-59 -137q0 -82 53.5 -133t215.5 -125q143 -65 219 -121.5t112.5 -130t36.5 -180.5zM819 1837l-205 -289h-172l-192 275l100 20l180 -151l175 145h114z" />
    <glyph glyph-name="scaron" unicode="&#x161;" horiz-adv-x="905" 
d="M825 272q0 -136 -99.5 -214t-285.5 -78q-92 0 -190 27t-166 65l27 172q165 -113 344 -113q94 0 146 34t52 95q0 66 -48 99.5t-183 66.5q-177 44 -249.5 109t-72.5 192q0 119 93.5 194.5t250.5 75.5q176 0 322 -65l-29 -172q-147 84 -297 84q-82 0 -125 -30t-43 -83
q0 -50 44 -81t159 -60q190 -48 270 -116t80 -202zM741 1409l-204 -289h-172l-193 275l100 20l181 -151l174 145h114z" />
    <glyph glyph-name="Ydieresis" unicode="&#x178;" horiz-adv-x="1302" 
d="M1257 1413l-514 -852v-561h-192v561l-500 825l193 41l405 -690l395 676h213zM932 1501h-203v207h203v-207zM565 1501h-203v207h203v-207z" />
    <glyph glyph-name="Zcaron" unicode="&#x17d;" horiz-adv-x="1239" 
d="M1153 0h-1055v143l805 1102h-743l-27 168h1002v-143l-805 -1102h796zM920 1819l-205 -289h-172l-193 274l101 21l180 -152l174 146h115z" />
    <glyph glyph-name="zcaron" unicode="&#x17e;" horiz-adv-x="925" 
d="M852 0h-780v143l546 682h-497l-25 152h731v-143l-548 -682h548zM750 1409l-205 -289h-172l-193 275l101 20l180 -151l174 145h115z" />
    <glyph glyph-name="florin" unicode="&#x192;" horiz-adv-x="782" 
d="M270 928l29 184q25 153 103.5 221t230.5 68q52 0 92 -4v-164q-60 6 -92 6q-69 0 -106 -37t-50 -121l-24 -153h190v-154h-215l-123 -774h-182l123 774h-142l25 154h141z" />
    <glyph glyph-name="circumflex" unicode="&#x2c6;" horiz-adv-x="929" 
d="M743 1135l-100 -21l-180 152l-174 -146h-115l205 289h172z" />
    <glyph glyph-name="caron" unicode="&#x2c7;" horiz-adv-x="929" 
d="M756 1409l-205 -289h-172l-193 275l101 20l180 -151l174 145h115z" />
    <glyph glyph-name="breve" unicode="&#x2d8;" horiz-adv-x="929" 
d="M733 1419q-8 -141 -77.5 -219t-192.5 -78q-112 0 -183 74t-81 207l125 27q9 -156 143 -156q60 0 96 36.5t43 108.5h127z" />
    <glyph glyph-name="dotaccent" unicode="&#x2d9;" horiz-adv-x="929" 
d="M567 1128h-205v207h205v-207z" />
    <glyph glyph-name="ring" unicode="&#x2da;" horiz-adv-x="929" 
d="M678 1325q0 -92 -60 -150.5t-153 -58.5t-153 58.5t-60 150.5q0 91 60.5 152t152.5 61t152.5 -61t60.5 -152zM582 1325q0 53 -33 88t-84 35t-84 -35t-33 -88t33 -87t84 -34t84 34t33 87z" />
    <glyph glyph-name="ogonek" unicode="&#x2db;" horiz-adv-x="929" 
d="M678 -373h-123l-252 221l219 52z" />
    <glyph glyph-name="tilde" unicode="&#x2dc;" horiz-adv-x="929" 
d="M780 1360q-27 -234 -168 -234q-36 0 -65.5 11t-79.5 37q-60 31 -85 41t-48 10q-24 0 -39 -22.5t-27 -82.5l-118 25q27 233 167 233q37 0 67.5 -11t78.5 -36q60 -31 85 -41t48 -10q24 0 39 23t27 81z" />
    <glyph glyph-name="hungarumlaut" unicode="&#x2dd;" horiz-adv-x="929" 
d="M807 1384l-264 -256h-109l172 302zM485 1384l-264 -256h-108l172 302z" />
    <glyph glyph-name="Delta" unicode="&#x394;" horiz-adv-x="1024" 
d="M51 -410v2048h922v-2048h-922z" />
    <glyph glyph-name="Omega" unicode="&#x3a9;" horiz-adv-x="1271" 
d="M1243 1290q-40 8 -96 8q-133 0 -133 -124v-197h194l25 -154h-219v-823h-178v823h-148v154h148v215q0 139 81 203.5t222 64.5q21 0 46 -2t32 -2zM606 1290q-40 8 -94 8q-135 0 -135 -124v-197h196l23 -154h-219v-823h-178v823h-148v154h148v215q0 139 81.5 203.5
t221.5 64.5q21 0 46 -2t32 -2z" />
    <glyph glyph-name="pi" unicode="&#x3c0;" horiz-adv-x="1636" 
d="M1526 709q0 -215 -89.5 -383t-251 -260.5t-368.5 -92.5q-315 0 -510.5 202.5t-195.5 529.5q0 216 89.5 383.5t250.5 259.5t368 92q208 0 369 -91.5t249.5 -257.5t88.5 -382zM1436 707q0 155 -47.5 281t-131 208t-196 126t-242.5 44q-132 0 -245 -44t-196 -126
t-130 -207.5t-47 -281.5q0 -155 47.5 -281t131 -208.5t196 -126.5t243.5 -44q132 0 244.5 44t195.5 126.5t130 208t47 281.5zM1116 864q0 -125 -81 -191.5t-222 -66.5h-80v-299h-137v807h231q133 0 211 -67t78 -183zM979 860q0 63 -41.5 97t-116.5 34h-88v-264h84
q76 0 119 34t43 99z" />
    <glyph glyph-name="endash" unicode="&#x2013;" horiz-adv-x="929" 
d="M819 496h-708v172h708v-172z" />
    <glyph glyph-name="emdash" unicode="&#x2014;" horiz-adv-x="1859" 
d="M1749 498h-1638v168h1638v-168z" />
    <glyph glyph-name="quoteleft" unicode="&#x2018;" horiz-adv-x="464" 
d="M358 1405l-59 -453h-211l168 478z" />
    <glyph glyph-name="quoteright" unicode="&#x2019;" horiz-adv-x="464" 
d="M377 1413l-168 -477l-103 25l60 452h211z" />
    <glyph glyph-name="quotesinglbase" unicode="&#x201a;" horiz-adv-x="464" 
d="M362 244l-167 -477l-103 24l60 453h210z" />
    <glyph glyph-name="quotedblleft" unicode="&#x201c;" horiz-adv-x="837" 
d="M358 1405l-59 -453h-211l168 478zM731 1405l-59 -453h-211l168 478z" />
    <glyph glyph-name="quotedblright" unicode="&#x201d;" horiz-adv-x="837" 
d="M377 1413l-168 -477l-103 25l60 452h211zM750 1413l-168 -477l-103 25l60 452h211z" />
    <glyph glyph-name="quotedblbase" unicode="&#x201e;" horiz-adv-x="837" 
d="M362 244l-167 -477l-103 24l60 453h210zM735 244l-168 -477l-102 24l59 453h211z" />
    <glyph glyph-name="dagger" unicode="&#x2020;" horiz-adv-x="1021" 
d="M592 1251l-45 -276h-72l-43 276v162h160v-162zM930 817h-60l-276 43v68l276 45h60v-156zM430 860l-278 -43h-60v156h60l278 -45v-68zM586 35l-43 -268h-64l-43 268v536l39 244h72l39 -244v-536z" />
    <glyph glyph-name="daggerdbl" unicode="&#x2021;" horiz-adv-x="1060" 
d="M610 1251l-45 -276h-69l-45 276v162h159v-162zM948 817h-59l-277 43v68l277 45h59v-156zM449 860l-277 -43h-61v156h61l277 -45v-68zM604 471l-39 -244h-69l-41 244v100l41 244h69l39 -244v-100zM948 70h-59l-277 43v67l277 45h59v-155zM449 113l-277 -43h-61v155h61
l277 -45v-67zM610 -373h-159v162l45 279h69l45 -279v-162z" />
    <glyph glyph-name="bullet" unicode="&#x2022;" horiz-adv-x="862" 
d="M702 707l-38 -252l-232 -37l-231 37l-41 252l41 254l231 34l232 -34z" />
    <glyph glyph-name="ellipsis" unicode="&#x2026;" horiz-adv-x="1486" 
d="M1339 0h-204v244h204v-244zM846 0h-205v244h205v-244zM354 0h-204v244h204v-244z" />
    <glyph glyph-name="perthousand" unicode="&#x2030;" horiz-adv-x="1636" 
d="M1526 709q0 -215 -89.5 -383t-251 -260.5t-368.5 -92.5q-315 0 -510.5 202.5t-195.5 529.5q0 216 89.5 383.5t250.5 259.5t368 92q208 0 369 -91.5t249.5 -257.5t88.5 -382zM1436 707q0 155 -47.5 281t-131 208t-196 126t-242.5 44q-132 0 -245 -44t-196 -126
t-130 -207.5t-47 -281.5q0 -155 47.5 -281t131 -208.5t196 -126.5t243.5 -44q132 0 244.5 44t195.5 126.5t130 208t47 281.5zM936 651l233 -311l-145 -33l-233 320h-84v-310h-138v807h236q132 0 210.5 -65.5t78.5 -181.5q0 -83 -42.5 -141t-115.5 -85zM801 1004h-94v-261h90
q74 0 115.5 33.5t41.5 95.5q0 61 -39.5 96.5t-113.5 35.5z" />
    <glyph glyph-name="guilsinglleft" unicode="&#x2039;" horiz-adv-x="661" 
d="M569 977l-299 -488l287 -466l-154 -33l-331 499l325 488h172z" />
    <glyph glyph-name="guilsinglright" unicode="&#x203a;" horiz-adv-x="661" 
d="M590 487l-326 -487h-172l301 487l-289 467l154 33z" />
    <glyph glyph-name="fraction" unicode="&#x2044;" horiz-adv-x="925" 
d="M1096 1569l-1100 -1790l-158 37l1100 1790z" />
    <glyph glyph-name="trademark" unicode="&#x2122;" horiz-adv-x="1636" 
d="M1524 707h-123l-39 491l-201 -493h-96l-201 493l-41 -491h-118l55 706h145l211 -528l209 528h141zM635 1303h-227v-596h-123v596h-222v110h553z" />
    <glyph glyph-name="partialdiff" unicode="&#x2202;" horiz-adv-x="1538" 
d="M1442 154l-39 -183l-211 166q-178 -164 -432 -164q-196 0 -343.5 92t-226.5 257.5t-79 382.5q0 330 178.5 532.5t474.5 202.5q297 0 473 -201t176 -530q0 -259 -117 -445zM1217 707q0 255 -123 406t-332 151q-210 0 -331.5 -150.5t-121.5 -406.5t122 -406.5t331 -150.5
q171 0 287 96l-330 246l227 47l203 -162q68 133 68 330z" />
    <glyph glyph-name="product" unicode="&#x220f;" horiz-adv-x="1024" 
d="M51 -410v2048h922v-2048h-922z" />
    <glyph glyph-name="summation" unicode="&#x2211;" horiz-adv-x="2086" 
d="M2023 1413l-505 -1419h-172l-306 801l-297 -801h-170l-510 1392l189 41l410 -1171l288 776l-135 354l189 41l430 -1171l389 1157h200z" />
    <glyph glyph-name="minus" unicode="&#x2212;" horiz-adv-x="1024" 
d="M51 -410v2048h922v-2048h-922z" />
    <glyph glyph-name="radical" unicode="&#x221a;" horiz-adv-x="1769" 
d="M1612 0h-182v1450l182 29v-1479zM1243 1290q-40 8 -96 8q-133 0 -133 -124v-197h194l25 -154h-219v-823h-178v823h-148v154h148v215q0 139 81 203.5t222 64.5q21 0 46 -2t32 -2zM606 1290q-40 8 -94 8q-135 0 -135 -124v-197h196l23 -154h-219v-823h-178v823h-148v154
h148v215q0 139 81.5 203.5t221.5 64.5q21 0 46 -2t32 -2z" />
    <glyph glyph-name="infinity" unicode="&#x221e;" horiz-adv-x="1021" 
d="M883 0h-148l-20 131q-147 -151 -344 -151q-132 0 -209.5 73.5t-77.5 198.5q0 177 148.5 263t467.5 120v41q0 166 -186 166q-149 0 -338 -84l-24 157q101 41 187 61.5t191 20.5q180 0 266.5 -75.5t86.5 -237.5v-684zM700 268v228q-105 -10 -183.5 -28.5t-126 -40
t-76.5 -50t-39.5 -56t-10.5 -59.5q0 -60 39 -95.5t107 -35.5q156 0 290 137z" />
    <glyph glyph-name="integral" unicode="&#x222b;" horiz-adv-x="1091" 
d="M948 18q0 -184 -108.5 -287.5t-329.5 -103.5q-193 0 -365 76l27 172q161 -92 350 -92q126 0 185 59.5t59 163.5v125q-133 -133 -293 -133q-167 0 -276 122t-109 351q0 251 130 384.5t349 133.5q179 0 381 -61v-910zM766 319v480q-93 35 -197 35q-144 0 -220.5 -89.5
t-76.5 -267.5q0 -149 63.5 -233t164.5 -84q138 0 266 159z" />
    <glyph glyph-name="approxequal" unicode="&#x2248;" horiz-adv-x="1769" 
d="M1632 1292q0 -46 -32 -78t-78 -32t-79.5 32.5t-33.5 77.5q0 46 33.5 79.5t79.5 33.5q45 0 77.5 -33.5t32.5 -79.5zM1243 1290q-40 8 -96 8q-133 0 -133 -124v-197h194l25 -154h-219v-823h-178v823h-148v154h148v215q0 139 81 203.5t222 64.5q21 0 46 -2t32 -2zM606 1290
q-40 8 -94 8q-135 0 -135 -124v-197h196l23 -154h-219v-823h-178v823h-148v154h148v215q0 139 81.5 203.5t221.5 64.5q21 0 46 -2t32 -2zM1612 0h-182v977h182v-977z" />
    <glyph glyph-name="notequal" unicode="&#x2260;" horiz-adv-x="1052" 
d="M956 401q0 -194 -133.5 -311t-357.5 -117q-107 0 -214 29.5t-181 79.5l30 180q178 -123 375 -123q135 0 214 69t79 191q0 126 -97 188t-278 62h-74l-22 137l395 433h-577l-27 165h838v-143l-414 -446q210 -16 327 -112t117 -282z" />
    <glyph glyph-name="lessequal" unicode="&#x2264;" horiz-adv-x="1804" 
d="M1634 0h-178v1102l-485 -1108h-146l-485 1108v-1102h-170v1413h238l495 -1159l498 1159h233v-1413z" />
    <glyph glyph-name="greaterequal" unicode="&#x2265;" horiz-adv-x="1419" 
d="M1069 158q-226 -174 -448 -174q-221 0 -342 114.5t-121 350.5v964h192v-938q0 -160 69 -238.5t214 -78.5q214 0 424 188v1067h192v-1413h-155z" />
    <glyph glyph-name="lozenge" unicode="&#x25ca;" horiz-adv-x="1636" 
d="M1524 707h-123l-39 491l-201 -493h-96l-201 493l-41 -491h-118l55 706h145l211 -528l209 528h141zM342 696q-116 0 -203 52l15 118q104 -65 190 -65q50 0 81.5 23.5t31.5 64.5q0 43 -26 69.5t-91 55.5q-111 50 -153 94t-42 125q0 85 62.5 137.5t163.5 52.5q102 0 172 -43
l-21 -116q-82 55 -155 55q-50 0 -78.5 -21.5t-28.5 -54.5q0 -40 24.5 -64.5t92.5 -54.5q111 -49 152.5 -95.5t41.5 -131.5q0 -92 -63 -146.5t-166 -54.5z" />
    <glyph glyph-name="apple" unicode="&#xf8ff;" horiz-adv-x="1421" 
d="M1319 -410h-426l-16 29h-334l-17 -29h-424v621q28 0 47 18.5t19 46.5q0 27 -19.5 46.5t-46.5 19.5v1135h205l62 161h684l59 -161h207v-1887zM819 1153v-352h31v160h78v28h-78v135h88v29h-119zM377 1153v-352h31v162h96v-162h31v352h-31v-162h-96v162h-31zM942 807
q16 -8 43 -8q64 0 64 73v281h-33v-281q0 -45 -33 -45q-19 0 -41 13v-33zM1071 662v-95h16v27l15 14l33 -41h18l-39 54l37 41h-21l-43 -50v50h-16zM999 598l21 -31h18l-24 35q20 7 20 31q0 10 -9.5 19.5t-23.5 9.5h-43v-95h17v31h24zM872 565q23 0 36.5 14t13.5 35
q0 19 -14.5 34.5t-35.5 15.5t-34 -15t-13 -35q0 -21 13 -35t34 -14zM758 616l-27 46h-18l37 -60v-35h16v35l37 60h-19zM395 662v-95h68v15h-51v26h45v15h-45v24h51v15h-68zM270 662v-95h17v66l51 -66h14v95h-16v-66l-51 66h-15zM494 662l30 -97h17l20 70h2l23 -70h16l29 97
h-17l-20 -72h-2l-21 72h-16l-23 -72h-2l-20 72h-16zM670 981q-25 48 -25 66q0 15 8.5 26.5t20.5 11.5t19 -11t7 -27q0 -31 -30 -66zM700 866q-5 -16 -15.5 -29.5t-20.5 -13.5q-15 0 -25 16.5t-10 39.5q0 37 30 67zM999 612h-24v35h22q21 0 21 -16q0 -7 -6 -13t-13 -6z
M872 580q-13 0 -21.5 10t-8.5 24q0 13 8.5 24t21.5 11t23 -11t10 -24q0 -14 -10 -24t-23 -10zM715 897l-33 64q47 44 47 86q0 25 -14.5 44t-40.5 19q-25 0 -41.5 -19t-16.5 -44q0 -9 1 -16.5t4.5 -16.5t6 -13.5t9 -16.5t8.5 -17q-47 -38 -47 -93q0 -34 18 -56.5t46 -22.5
q35 0 55 49h2l24 -49l23 16l-33 61q22 54 27 80l-27 6q-5 -21 -18 -61z" />
    <glyph glyph-name="fi" unicode="&#xfb01;" horiz-adv-x="1134" 
d="M997 1292q0 -46 -33 -78t-79 -32t-78.5 32t-32.5 78t32.5 79.5t78.5 33.5t79 -33.5t33 -79.5zM606 1290q-40 8 -94 8q-135 0 -135 -124v-197h196l23 -154h-219v-823h-178v823h-148v154h148v215q0 139 81.5 203.5t221.5 64.5q21 0 46 -2t32 -2zM977 0h-182v977h182v-977z
" />
    <glyph glyph-name="fl" unicode="&#xfb02;" horiz-adv-x="1134" 
d="M977 0h-182v1450l182 29v-1479zM606 1290q-40 8 -94 8q-135 0 -135 -124v-197h196l23 -154h-219v-823h-178v823h-148v154h148v215q0 139 81.5 203.5t221.5 64.5q21 0 46 -2t32 -2z" />
    <glyph glyph-name="NUL" horiz-adv-x="0" 
 />
    </font>
</defs>
</svg>
